<?xml version="1.0" encoding="UTF-8" standalone="no"?>
<!-- Created with Inkscape (http://www.inkscape.org/) -->

<svg
   xmlns:dc="http://purl.org/dc/elements/1.1/"
   xmlns:cc="http://creativecommons.org/ns#"
   xmlns:rdf="http://www.w3.org/1999/02/22-rdf-syntax-ns#"
   xmlns:svg="http://www.w3.org/2000/svg"
   xmlns="http://www.w3.org/2000/svg"
   xmlns:sodipodi="http://sodipodi.sourceforge.net/DTD/sodipodi-0.dtd"
   xmlns:inkscape="http://www.inkscape.org/namespaces/inkscape"
   width="396mm"
   height="468mm"
   viewBox="0 0 1403.1496 1658.2677"
   id="svg2"
   version="1.1"
   inkscape:version="0.91 r13725"
   sodipodi:docname="IBM Plex Sans Condensed sample.svg">
  <defs
     id="defs4" />
  <sodipodi:namedview
     id="base"
     pagecolor="#ffffff"
     bordercolor="#666666"
     borderopacity="1.0"
     inkscape:pageopacity="0.0"
     inkscape:pageshadow="2"
     inkscape:zoom="0.49497474"
     inkscape:cx="159.72982"
     inkscape:cy="1074.6595"
     inkscape:document-units="px"
     inkscape:current-layer="text4457"
     showgrid="false"
     inkscape:window-width="1366"
     inkscape:window-height="709"
     inkscape:window-x="0"
     inkscape:window-y="0"
     inkscape:window-maximized="1"
     inkscape:showpageshadow="false" />
  <metadata
     id="metadata7">
    <rdf:RDF>
      <cc:Work
         rdf:about="">
        <dc:format>image/svg+xml</dc:format>
        <dc:type
           rdf:resource="http://purl.org/dc/dcmitype/StillImage" />
        <dc:title></dc:title>
      </cc:Work>
    </rdf:RDF>
  </metadata>
  <g
     inkscape:label="Layer 1"
     inkscape:groupmode="layer"
     id="layer1"
     transform="translate(0,605.90551)">
    <path
       style="fill:#5aaafa;fill-opacity:1;stroke:#000000;stroke-width:0.9965499;stroke-miterlimit:4;stroke-dasharray:2.98964981, 2.98964980999999996;stroke-dashoffset:0;stroke-opacity:1"
       d="m -0.00172485,470.51254 1406.13572485,0 0,581.85136 -1406.13572485,0 z"
       id="rect4177" />
    <g
       style="font-style:normal;font-weight:normal;font-size:180px;line-height:125%;font-family:sans-serif;text-align:center;letter-spacing:0px;word-spacing:0px;text-anchor:middle;fill:#000000;fill-opacity:1;stroke:none;stroke-width:1px;stroke-linecap:butt;stroke-linejoin:miter;stroke-opacity:1"
       id="text4445" />
    <g
       style="font-style:normal;font-weight:normal;font-size:180px;line-height:125%;font-family:sans-serif;text-align:center;letter-spacing:0px;word-spacing:0px;text-anchor:middle;fill:#214152;fill-opacity:1;stroke:none;stroke-width:1px;stroke-linecap:butt;stroke-linejoin:miter;stroke-opacity:1"
       id="text4221">
      <path
         d="m 48.920264,-458.82599 0,-8.6625 -11.55,0 0,-74.2875 11.55,0 0,-8.6625 -33.6,0 0,8.6625 11.55,0 0,74.2875 -11.55,0 0,8.6625 33.6,0 z"
         style="font-style:normal;font-variant:normal;font-weight:normal;font-stretch:condensed;font-size:131.25px;font-family:'IBM Plex Sans Condensed';-inkscape-font-specification:'IBM Plex Sans Condensed, Condensed';fill:#214152;fill-opacity:1"
         id="path4288" />
      <path
         d="m 66.68208,-458.82599 38.19375,0 c 12.3375,0 20.86875,-9.84375 20.86875,-26.5125 0,-16.0125 -10.5,-20.86875 -16.93125,-20.86875 l 0,-1.3125 c 6.3,-0.525 14.04375,-4.725 14.04375,-19.29375 0,-15.88125 -7.74375,-23.625 -21.525,-23.625 l -34.65,0 0,91.6125 z m 10.5,-42.7875 24.54375,0 c 8.26875,0 12.73125,4.33125 12.73125,13.78125 l 0,6.0375 c 0,9.45 -4.4625,13.78125 -12.73125,13.78125 l -24.54375,0 0,-33.6 z m 0,-39.6375 22.8375,0 c 7.48125,0 11.68125,3.80625 11.68125,12.20625 l 0,6.0375 c 0,8.4 -4.2,12.20625 -11.68125,12.20625 l -22.8375,0 0,-30.45 z"
         style="font-style:normal;font-variant:normal;font-weight:normal;font-stretch:condensed;font-size:131.25px;font-family:'IBM Plex Sans Condensed';-inkscape-font-specification:'IBM Plex Sans Condensed, Condensed';fill:#214152;fill-opacity:1"
         id="path4290" />
      <path
         d="m 208.01782,-458.82599 10.2375,0 0,-91.6125 -13.9125,0 -16.5375,35.56875 -6.16875,16.93125 -1.05,0 -6.16875,-16.93125 -16.5375,-35.56875 -13.9125,0 0,91.6125 10.2375,0 0,-62.86875 -0.91875,-15.4875 1.3125,0 6.825,15.4875 19.6875,40.425 19.6875,-40.425 6.825,-15.75 1.3125,0 -0.91875,15.75 0,62.86875 z"
         style="font-style:normal;font-variant:normal;font-weight:normal;font-stretch:condensed;font-size:131.25px;font-family:'IBM Plex Sans Condensed';-inkscape-font-specification:'IBM Plex Sans Condensed, Condensed';fill:#214152;fill-opacity:1"
         id="path4292" />
      <path
         d="m 278.41499,-458.82599 0,-39.375 23.23125,0 c 14.9625,0 22.70625,-8.53125 22.70625,-26.11875 0,-17.5875 -7.74375,-26.11875 -22.70625,-26.11875 l -33.73125,0 0,91.6125 10.5,0 z m 0,-82.425 22.96875,0 c 7.74375,0 11.68125,4.06875 11.68125,12.6 l 0,8.6625 c 0,8.53125 -3.9375,12.6 -11.68125,12.6 l -22.96875,0 0,-33.8625 z"
         style="font-style:normal;font-variant:normal;font-weight:normal;font-stretch:condensed;font-size:131.25px;font-family:'IBM Plex Sans Condensed';-inkscape-font-specification:'IBM Plex Sans Condensed, Condensed';fill:#214152;fill-opacity:1"
         id="path4294" />
      <path
         d="m 357.53618,-458.82599 0,-8.79375 -8.53125,0 0,-88.33125 -9.975,0 0,86.8875 c 0,7.0875 3.15,10.2375 10.2375,10.2375 l 8.26875,0 z"
         style="font-style:normal;font-variant:normal;font-weight:normal;font-stretch:condensed;font-size:131.25px;font-family:'IBM Plex Sans Condensed';-inkscape-font-specification:'IBM Plex Sans Condensed, Condensed';fill:#214152;fill-opacity:1"
         id="path4296" />
      <path
         d="m 394.42974,-457.25099 c 12.6,0 20.60625,-6.43125 24.80625,-15.61875 l -6.825,-4.9875 c -3.28125,7.74375 -8.925,11.8125 -17.98125,11.8125 -10.63125,0 -17.0625,-6.5625 -17.0625,-19.81875 l 0,-4.33125 43.44375,0 0,-2.49375 c 0,-25.2 -10.5,-35.4375 -26.38125,-35.4375 -15.88125,0 -27.69375,10.2375 -27.69375,35.4375 0,25.2 11.8125,35.4375 27.69375,35.4375 z m 0,-62.475 c 10.36875,0 15.75,6.95625 15.75,20.2125 l 0,1.70625 -32.8125,0 0,-1.70625 c 0,-13.25625 6.3,-20.2125 17.0625,-20.2125 z"
         style="font-style:normal;font-variant:normal;font-weight:normal;font-stretch:condensed;font-size:131.25px;font-family:'IBM Plex Sans Condensed';-inkscape-font-specification:'IBM Plex Sans Condensed, Condensed';fill:#214152;fill-opacity:1"
         id="path4298" />
      <path
         d="m 438.31646,-458.82599 16.40625,-26.5125 1.3125,0 15.61875,26.5125 11.2875,0 -21.91875,-34.9125 21.2625,-32.8125 -10.89375,0 -15.35625,24.675 -1.3125,0 -15.09375,-24.675 -11.2875,0 21.39375,33.20625 -22.3125,34.51875 10.89375,0 z"
         style="font-style:normal;font-variant:normal;font-weight:normal;font-stretch:condensed;font-size:131.25px;font-family:'IBM Plex Sans Condensed';-inkscape-font-specification:'IBM Plex Sans Condensed, Condensed';fill:#214152;fill-opacity:1"
         id="path4300" />
      <path
         d="m 547.3688,-457.25099 c 17.85,0 28.875,-9.31875 28.875,-26.5125 0,-15.09375 -6.43125,-22.18125 -23.49375,-26.38125 l -6.825,-1.70625 c -10.63125,-2.625 -15.225,-6.69375 -15.225,-15.4875 0,-11.025 6.0375,-15.61875 17.19375,-15.61875 9.84375,0 15.35625,3.80625 20.08125,11.15625 l 7.74375,-5.5125 c -6.43125,-10.10625 -14.7,-14.7 -27.43125,-14.7 -16.8,0 -27.825,8.4 -27.825,24.675 0,14.175 7.48125,21.39375 23.49375,25.33125 l 6.825,1.70625 c 11.2875,2.75625 15.225,7.0875 15.225,16.5375 0,11.55 -6.43125,17.45625 -18.6375,17.45625 -9.45,0 -16.275,-4.725 -21.7875,-12.8625 l -7.6125,6.3 c 6.43125,9.7125 16.275,15.61875 29.4,15.61875 z"
         style="font-style:normal;font-variant:normal;font-weight:normal;font-stretch:condensed;font-size:131.25px;font-family:'IBM Plex Sans Condensed';-inkscape-font-specification:'IBM Plex Sans Condensed, Condensed';fill:#214152;fill-opacity:1"
         id="path4302" />
      <path
         d="m 641.92007,-458.82599 0,-8.79375 -6.825,0 0,-38.325 c 0,-14.4375 -8.26875,-22.05 -23.49375,-22.05 -10.36875,0 -18.50625,5.775 -22.05,12.99375 l 5.90625,5.5125 c 3.4125,-6.43125 8.00625,-9.975 15.75,-9.975 9.58125,0 13.9125,4.59375 13.9125,14.56875 l 0,7.48125 -12.20625,0 c -17.5875,0 -25.725,7.875 -25.725,20.475 0,12.8625 6.43125,19.6875 19.55625,19.6875 8.26875,0 14.83125,-4.4625 17.0625,-12.6 l 1.3125,0 0,1.3125 c 0,6.3 3.4125,9.7125 9.7125,9.7125 l 7.0875,0 z m -32.68125,-7.0875 c -7.0875,0 -11.68125,-3.15 -11.68125,-9.975 l 0,-3.675 c 0,-6.5625 4.59375,-10.2375 15.09375,-10.2375 l 12.46875,0 0,10.2375 c 0,6.95625 -6.69375,13.65 -15.88125,13.65 z"
         style="font-style:normal;font-variant:normal;font-weight:normal;font-stretch:condensed;font-size:131.25px;font-family:'IBM Plex Sans Condensed';-inkscape-font-specification:'IBM Plex Sans Condensed, Condensed';fill:#214152;fill-opacity:1"
         id="path4304" />
      <path
         d="m 665.33794,-458.82599 0,-46.2 c 0,-8.79375 6.43125,-14.04375 14.4375,-14.04375 9.1875,0 13.65,6.0375 13.65,16.8 l 0,43.44375 9.975,0 0,-44.1 c 0,-17.0625 -7.35,-25.2 -19.425,-25.2 -9.45,0 -14.7,4.33125 -17.325,12.6 l -1.3125,0 0,-11.025 -9.975,0 0,67.725 9.975,0 z"
         style="font-style:normal;font-variant:normal;font-weight:normal;font-stretch:condensed;font-size:131.25px;font-family:'IBM Plex Sans Condensed';-inkscape-font-specification:'IBM Plex Sans Condensed, Condensed';fill:#214152;fill-opacity:1"
         id="path4306" />
      <path
         d="m 741.55112,-457.25099 c 14.7,0 22.575,-7.875 22.575,-21 0,-10.36875 -5.25,-16.40625 -19.03125,-18.9 l -5.11875,-0.91875 c -7.6125,-1.3125 -10.89375,-4.06875 -10.89375,-10.63125 0,-7.0875 3.9375,-10.89375 11.94375,-10.89375 7.6125,0 12.46875,3.80625 15.35625,8.00625 l 6.43125,-5.90625 c -4.9875,-6.825 -11.68125,-10.5 -21.7875,-10.5 -12.73125,0 -21.65625,5.90625 -21.65625,19.6875 0,11.68125 6.43125,16.93125 19.425,19.29375 l 5.11875,0.91875 c 8.00625,1.44375 10.5,5.11875 10.5,11.025 0,7.35 -4.9875,11.41875 -12.8625,11.41875 -7.6125,0 -12.8625,-3.54375 -17.5875,-10.2375 l -6.95625,5.775 c 5.5125,8.00625 13.3875,12.8625 24.54375,12.8625 z"
         style="font-style:normal;font-variant:normal;font-weight:normal;font-stretch:condensed;font-size:131.25px;font-family:'IBM Plex Sans Condensed';-inkscape-font-specification:'IBM Plex Sans Condensed, Condensed';fill:#214152;fill-opacity:1"
         id="path4308" />
      <path
         d="m 838.45874,-457.25099 c 14.9625,0 24.28125,-7.0875 29.53125,-20.2125 l -8.4,-5.25 c -3.28125,10.5 -9.31875,16.14375 -21.13125,16.14375 -13.9125,0 -21.91875,-10.89375 -21.91875,-27.825 l 0,-20.475 c 0,-16.93125 8.00625,-27.825 21.91875,-27.825 11.41875,0 17.19375,5.38125 20.475,15.225 l 8.4,-5.11875 c -5.25,-12.99375 -13.9125,-19.425 -28.875,-19.425 -20.7375,0 -33.20625,14.7 -33.20625,47.38125 0,32.68125 12.46875,47.38125 33.20625,47.38125 z"
         style="font-style:normal;font-variant:normal;font-weight:normal;font-stretch:condensed;font-size:131.25px;font-family:'IBM Plex Sans Condensed';-inkscape-font-specification:'IBM Plex Sans Condensed, Condensed';fill:#214152;fill-opacity:1"
         id="path4310" />
      <path
         d="m 905.07427,-457.25099 c 15.88125,0 27.69375,-10.2375 27.69375,-35.4375 0,-25.2 -11.8125,-35.4375 -27.69375,-35.4375 -15.88125,0 -27.69375,10.2375 -27.69375,35.4375 0,25.2 11.8125,35.4375 27.69375,35.4375 z m 0,-8.925 c -10.7625,0 -16.93125,-6.43125 -16.93125,-19.6875 l 0,-13.65 c 0,-13.25625 6.16875,-19.6875 16.93125,-19.6875 10.7625,0 16.93125,6.43125 16.93125,19.6875 l 0,13.65 c 0,13.25625 -6.16875,19.6875 -16.93125,19.6875 z"
         style="font-style:normal;font-variant:normal;font-weight:normal;font-stretch:condensed;font-size:131.25px;font-family:'IBM Plex Sans Condensed';-inkscape-font-specification:'IBM Plex Sans Condensed, Condensed';fill:#214152;fill-opacity:1"
         id="path4312" />
      <path
         d="m 958.08696,-458.82599 0,-46.2 c 0,-8.79375 6.43125,-14.04375 14.4375,-14.04375 9.1875,0 13.65,6.0375 13.65,16.8 l 0,43.44375 9.975,0 0,-44.1 c 0,-17.0625 -7.35,-25.2 -19.425,-25.2 -9.45,0 -14.7,4.33125 -17.325,12.6 l -1.3125,0 0,-11.025 -9.975,0 0,67.725 9.975,0 z"
         style="font-style:normal;font-variant:normal;font-weight:normal;font-stretch:condensed;font-size:131.25px;font-family:'IBM Plex Sans Condensed';-inkscape-font-specification:'IBM Plex Sans Condensed, Condensed';fill:#214152;fill-opacity:1"
         id="path4314" />
      <path
         d="m 1054.3814,-458.82599 9.975,0 0,-97.125 -9.975,0 0,40.425 -1.3125,0 c -2.625,-8.79375 -8.6625,-12.6 -17.0625,-12.6 -16.1438,0 -24.675,13.65 -24.675,35.4375 0,21.7875 8.5312,35.4375 24.675,35.4375 8.4,0 14.4375,-3.80625 17.0625,-12.6 l 1.3125,0 0,11.025 z m -15.3563,-7.35 c -11.025,0 -16.9312,-7.35 -16.9312,-19.6875 l 0,-13.65 c 0,-12.3375 5.9062,-19.6875 16.9312,-19.6875 8.4,0 15.3563,5.25 15.3563,12.8625 l 0,27.3 c 0,7.6125 -6.9563,12.8625 -15.3563,12.8625 z"
         style="font-style:normal;font-variant:normal;font-weight:normal;font-stretch:condensed;font-size:131.25px;font-family:'IBM Plex Sans Condensed';-inkscape-font-specification:'IBM Plex Sans Condensed, Condensed';fill:#214152;fill-opacity:1"
         id="path4316" />
      <path
         d="m 1107.3326,-457.25099 c 12.6,0 20.6062,-6.43125 24.8062,-15.61875 l -6.825,-4.9875 c -3.2812,7.74375 -8.925,11.8125 -17.9812,11.8125 -10.6313,0 -17.0625,-6.5625 -17.0625,-19.81875 l 0,-4.33125 43.4437,0 0,-2.49375 c 0,-25.2 -10.5,-35.4375 -26.3812,-35.4375 -15.8813,0 -27.6938,10.2375 -27.6938,35.4375 0,25.2 11.8125,35.4375 27.6938,35.4375 z m 0,-62.475 c 10.3687,0 15.75,6.95625 15.75,20.2125 l 0,1.70625 -32.8125,0 0,-1.70625 c 0,-13.25625 6.3,-20.2125 17.0625,-20.2125 z"
         style="font-style:normal;font-variant:normal;font-weight:normal;font-stretch:condensed;font-size:131.25px;font-family:'IBM Plex Sans Condensed';-inkscape-font-specification:'IBM Plex Sans Condensed, Condensed';fill:#214152;fill-opacity:1"
         id="path4318" />
      <path
         d="m 1159.0635,-458.82599 0,-46.2 c 0,-8.79375 6.4313,-14.04375 14.4375,-14.04375 9.1875,0 13.65,6.0375 13.65,16.8 l 0,43.44375 9.975,0 0,-44.1 c 0,-17.0625 -7.35,-25.2 -19.425,-25.2 -9.45,0 -14.7,4.33125 -17.325,12.6 l -1.3125,0 0,-11.025 -9.975,0 0,67.725 9.975,0 z"
         style="font-style:normal;font-variant:normal;font-weight:normal;font-stretch:condensed;font-size:131.25px;font-family:'IBM Plex Sans Condensed';-inkscape-font-specification:'IBM Plex Sans Condensed, Condensed';fill:#214152;fill-opacity:1"
         id="path4320" />
      <path
         d="m 1235.2767,-457.25099 c 14.7,0 22.575,-7.875 22.575,-21 0,-10.36875 -5.25,-16.40625 -19.0312,-18.9 l -5.1188,-0.91875 c -7.6125,-1.3125 -10.8937,-4.06875 -10.8937,-10.63125 0,-7.0875 3.9375,-10.89375 11.9437,-10.89375 7.6125,0 12.4688,3.80625 15.3563,8.00625 l 6.4312,-5.90625 c -4.9875,-6.825 -11.6812,-10.5 -21.7875,-10.5 -12.7312,0 -21.6562,5.90625 -21.6562,19.6875 0,11.68125 6.4312,16.93125 19.425,19.29375 l 5.1187,0.91875 c 8.0063,1.44375 10.5,5.11875 10.5,11.025 0,7.35 -4.9875,11.41875 -12.8625,11.41875 -7.6125,0 -12.8625,-3.54375 -17.5875,-10.2375 l -6.9562,5.775 c 5.5125,8.00625 13.3875,12.8625 24.5437,12.8625 z"
         style="font-style:normal;font-variant:normal;font-weight:normal;font-stretch:condensed;font-size:131.25px;font-family:'IBM Plex Sans Condensed';-inkscape-font-specification:'IBM Plex Sans Condensed, Condensed';fill:#214152;fill-opacity:1"
         id="path4322" />
      <path
         d="m 1297.2862,-457.25099 c 12.6,0 20.6062,-6.43125 24.8062,-15.61875 l -6.825,-4.9875 c -3.2812,7.74375 -8.925,11.8125 -17.9812,11.8125 -10.6313,0 -17.0625,-6.5625 -17.0625,-19.81875 l 0,-4.33125 43.4437,0 0,-2.49375 c 0,-25.2 -10.5,-35.4375 -26.3812,-35.4375 -15.8813,0 -27.6938,10.2375 -27.6938,35.4375 0,25.2 11.8125,35.4375 27.6938,35.4375 z m 0,-62.475 c 10.3687,0 15.75,6.95625 15.75,20.2125 l 0,1.70625 -32.8125,0 0,-1.70625 c 0,-13.25625 6.3,-20.2125 17.0625,-20.2125 z"
         style="font-style:normal;font-variant:normal;font-weight:normal;font-stretch:condensed;font-size:131.25px;font-family:'IBM Plex Sans Condensed';-inkscape-font-specification:'IBM Plex Sans Condensed, Condensed';fill:#214152;fill-opacity:1"
         id="path4324" />
      <path
         d="m 1377.8921,-458.82599 9.975,0 0,-97.125 -9.975,0 0,40.425 -1.3125,0 c -2.625,-8.79375 -8.6625,-12.6 -17.0625,-12.6 -16.1437,0 -24.675,13.65 -24.675,35.4375 0,21.7875 8.5313,35.4375 24.675,35.4375 8.4,0 14.4375,-3.80625 17.0625,-12.6 l 1.3125,0 0,11.025 z m -15.3562,-7.35 c -11.025,0 -16.9313,-7.35 -16.9313,-19.6875 l 0,-13.65 c 0,-12.3375 5.9063,-19.6875 16.9313,-19.6875 8.4,0 15.3562,5.25 15.3562,12.8625 l 0,27.3 c 0,7.6125 -6.9562,12.8625 -15.3562,12.8625 z"
         style="font-style:normal;font-variant:normal;font-weight:normal;font-stretch:condensed;font-size:131.25px;font-family:'IBM Plex Sans Condensed';-inkscape-font-specification:'IBM Plex Sans Condensed, Condensed';fill:#214152;fill-opacity:1"
         id="path4326" />
    </g>
    <g
       style="font-style:normal;font-weight:normal;font-size:180px;line-height:125%;font-family:sans-serif;text-align:center;letter-spacing:0px;word-spacing:0px;text-anchor:middle;fill:#214152;fill-opacity:1;stroke:none;stroke-width:1px;stroke-linecap:butt;stroke-linejoin:miter;stroke-opacity:1"
       id="text4225">
      <path
         d="m 180.95295,40.935501 -12.6,-125.64 -18.72,0 -62.279997,125.64 14.759997,0 18.18,-37.7999999 43.2,0 3.42,37.7999999 14.04,0 z m -18.54,-49.4999999 -36.18,0 21.78,-46.6200001 7.56,-17.46 1.8,0 0.9,17.46 4.14,46.6200001 z"
         style="font-style:italic;font-variant:normal;font-weight:normal;font-stretch:condensed;font-family:'IBM Plex Sans Condensed';-inkscape-font-specification:'IBM Plex Sans Condensed, Italic Condensed';fill:#214152;fill-opacity:1"
         id="path4341" />
      <path
         d="m 271.12733,40.935501 2.34,-11.52 -11.52,0 16.2,-81.36 -13.32,0 -3.06,15.12 -1.8,0 c -1.08,-11.34 -10.44,-17.28 -21.06,-17.28 -20.34,0 -33.3,15.48 -38.88,43.38 -1.44,7.5600001 -2.52,16.7400001 -2.52,23.22 0,18.18 8.28,30.6 24.3,30.6 12.24,0 21.06,-7.2 26.64,-22.14 l 1.8,0 -1.26,6.12 c -0.36,1.8 -0.72,3.6 -0.72,5.4 0,5.58 3.42,8.46 9.18,8.46 l 13.68,0 z m -44.1,-9.72 c -10.08,0 -16.2,-5.76 -16.2,-18.9 0,-2.3399999 0,-5.7599999 0.72,-8.9999999 l 4.14,-20.8800001 c 3.24,-16.02 11.7,-24.84 25.2,-24.84 12.6,0 19.8,10.98 18.18,19.26 l -5.04,25.2000001 c -1.26,6.12 -5.58,14.2199999 -10.26,20.1599999 -4.68,5.94 -9.9,9 -16.74,9 z"
         style="font-style:italic;font-variant:normal;font-weight:normal;font-stretch:condensed;font-family:'IBM Plex Sans Condensed';-inkscape-font-specification:'IBM Plex Sans Condensed, Italic Condensed';fill:#214152;fill-opacity:1"
         id="path4343" />
      <path
         d="m 398.98639,40.935501 2.52,-12.06 -55.98,0 9.18,-45.72 47.7,0 2.52,-12.06 -47.7,0 8.64,-43.74 52.74,0 2.52,-12.06 -66.6,0 -25.2,125.64 69.66,0 z"
         style="font-style:italic;font-variant:normal;font-weight:normal;font-stretch:condensed;font-family:'IBM Plex Sans Condensed';-inkscape-font-specification:'IBM Plex Sans Condensed, Italic Condensed';fill:#214152;fill-opacity:1"
         id="path4345" />
      <path
         d="m 452.41264,43.095501 c 15.12,0 28.08,-7.02 35.46,-19.26 l -8.46,-7.56 c -5.76,9.18 -14.4,15.12 -26.1,15.12 -11.88,0 -18.54,-6.3 -18.54,-20.7 0,-2.3399999 0,-5.2199999 1.08,-9.7199999 38.52,-0.72 57.96,-9.36 57.96,-30.4200001 0,-16.74 -12.24,-24.66 -27.54,-24.66 -21.42,0 -36.9,15.3 -42.3,42.66 -1.44,7.2000001 -2.52,16.0200001 -2.52,22.32 0,19.08 10.08,32.22 30.96,32.22 z m 12.6,-85.86 c 7.92,0 15.3,2.88 15.3,14.22 0,12.96 -9.54,17.64 -42.48,19.0800001 l 1.8,-8.8200001 c 3.24,-15.84 11.7,-24.48 25.38,-24.48 z"
         style="font-style:italic;font-variant:normal;font-weight:normal;font-stretch:condensed;font-family:'IBM Plex Sans Condensed';-inkscape-font-specification:'IBM Plex Sans Condensed, Italic Condensed';fill:#214152;fill-opacity:1"
         id="path4347" />
      <path
         d="m 566.6817,-13.424499 25.2,0 14.4,54.36 14.76,0 -15.66,-55.08 c 18.9,-3.6 30.24,-20.34 30.24,-42.12 0,-17.46 -7.2,-28.44 -26.82,-28.44 l -41.58,0 -25.2,125.64 13.86,0 10.8,-54.36 z m 2.52,-12.06 9.36,-47.16 28.98,0 c 10.26,0 13.86,5.04 13.86,12.78 0,4.14 -0.36,6.66 -2.52,17.46 -2.16,10.98 -9.36,16.92 -19.08,16.92 l -30.6,0 z"
         style="font-style:italic;font-variant:normal;font-weight:normal;font-stretch:condensed;font-family:'IBM Plex Sans Condensed';-inkscape-font-specification:'IBM Plex Sans Condensed, Italic Condensed';fill:#214152;fill-opacity:1"
         id="path4349" />
      <path
         d="m 657.09795,40.935501 11.16,-55.62 c 2.88,-14.76 10.98,-23.58 25.38,-23.58 l 7.92,0 2.7,-13.68 -6.3,0 c -11.7,0 -19.44,5.76 -24.12,18.18 l -1.8,0 3.6,-18.18 -13.32,0 -18.54,92.88 13.32,0 z"
         style="font-style:italic;font-variant:normal;font-weight:normal;font-stretch:condensed;font-family:'IBM Plex Sans Condensed';-inkscape-font-specification:'IBM Plex Sans Condensed, Italic Condensed';fill:#214152;fill-opacity:1"
         id="path4351" />
      <g
         style="font-style:normal;font-weight:normal;font-size:175px;line-height:125%;font-family:sans-serif;text-align:center;letter-spacing:0px;word-spacing:0px;text-anchor:middle;fill:#214152;fill-opacity:1;stroke:none;stroke-width:1px;stroke-linecap:butt;stroke-linejoin:miter;stroke-opacity:1"
         id="text4457">
        <g
           style="font-style:normal;font-weight:normal;font-size:180px;line-height:125%;font-family:sans-serif;text-align:center;letter-spacing:0px;word-spacing:0px;text-anchor:middle;fill:#000000;fill-opacity:1;stroke:none;stroke-width:1px;stroke-linecap:butt;stroke-linejoin:miter;stroke-opacity:1"
           id="text4474">
          <path
             d="m 193.72214,-133.55688 -39.42,-125.64 -18,0 -39.240005,125.64 14.400005,0 11.16,-37.62 45.18,0 11.16,37.62 14.76,0 z m -29.16,-49.5 -38.52,0 14.22,-47.7 3.96,-15.66 1.8,0 3.96,15.66 14.58,47.7 z"
             style="font-style:normal;font-variant:normal;font-weight:normal;font-stretch:condensed;font-family:'IBM Plex Sans Condensed';-inkscape-font-specification:'IBM Plex Sans Condensed, Condensed';fill:#214152;fill-opacity:1"
             id="path4479" />
          <path
             d="m 279.7762,-133.55688 0,-12.06 -9.36,0 0,-52.56 c 0,-19.8 -11.34,-30.24 -32.22,-30.24 -14.22,0 -25.38,7.92 -30.24,17.82 l 8.1,7.56 c 4.68,-8.82 10.98,-13.68 21.6,-13.68 13.14,0 19.08,6.3 19.08,19.98 l 0,10.26 -16.74,0 c -24.12,0 -35.28,10.8 -35.28,28.08 0,17.64 8.82,27 26.82,27 11.34,0 20.34,-6.12 23.4,-17.28 l 1.8,0 0,1.8 c 0,8.64 4.68,13.32 13.32,13.32 l 9.72,0 z m -44.82,-9.72 c -9.72,0 -16.02,-4.32 -16.02,-13.68 l 0,-5.04 c 0,-9 6.3,-14.04 20.7,-14.04 l 17.1,0 0,14.04 c 0,9.54 -9.18,18.72 -21.78,18.72 z"
             style="font-style:normal;font-variant:normal;font-weight:normal;font-stretch:condensed;font-family:'IBM Plex Sans Condensed';-inkscape-font-specification:'IBM Plex Sans Condensed, Condensed';fill:#214152;fill-opacity:1"
             id="path4481" />
          <path
             d="m 407.27245,-133.55688 0,-12.6 -55.08,0 0,-44.64 51.66,0 0,-12.6 -51.66,0 0,-43.2 55.08,0 0,-12.6 -69.48,0 0,125.64 69.48,0 z"
             style="font-style:normal;font-variant:normal;font-weight:normal;font-stretch:condensed;font-family:'IBM Plex Sans Condensed';-inkscape-font-specification:'IBM Plex Sans Condensed, Condensed';fill:#214152;fill-opacity:1"
             id="path4483" />
          <path
             d="m 461.02495,-131.39688 c 17.28,0 28.26,-8.82 34.02,-21.42 l -9.36,-6.84 c -4.5,10.62 -12.24,16.2 -24.66,16.2 -14.58,0 -23.4,-9 -23.4,-27.18 l 0,-5.94 59.58,0 0,-3.42 c 0,-34.56 -14.4,-48.6 -36.18,-48.6 -21.78,0 -37.98,14.04 -37.98,48.6 0,34.56 16.2,48.6 37.98,48.6 z m 0,-85.68 c 14.22,0 21.6,9.54 21.6,27.72 l 0,2.34 -45,0 0,-2.34 c 0,-18.18 8.64,-27.72 23.4,-27.72 z"
             style="font-style:normal;font-variant:normal;font-weight:normal;font-stretch:condensed;font-family:'IBM Plex Sans Condensed';-inkscape-font-specification:'IBM Plex Sans Condensed, Condensed';fill:#214152;fill-opacity:1"
             id="path4485" />
          <path
             d="m 572.27057,-187.55688 26.28,0 23.58,54 16.2,0 -25.38,-54.9 c 14.76,-3.06 22.32,-14.58 22.32,-34.92 0,-24.12 -10.62,-35.82 -31.14,-35.82 l -46.26,0 0,125.64 14.4,0 0,-54 z m 0,-12.24 0,-46.8 31.5,0 c 10.62,0 16.02,5.58 16.02,17.28 l 0,12.24 c 0,11.7 -5.4,17.28 -16.02,17.28 l -31.5,0 z"
             style="font-style:normal;font-variant:normal;font-weight:normal;font-stretch:condensed;font-family:'IBM Plex Sans Condensed';-inkscape-font-specification:'IBM Plex Sans Condensed, Condensed';fill:#214152;fill-opacity:1"
             id="path4487" />
          <path
             d="m 674.35307,-133.55688 0,-61.74 c 0,-11.34 7.74,-17.28 20.7,-17.28 l 9,0 0,-13.86 -5.04,0 c -12.06,0 -19.8,6.66 -22.86,17.28 l -1.8,0 0,-17.28 -13.68,0 0,92.88 13.68,0 z"
             style="font-style:normal;font-variant:normal;font-weight:normal;font-stretch:condensed;font-family:'IBM Plex Sans Condensed';-inkscape-font-specification:'IBM Plex Sans Condensed, Condensed';fill:#214152;fill-opacity:1"
             id="path4489" />
        </g>
      </g>
    </g>
    <g
       style="font-style:normal;font-weight:normal;font-size:180px;line-height:125%;font-family:sans-serif;text-align:center;letter-spacing:0px;word-spacing:0px;text-anchor:middle;fill:#5a6872;fill-opacity:1;stroke:none;stroke-width:1px;stroke-linecap:butt;stroke-linejoin:miter;stroke-opacity:1"
       id="text4231">
      <path
         d="m 252.9107,347.41543 c 26.28,0 41.58,-13.5 41.58,-38.52 0,-20.88 -9.36,-30.6 -33.3,-36 l -10.26,-2.34 c -12.06,-2.88 -17.28,-7.74 -17.28,-18.18 0,-12.78 6.84,-18.18 20.52,-18.18 12.06,0 19.62,4.5 26.1,13.68 l 13.14,-11.52 c -9,-12.96 -21.06,-18.9 -38.88,-18.9 -25.02,0 -39.96,12.24 -39.96,35.46 0,19.98 10.44,30.6 32.94,35.64 l 10.26,2.16 c 12.78,3.06 17.64,8.46 17.64,19.44 0,13.68 -7.74,20.52 -22.32,20.52 -12.24,0 -21.78,-5.76 -29.16,-16.02 l -13.14,12.06 c 9.72,13.32 23.58,20.7 42.12,20.7 z"
         style="font-style:normal;font-variant:normal;font-weight:500;font-stretch:condensed;font-family:'IBM Plex Sans Condensed';-inkscape-font-specification:'IBM Plex Sans Condensed,  Medium Condensed';fill:#5a6872;fill-opacity:1"
         id="path4354" />
      <path
         d="m 365.07039,345.25543 18.54,0 0,-93.6 -18.54,0 0,63.18 c 0,10.44 -7.92,16.74 -17.46,16.74 -10.62,0 -15.84,-7.02 -15.84,-20.34 l 0,-59.58 -18.54,0 0,62.1 c 0,21.96 9.72,33.66 26.28,33.66 11.7,0 19.44,-5.76 23.22,-17.64 l 2.34,0 0,15.48 z"
         style="font-style:normal;font-variant:normal;font-weight:500;font-stretch:condensed;font-family:'IBM Plex Sans Condensed';-inkscape-font-specification:'IBM Plex Sans Condensed,  Medium Condensed';fill:#5a6872;fill-opacity:1"
         id="path4356" />
      <path
         d="m 408.8807,381.25543 18.54,0 0,-51.3 2.16,0 c 3.06,10.98 11.7,17.46 22.68,17.46 21.96,0 32.94,-17.82 32.94,-48.96 0,-31.14 -10.98,-48.96 -32.94,-48.96 -10.98,0 -19.62,6.48 -22.68,17.46 l -2.16,0 0,-15.3 -18.54,0 0,129.6 z m 36.72,-49.68 c -10.44,0 -18.18,-5.94 -18.18,-15.48 l 0,-35.28 c 0,-9.54 7.74,-15.48 18.18,-15.48 12.6,0 19.98,8.28 19.98,22.68 l 0,20.88 c 0,14.4 -7.38,22.68 -19.98,22.68 z"
         style="font-style:normal;font-variant:normal;font-weight:500;font-stretch:condensed;font-family:'IBM Plex Sans Condensed';-inkscape-font-specification:'IBM Plex Sans Condensed,  Medium Condensed';fill:#5a6872;fill-opacity:1"
         id="path4358" />
      <path
         d="m 539.22883,347.41543 c 16.74,0 28.08,-7.74 34.74,-19.44 l -10.8,-10.26 c -5.04,9.18 -12.06,14.4 -23.22,14.4 -13.14,0 -21.24,-8.28 -21.24,-23.04 l 0,-5.94 57.24,0 0,-4.68 c 0,-34.02 -14.04,-48.96 -37.8,-48.96 -23.76,0 -38.88,14.94 -38.88,48.96 0,33.84 16.38,48.96 39.96,48.96 z m -1.08,-83.16 c 12.06,0 18.18,7.74 18.18,22.68 l 0,3.78 -37.62,0 0,-3.78 c 0,-14.94 7.02,-22.68 19.44,-22.68 z"
         style="font-style:normal;font-variant:normal;font-weight:500;font-stretch:condensed;font-family:'IBM Plex Sans Condensed';-inkscape-font-specification:'IBM Plex Sans Condensed,  Medium Condensed';fill:#5a6872;fill-opacity:1"
         id="path4360" />
      <path
         d="m 614.10039,345.25543 0,-58.86 c 0,-10.98 7.2,-15.84 20.34,-15.84 l 7.92,0 0,-18.9 -4.68,0 c -11.16,0 -18.72,6.66 -21.42,18.54 l -2.16,0 0,-18.54 -18.54,0 0,93.6 18.54,0 z"
         style="font-style:normal;font-variant:normal;font-weight:500;font-stretch:condensed;font-family:'IBM Plex Sans Condensed';-inkscape-font-specification:'IBM Plex Sans Condensed,  Medium Condensed';fill:#5a6872;fill-opacity:1"
         id="path4362" />
      <path
         d="m 690.00695,347.41543 c 17.28,0 28.44,-8.46 33.84,-23.04 l -14.04,-7.74 c -3.42,10.08 -9.18,15.3 -19.8,15.3 -12.6,0 -18.54,-7.38 -18.54,-22.5 l 0,-21.96 c 0,-15.12 5.94,-22.5 18.54,-22.5 10.44,0 15.84,5.04 18,14.4 l 15.3,-7.2 c -4.86,-13.68 -15.3,-22.68 -33.3,-22.68 -24.48,0 -38.16,14.94 -38.16,48.96 0,34.02 13.68,48.96 38.16,48.96 z"
         style="font-style:normal;font-variant:normal;font-weight:500;font-stretch:condensed;font-family:'IBM Plex Sans Condensed';-inkscape-font-specification:'IBM Plex Sans Condensed,  Medium Condensed';fill:#5a6872;fill-opacity:1"
         id="path4364" />
      <path
         d="m 771.93789,347.41543 c 23.76,0 38.88,-14.94 38.88,-48.96 0,-34.02 -15.12,-48.96 -38.88,-48.96 -23.76,0 -38.88,14.94 -38.88,48.96 0,34.02 15.12,48.96 38.88,48.96 z m 0,-15.48 c -12.42,0 -19.26,-7.38 -19.26,-22.5 l 0,-21.96 c 0,-15.12 6.84,-22.5 19.26,-22.5 12.42,0 19.26,7.38 19.26,22.5 l 0,21.96 c 0,15.12 -6.84,22.5 -19.26,22.5 z"
         style="font-style:normal;font-variant:normal;font-weight:500;font-stretch:condensed;font-family:'IBM Plex Sans Condensed';-inkscape-font-specification:'IBM Plex Sans Condensed,  Medium Condensed';fill:#5a6872;fill-opacity:1"
         id="path4366" />
      <path
         d="m 848.59258,345.25543 0,-63.18 c 0,-10.44 7.38,-16.74 16.74,-16.74 10.08,0 14.94,7.2 14.94,20.34 l 0,59.58 18.54,0 0,-63.18 c 0,-10.44 7.56,-16.74 16.74,-16.74 10.08,0 14.94,7.2 14.94,20.34 l 0,59.58 18.54,0 0,-62.1 c 0,-21.96 -9.54,-33.66 -25.56,-33.66 -12.6,0 -21.24,5.94 -25.02,18 l -1.98,0 c -3.78,-11.7 -11.52,-18 -23.22,-18 -11.34,0 -18.72,5.76 -22.5,17.64 l -2.16,0 0,-15.48 -18.54,0 0,93.6 18.54,0 z"
         style="font-style:normal;font-variant:normal;font-weight:500;font-stretch:condensed;font-family:'IBM Plex Sans Condensed';-inkscape-font-specification:'IBM Plex Sans Condensed,  Medium Condensed';fill:#5a6872;fill-opacity:1"
         id="path4368" />
      <path
         d="m 973.49008,381.25543 18.54,0 0,-51.3 2.16,0 c 3.06,10.98 11.70002,17.46 22.68002,17.46 21.96,0 32.94,-17.82 32.94,-48.96 0,-31.14 -10.98,-48.96 -32.94,-48.96 -10.98,0 -19.62002,6.48 -22.68002,17.46 l -2.16,0 0,-15.3 -18.54,0 0,129.6 z m 36.72002,-49.68 c -10.44002,0 -18.18002,-5.94 -18.18002,-15.48 l 0,-35.28 c 0,-9.54 7.74,-15.48 18.18002,-15.48 12.6,0 19.98,8.28 19.98,22.68 l 0,20.88 c 0,14.4 -7.38,22.68 -19.98,22.68 z"
         style="font-style:normal;font-variant:normal;font-weight:500;font-stretch:condensed;font-family:'IBM Plex Sans Condensed';-inkscape-font-specification:'IBM Plex Sans Condensed,  Medium Condensed';fill:#5a6872;fill-opacity:1"
         id="path4370" />
      <path
         d="m 1120.5782,345.25543 18.54,0 0,-93.6 -18.54,0 0,63.18 c 0,10.44 -7.92,16.74 -17.46,16.74 -10.62,0 -15.84,-7.02 -15.84,-20.34 l 0,-59.58 -18.54,0 0,62.1 c 0,21.96 9.72,33.66 26.28,33.66 11.7,0 19.44,-5.76 23.22,-17.64 l 2.34,0 0,15.48 z"
         style="font-style:normal;font-variant:normal;font-weight:500;font-stretch:condensed;font-family:'IBM Plex Sans Condensed';-inkscape-font-specification:'IBM Plex Sans Condensed,  Medium Condensed';fill:#5a6872;fill-opacity:1"
         id="path4372" />
      <path
         d="m 1203.6285,345.25543 0,-15.3 -16.2,0 0,-63 17.46,0 0,-15.3 -17.46,0 0,-25.56 -16.74,0 0,16.92 c 0,5.94 -1.62,8.64 -7.56,8.64 l -7.2,0 0,15.3 12.96,0 0,59.94 c 0,12.78 5.58,18.36 18.54,18.36 l 16.2,0 z"
         style="font-style:normal;font-variant:normal;font-weight:500;font-stretch:condensed;font-family:'IBM Plex Sans Condensed';-inkscape-font-specification:'IBM Plex Sans Condensed,  Medium Condensed';fill:#5a6872;fill-opacity:1"
         id="path4374" />
      <path
         d="m 1256.4163,347.41543 c 16.74,0 28.08,-7.74 34.74,-19.44 l -10.8,-10.26 c -5.04,9.18 -12.06,14.4 -23.22,14.4 -13.14,0 -21.24,-8.28 -21.24,-23.04 l 0,-5.94 57.24,0 0,-4.68 c 0,-34.02 -14.04,-48.96 -37.8,-48.96 -23.76,0 -38.88,14.94 -38.88,48.96 0,33.84 16.38,48.96 39.96,48.96 z m -1.08,-83.16 c 12.06,0 18.18,7.74 18.18,22.68 l 0,3.78 -37.62,0 0,-3.78 c 0,-14.94 7.02,-22.68 19.44,-22.68 z"
         style="font-style:normal;font-variant:normal;font-weight:500;font-stretch:condensed;font-family:'IBM Plex Sans Condensed';-inkscape-font-specification:'IBM Plex Sans Condensed,  Medium Condensed';fill:#5a6872;fill-opacity:1"
         id="path4376" />
      <path
         d="m 1331.2879,345.25543 0,-58.86 c 0,-10.98 7.2,-15.84 20.34,-15.84 l 7.92,0 0,-18.9 -4.68,0 c -11.16,0 -18.72,6.66 -21.42,18.54 l -2.16,0 0,-18.54 -18.54,0 0,93.6 18.54,0 z"
         style="font-style:normal;font-variant:normal;font-weight:500;font-stretch:condensed;font-family:'IBM Plex Sans Condensed';-inkscape-font-specification:'IBM Plex Sans Condensed,  Medium Condensed';fill:#5a6872;fill-opacity:1"
         id="path4378" />
    </g>
    <g
       style="font-style:normal;font-weight:normal;font-size:625px;line-height:125%;font-family:sans-serif;text-align:center;letter-spacing:0px;word-spacing:0px;text-anchor:middle;fill:#214152;fill-opacity:1;stroke:none;stroke-width:1px;stroke-linecap:butt;stroke-linejoin:miter;stroke-opacity:1"
       id="text4254">
      <path
         d="m 1314.1014,46.250256 0,-41.8750004 -32.5,0 0,-182.4999956 c 0,-68.75 -39.375,-105 -111.875,-105 -49.375,0 -88.125,27.5 -105,61.875 l 28.125,26.25 c 16.25,-30.625 38.125,-47.5 75,-47.5 45.625,0 66.25,21.875 66.25,69.375 l 0,35.625 -58.125,0 c -83.75,0 -122.5,37.499996 -122.5,97.499996 0,61.25 30.625,93.75 93.125,93.75 39.375,0 70.625,-21.25 81.25,-60.0000004 l 6.25,0 0,6.24999998472 c 0,30.00000041528 16.25,46.25000041528 46.25,46.25000041528 l 33.75,0 z m -155.625,-33.75 c -33.75,0 -55.625,-15.0000004 -55.625,-47.5 l 0,-17.5 c 0,-31.25 21.875,-48.749996 71.875,-48.749996 l 59.375,0 0,48.749996 c 0,33.125 -31.875,65 -75.625,65 z"
         style="font-style:normal;font-variant:normal;font-weight:normal;font-stretch:condensed;font-size:625px;font-family:'IBM Plex Sans Condensed';-inkscape-font-specification:'IBM Plex Sans Condensed, Condensed';fill:#214152;fill-opacity:1"
         id="path4381" />
    </g>
    <g
       style="font-style:normal;font-weight:normal;font-size:180px;line-height:125%;font-family:sans-serif;text-align:center;letter-spacing:0px;word-spacing:0px;text-anchor:middle;fill:#000000;fill-opacity:1;stroke:none;stroke-width:1px;stroke-linecap:butt;stroke-linejoin:miter;stroke-opacity:1"
       id="text4258">
      <path
         d="m 146.18534,628.09808 0,-10.05 -7.8,0 0,-43.8 c 0,-16.5 -9.45,-25.2 -26.85,-25.2 -11.850001,0 -21.150001,6.6 -25.200001,14.85 l 6.75,6.3 c 3.9,-7.35 9.150001,-11.4 18.000001,-11.4 10.95,0 15.9,5.25 15.9,16.65 l 0,8.55 -13.95,0 c -20.100001,0 -29.400001,9 -29.400001,23.4 0,14.7 7.35,22.5 22.350001,22.5 9.45,0 16.95,-5.1 19.5,-14.4 l 1.5,0 0,1.5 c 0,7.2 3.9,11.1 11.1,11.1 l 8.1,0 z m -37.35,-8.1 c -8.1,0 -13.350001,-3.6 -13.350001,-11.4 l 0,-4.2 c 0,-7.5 5.250001,-11.7 17.250001,-11.7 l 14.25,0 0,11.7 c 0,7.95 -7.65,15.6 -18.15,15.6 z"
         style="font-style:normal;font-variant:normal;font-weight:normal;font-stretch:condensed;font-size:150px;font-family:'IBM Plex Sans Condensed';-inkscape-font-specification:'IBM Plex Sans Condensed, Condensed';fill:#ffffff;fill-opacity:1"
         id="path4384" />
      <path
         d="m 193.48221,628.09808 11.4,0 0,-12.6 1.5,0 c 3,10.05 9.9,14.4 19.5,14.4 18.45,0 28.2,-15.6 28.2,-40.5 0,-24.9 -9.75,-40.5 -28.2,-40.5 -9.6,0 -16.5,4.35 -19.5,14.4 l -1.5,0 0,-46.2 -11.4,0 0,111 z m 28.95,-8.4 c -9.6,0 -17.55,-6 -17.55,-14.7 l 0,-31.2 c 0,-8.7 7.95,-14.7 17.55,-14.7 12.6,0 19.35,8.4 19.35,22.5 l 0,15.6 c 0,14.1 -6.75,22.5 -19.35,22.5 z"
         style="font-style:normal;font-variant:normal;font-weight:normal;font-stretch:condensed;font-size:150px;font-family:'IBM Plex Sans Condensed';-inkscape-font-specification:'IBM Plex Sans Condensed, Condensed';fill:#ffffff;fill-opacity:1"
         id="path4386" />
      <path
         d="m 329.43143,629.89808 c 13.8,0 23.1,-7.05 27.75,-17.7 l -8.4,-5.85 c -3.6,8.85 -9.45,13.35 -19.35,13.35 -12.6,0 -18.45,-7.35 -18.45,-22.5 l 0,-15.6 c 0,-15.15 5.85,-22.5 18.45,-22.5 9.6,0 15,4.5 17.55,12.45 l 9.45,-4.8 c -4.05,-10.35 -12.45,-17.85 -27,-17.85 -19.2,0 -30.75,11.7 -30.75,40.5 0,28.8 11.55,40.5 30.75,40.5 z"
         style="font-style:normal;font-variant:normal;font-weight:normal;font-stretch:condensed;font-size:150px;font-family:'IBM Plex Sans Condensed';-inkscape-font-specification:'IBM Plex Sans Condensed, Condensed';fill:#ffffff;fill-opacity:1"
         id="path4388" />
      <path
         d="m 448.23378,628.09808 11.4,0 0,-111 -11.4,0 0,46.2 -1.5,0 c -3,-10.05 -9.9,-14.4 -19.5,-14.4 -18.45,0 -28.2,15.6 -28.2,40.5 0,24.9 9.75,40.5 28.2,40.5 9.6,0 16.5,-4.35 19.5,-14.4 l 1.5,0 0,12.6 z m -17.55,-8.4 c -12.6,0 -19.35,-8.4 -19.35,-22.5 l 0,-15.6 c 0,-14.1 6.75,-22.5 19.35,-22.5 9.6,0 17.55,6 17.55,14.7 l 0,31.2 c 0,8.7 -7.95,14.7 -17.55,14.7 z"
         style="font-style:normal;font-variant:normal;font-weight:normal;font-stretch:condensed;font-size:150px;font-family:'IBM Plex Sans Condensed';-inkscape-font-specification:'IBM Plex Sans Condensed, Condensed';fill:#ffffff;fill-opacity:1"
         id="path4390" />
      <path
         d="m 540.683,629.89808 c 14.4,0 23.55,-7.35 28.35,-17.85 l -7.8,-5.7 c -3.75,8.85 -10.2,13.5 -20.55,13.5 -12.15,0 -19.5,-7.5 -19.5,-22.65 l 0,-4.95 49.65,0 0,-2.85 c 0,-28.8 -12,-40.5 -30.15,-40.5 -18.15,0 -31.65,11.7 -31.65,40.5 0,28.8 13.5,40.5 31.65,40.5 z m 0,-71.4 c 11.85,0 18,7.95 18,23.1 l 0,1.95 -37.5,0 0,-1.95 c 0,-15.15 7.2,-23.1 19.5,-23.1 z"
         style="font-style:normal;font-variant:normal;font-weight:normal;font-stretch:condensed;font-size:150px;font-family:'IBM Plex Sans Condensed';-inkscape-font-specification:'IBM Plex Sans Condensed, Condensed';fill:#ffffff;fill-opacity:1"
         id="path4392" />
      <path
         d="m 624.08768,628.09808 11.4,0 0,-67.35 14.85,0 0,-10.05 -14.85,0 0,-23.55 14.85,0 0,-10.05 -11.55,0 c -10.2,0 -14.7,4.5 -14.7,14.7 l 0,18.9 -11.25,0 0,10.05 11.25,0 0,67.35 z"
         style="font-style:normal;font-variant:normal;font-weight:normal;font-stretch:condensed;font-size:150px;font-family:'IBM Plex Sans Condensed';-inkscape-font-specification:'IBM Plex Sans Condensed, Condensed';fill:#ffffff;fill-opacity:1"
         id="path4394" />
      <path
         d="m 755.60956,636.79808 c 0,-13.2 -7.05,-20.4 -24.45,-20.4 l -16.95,0 c -6.3,0 -9,-2.1 -9,-6 0,-3.6 3,-7.65 8.55,-8.7 2.25,0.45 4.8,0.75 7.35,0.75 16.05,0 26.55,-9.15 26.55,-26.7 0,-9.45 -3,-16.35 -8.25,-20.85 l 0,-4.2 13.35,0 0,-10.05 -10.35,0 c -5.85,0 -8.25,2.4 -8.25,8.25 l 0,2.7 c -3.75,-1.65 -8.1,-2.55 -13.05,-2.55 -16.05,0 -26.55,9.15 -26.55,26.7 0,11.85 4.8,19.8 12.75,23.85 l 0,1.65 c -8.25,0.9 -11.85,6 -11.85,12.45 0,4.8 2.4,8.25 6.45,10.5 l 0,2.1 c -6.6,1.2 -11.25,6.15 -11.25,14.4 0,12.45 8.7,19.2 30.9,19.2 23.1,0 34.05,-6.75 34.05,-23.1 z m -10.65,0.75 c 0,9 -6.45,12.9 -18.75,12.9 l -9.9,0 c -10.5,0 -15.15,-4.8 -15.15,-12.6 0,-5.25 1.8,-8.4 6.3,-10.65 l 23.55,0 c 10.05,0 13.95,3.6 13.95,10.35 z m -23.85,-44.4 c -9.3,0 -14.85,-4.8 -14.85,-14.7 l 0,-5.55 c 0,-9.9 5.55,-14.7 14.85,-14.7 9.3,0 14.85,4.8 14.85,14.7 l 0,5.55 c 0,9.9 -5.55,14.7 -14.85,14.7 z"
         style="font-style:normal;font-variant:normal;font-weight:normal;font-stretch:condensed;font-size:150px;font-family:'IBM Plex Sans Condensed';-inkscape-font-specification:'IBM Plex Sans Condensed, Condensed';fill:#ffffff;fill-opacity:1"
         id="path4396" />
      <path
         d="m 799.92753,628.09808 11.4,0 0,-52.8 c 0,-10.05 7.35,-16.05 16.5,-16.05 10.5,0 15.6,6.9 15.6,19.2 l 0,49.65 11.4,0 0,-50.4 c 0,-19.5 -8.4,-28.8 -22.2,-28.8 -10.8,0 -16.8,4.95 -19.8,14.4 l -1.5,0 0,-46.2 -11.4,0 0,111 z"
         style="font-style:normal;font-variant:normal;font-weight:normal;font-stretch:condensed;font-size:150px;font-family:'IBM Plex Sans Condensed';-inkscape-font-specification:'IBM Plex Sans Condensed, Condensed';fill:#ffffff;fill-opacity:1"
         id="path4398" />
      <path
         d="m 914.6119,531.94808 c 4.95,0 7.05,-2.25 7.05,-6.15 l 0,-2.4 c 0,-3.9 -2.1,-6.15 -7.05,-6.15 -4.95,0 -7.05,2.25 -7.05,6.15 l 0,2.4 c 0,3.9 2.1,6.15 7.05,6.15 z m -5.7,96.15 11.4,0 0,-77.4 -11.4,0 0,77.4 z"
         style="font-style:normal;font-variant:normal;font-weight:normal;font-stretch:condensed;font-size:150px;font-family:'IBM Plex Sans Condensed';-inkscape-font-specification:'IBM Plex Sans Condensed, Condensed';fill:#ffffff;fill-opacity:1"
         id="path4400" />
      <path
         d="m 975.12284,648.04808 -11.4,0 0,10.05 8.1,0 c 10.2,0 14.7,-4.5 14.7,-14.7 l 0,-92.7 -11.4,0 0,97.35 z m 5.7,-116.1 c 4.95,0 7.05,-2.25 7.05,-6.15 l 0,-2.4 c 0,-3.9 -2.1,-6.15 -7.05,-6.15 -4.95,0 -7.05,2.25 -7.05,6.15 l 0,2.4 c 0,3.9 2.1,6.15 7.05,6.15 z"
         style="font-style:normal;font-variant:normal;font-weight:normal;font-stretch:condensed;font-size:150px;font-family:'IBM Plex Sans Condensed';-inkscape-font-specification:'IBM Plex Sans Condensed, Condensed';fill:#ffffff;fill-opacity:1"
         id="path4402" />
      <path
         d="m 1041.3338,628.09808 11.4,0 0,-27.9 10.2,-12 22.65,39.9 13.65,0 -27.9,-46.65 25.65,-30.75 -13.8,0 -19.35,24 -10.8,14.55 -1.2,0 0.9,-15.15 0,-57 -11.4,0 0,111 z"
         style="font-style:normal;font-variant:normal;font-weight:normal;font-stretch:condensed;font-size:150px;font-family:'IBM Plex Sans Condensed';-inkscape-font-specification:'IBM Plex Sans Condensed, Condensed';fill:#ffffff;fill-opacity:1"
         id="path4404" />
      <path
         d="m 1165.9017,628.09808 0,-10.05 -9.75,0 0,-100.95 -11.4,0 0,99.3 c 0,8.1 3.6,11.7 11.7,11.7 l 9.45,0 z"
         style="font-style:normal;font-variant:normal;font-weight:normal;font-stretch:condensed;font-size:150px;font-family:'IBM Plex Sans Condensed';-inkscape-font-specification:'IBM Plex Sans Condensed, Condensed';fill:#ffffff;fill-opacity:1"
         id="path4406" />
      <path
         d="m 1224.9994,628.09808 0,-52.8 c 0,-10.05 7.05,-16.05 15.9,-16.05 10.05,0 15,6.9 15,19.2 l 0,49.65 11.4,0 0,-52.8 c 0,-10.05 7.05,-16.05 15.9,-16.05 10.05,0 15,6.9 15,19.2 l 0,49.65 11.4,0 0,-50.4 c 0,-19.5 -8.7,-28.8 -21.9,-28.8 -11.1,0 -17.85,4.95 -21,14.4 l -1.5,0 c -3.3,-9.75 -10.35,-14.4 -19.8,-14.4 -10.5,0 -15.9,4.95 -18.9,14.4 l -1.5,0 0,-12.6 -11.4,0 0,77.4 11.4,0 z"
         style="font-style:normal;font-variant:normal;font-weight:normal;font-stretch:condensed;font-size:150px;font-family:'IBM Plex Sans Condensed';-inkscape-font-specification:'IBM Plex Sans Condensed, Condensed';fill:#ffffff;fill-opacity:1"
         id="path4408" />
      <path
         d="m 69.530652,815.59808 0,-52.8 c 0,-10.05 7.35,-16.05 16.5,-16.05 10.5,0 15.599998,6.9 15.599998,19.2 l 0,49.65 11.4,0 0,-50.4 c 0,-19.5 -8.4,-28.8 -22.199998,-28.8 -10.8,0 -16.8,4.95 -19.8,14.4 l -1.5,0 0,-12.6 -11.4,0 0,77.4 11.4,0 z"
         style="font-style:normal;font-variant:normal;font-weight:normal;font-stretch:condensed;font-size:150px;font-family:'IBM Plex Sans Condensed';-inkscape-font-specification:'IBM Plex Sans Condensed, Condensed';fill:#ffffff;fill-opacity:1"
         id="path4410" />
      <path
         d="m 193.51503,817.39808 c 18.15,0 31.65,-11.7 31.65,-40.5 0,-28.8 -13.5,-40.5 -31.65,-40.5 -18.15,0 -31.65,11.7 -31.65,40.5 0,28.8 13.5,40.5 31.65,40.5 z m 0,-10.2 c -12.3,0 -19.35,-7.35 -19.35,-22.5 l 0,-15.6 c 0,-15.15 7.05,-22.5 19.35,-22.5 12.3,0 19.35,7.35 19.35,22.5 l 0,15.6 c 0,15.15 -7.05,22.5 -19.35,22.5 z"
         style="font-style:normal;font-variant:normal;font-weight:normal;font-stretch:condensed;font-size:150px;font-family:'IBM Plex Sans Condensed';-inkscape-font-specification:'IBM Plex Sans Condensed, Condensed';fill:#ffffff;fill-opacity:1"
         id="path4412" />
      <path
         d="m 274.63456,845.59808 11.4,0 0,-42.6 1.5,0 c 3,10.05 9.9,14.4 19.5,14.4 18.45,0 28.2,-15.6 28.2,-40.5 0,-24.9 -9.75,-40.5 -28.2,-40.5 -9.6,0 -16.5,4.35 -19.5,14.4 l -1.5,0 0,-12.6 -11.4,0 0,107.4 z m 28.95,-38.4 c -9.6,0 -17.55,-6 -17.55,-14.7 l 0,-31.2 c 0,-8.7 7.95,-14.7 17.55,-14.7 12.6,0 19.35,8.4 19.35,22.5 l 0,15.6 c 0,14.1 -6.75,22.5 -19.35,22.5 z"
         style="font-style:normal;font-variant:normal;font-weight:normal;font-stretch:condensed;font-size:150px;font-family:'IBM Plex Sans Condensed';-inkscape-font-specification:'IBM Plex Sans Condensed, Condensed';fill:#ffffff;fill-opacity:1"
         id="path4414" />
      <path
         d="m 429.48378,845.59808 11.4,0 0,-107.4 -11.4,0 0,12.6 -1.5,0 c -3,-10.05 -9.9,-14.4 -19.5,-14.4 -18.45,0 -28.2,15.6 -28.2,40.5 0,24.9 9.75,40.5 28.2,40.5 9.6,0 16.5,-4.35 19.5,-14.4 l 1.5,0 0,42.6 z m -17.55,-38.4 c -12.6,0 -19.35,-8.4 -19.35,-22.5 l 0,-15.6 c 0,-14.1 6.75,-22.5 19.35,-22.5 9.6,0 17.55,6 17.55,14.7 l 0,31.2 c 0,8.7 -7.95,14.7 -17.55,14.7 z"
         style="font-style:normal;font-variant:normal;font-weight:normal;font-stretch:condensed;font-size:150px;font-family:'IBM Plex Sans Condensed';-inkscape-font-specification:'IBM Plex Sans Condensed, Condensed';fill:#ffffff;fill-opacity:1"
         id="path4416" />
      <path
         d="m 506.933,815.59808 0,-51.45 c 0,-9.45 6.45,-14.4 17.25,-14.4 l 7.5,0 0,-11.55 -4.2,0 c -10.05,0 -16.5,5.55 -19.05,14.4 l -1.5,0 0,-14.4 -11.4,0 0,77.4 11.4,0 z"
         style="font-style:normal;font-variant:normal;font-weight:normal;font-stretch:condensed;font-size:150px;font-family:'IBM Plex Sans Condensed';-inkscape-font-specification:'IBM Plex Sans Condensed, Condensed';fill:#ffffff;fill-opacity:1"
         id="path4418" />
      <path
         d="m 598.72128,817.39808 c 16.8,0 25.8,-9 25.8,-24 0,-11.85 -6,-18.75 -21.75,-21.6 l -5.85,-1.05 c -8.7,-1.5 -12.45,-4.65 -12.45,-12.15 0,-8.1 4.5,-12.45 13.65,-12.45 8.7,0 14.25,4.35 17.55,9.15 l 7.35,-6.75 c -5.7,-7.8 -13.35,-12 -24.9,-12 -14.55,0 -24.75,6.75 -24.75,22.5 0,13.35 7.35,19.35 22.2,22.05 l 5.85,1.05 c 9.15,1.65 12,5.85 12,12.6 0,8.4 -5.7,13.05 -14.7,13.05 -8.7,0 -14.7,-4.05 -20.1,-11.7 l -7.95,6.6 c 6.3,9.15 15.3,14.7 28.05,14.7 z"
         style="font-style:normal;font-variant:normal;font-weight:normal;font-stretch:condensed;font-size:150px;font-family:'IBM Plex Sans Condensed';-inkscape-font-specification:'IBM Plex Sans Condensed, Condensed';fill:#ffffff;fill-opacity:1"
         id="path4420" />
      <path
         d="m 704.67284,815.59808 0,-10.05 -14.25,0 0,-57.3 15,0 0,-10.05 -15,0 0,-21.3 -10.35,0 0,14.4 c 0,4.5 -1.2,6.9 -5.7,6.9 l -6.75,0 0,10.05 11.4,0 0,55.65 c 0,8.1 3.6,11.7 11.7,11.7 l 13.95,0 z"
         style="font-style:normal;font-variant:normal;font-weight:normal;font-stretch:condensed;font-size:150px;font-family:'IBM Plex Sans Condensed';-inkscape-font-specification:'IBM Plex Sans Condensed, Condensed';fill:#ffffff;fill-opacity:1"
         id="path4422" />
      <path
         d="m 797.56034,815.59808 11.4,0 0,-77.4 -11.4,0 0,52.8 c 0,10.05 -7.35,16.05 -16.5,16.05 -10.5,0 -15.6,-6.9 -15.6,-19.2 l 0,-49.65 -11.4,0 0,50.4 c 0,19.5 8.4,28.8 22.2,28.8 10.8,0 16.8,-4.95 19.8,-14.4 l 1.5,0 0,12.6 z"
         style="font-style:normal;font-variant:normal;font-weight:normal;font-stretch:condensed;font-size:150px;font-family:'IBM Plex Sans Condensed';-inkscape-font-specification:'IBM Plex Sans Condensed, Condensed';fill:#ffffff;fill-opacity:1"
         id="path4424" />
      <path
         d="m 892.59471,815.59808 24.3,-77.4 -11.1,0 -11.85,39 -7.2,28.35 -1.5,0 -7.2,-28.35 -11.85,-39 -11.4,0 24.3,77.4 13.5,0 z"
         style="font-style:normal;font-variant:normal;font-weight:normal;font-stretch:condensed;font-size:150px;font-family:'IBM Plex Sans Condensed';-inkscape-font-specification:'IBM Plex Sans Condensed, Condensed';fill:#ffffff;fill-opacity:1"
         id="path4426" />
      <path
         d="m 973.77518,815.59808 14.4,0 9.45,-37.5 5.55002,-28.35 1.5,0 5.25,28.35 9.45,37.5 14.4,0 18.6,-77.4 -10.8,0 -7.5,33.6 -6.6,33.75 -1.5,0 -7.65,-33.75 -7.8,-33.6 -13.20002,0 -7.8,33.6 -7.65,33.75 -1.5,0 -6.6,-33.75 -7.5,-33.6 -11.1,0 18.6,77.4 z"
         style="font-style:normal;font-variant:normal;font-weight:normal;font-stretch:condensed;font-size:150px;font-family:'IBM Plex Sans Condensed';-inkscape-font-specification:'IBM Plex Sans Condensed, Condensed';fill:#ffffff;fill-opacity:1"
         id="path4428" />
      <path
         d="m 1102.9486,815.59808 18.75,-30.3 1.5,0 17.85,30.3 12.9,0 -25.05,-39.9 24.3,-37.5 -12.45,0 -17.55,28.2 -1.5,0 -17.25,-28.2 -12.9,0 24.45,37.95 -25.5,39.45 12.45,0 z"
         style="font-style:normal;font-variant:normal;font-weight:normal;font-stretch:condensed;font-size:150px;font-family:'IBM Plex Sans Condensed';-inkscape-font-specification:'IBM Plex Sans Condensed, Condensed';fill:#ffffff;fill-opacity:1"
         id="path4430" />
      <path
         d="m 1229.9799,777.19808 -7.2,28.35 -1.5,0 -7.2,-28.35 -11.85,-39 -11.4,0 25.65,81.6 -4.5,15.75 -11.85,0 0,10.05 8.4,0 c 8.7,0 11.25,-2.1 13.8,-10.2 l 30.6,-97.2 -11.1,0 -11.85,39 z"
         style="font-style:normal;font-variant:normal;font-weight:normal;font-stretch:condensed;font-size:150px;font-family:'IBM Plex Sans Condensed';-inkscape-font-specification:'IBM Plex Sans Condensed, Condensed';fill:#ffffff;fill-opacity:1"
         id="path4432" />
      <path
         d="m 1346.6892,815.59808 0,-10.05 -40.65,0 39.45,-58.65 0,-8.7 -51.75,0 0,10.05 38.25,0 -39.45,58.65 0,8.7 54.15,0 z"
         style="font-style:normal;font-variant:normal;font-weight:normal;font-stretch:condensed;font-size:150px;font-family:'IBM Plex Sans Condensed';-inkscape-font-specification:'IBM Plex Sans Condensed, Condensed';fill:#ffffff;fill-opacity:1"
         id="path4434" />
    </g>
    <g
       style="font-style:normal;font-weight:normal;font-size:150px;line-height:125%;font-family:sans-serif;text-align:center;letter-spacing:0px;word-spacing:0px;text-anchor:middle;fill:#000000;fill-opacity:1;stroke:none;stroke-width:1px;stroke-linecap:butt;stroke-linejoin:miter;stroke-opacity:1"
       id="text4264">
      <path
         d="m 260.2179,1013.756 c 22.65,0 32.7,-15.45001 32.7,-54.15001 0,-38.7 -10.05,-54.15 -32.7,-54.15 -22.65,0 -32.7,15.45 -32.7,54.15 0,38.7 10.05,54.15001 32.7,54.15001 z m 0,-10.35 c -14.4,0 -20.1,-10.95001 -20.1,-29.40001 l 0,-28.8 c 0,-18.45 5.7,-29.4 20.1,-29.4 14.4,0 20.1,10.95 20.1,29.4 l 0,28.8 c 0,18.45 -5.7,29.40001 -20.1,29.40001 z"
         style="font-style:normal;font-variant:normal;font-weight:normal;font-stretch:condensed;font-size:150px;font-family:'IBM Plex Sans Condensed';-inkscape-font-specification:'IBM Plex Sans Condensed, Condensed';fill:#fff1ff;fill-opacity:1"
         id="path4437" />
      <path
         d="m 406.46086,1011.956 0,-10.5 -24,0 0,-94.20001 -13.2,0 -29.7,19.5 5.1,8.25 25.8,-16.8 0,83.25001 -26.1,0 0,10.5 62.1,0 z"
         style="font-style:normal;font-variant:normal;font-weight:normal;font-stretch:condensed;font-size:150px;font-family:'IBM Plex Sans Condensed';-inkscape-font-specification:'IBM Plex Sans Condensed, Condensed';fill:#fff1ff;fill-opacity:1"
         id="path4439" />
      <path
         d="m 517.45383,1001.456 -49.35,0 26.1,-27.45001 c 15.6,-16.35 19.8,-25.05 19.8,-38.7 0,-19.5 -9.15,-29.85 -28.65,-29.85 -16.2,0 -26.7,9.75 -30.6,22.5 l 10.5,4.2 c 2.55,-10.05 9.15,-16.05 19.8,-16.05 11.1,0 16.35,6 16.35,18.75 l 0,3.9 c 0,8.7 -4.35,17.4 -14.4,27.75 l -31.8,33 0,12.45001 62.25,0 0,-10.5 z"
         style="font-style:normal;font-variant:normal;font-weight:normal;font-stretch:condensed;font-size:150px;font-family:'IBM Plex Sans Condensed';-inkscape-font-specification:'IBM Plex Sans Condensed, Condensed';fill:#fff1ff;fill-opacity:1"
         id="path4441" />
      <path
         d="m 583.1468,951.80599 0,10.5 11.1,0 c 12.9,0 19.8,6.3 19.8,19.2 l 0,2.4 c 0,12.9 -6.9,19.20001 -19.8,19.20001 -11.4,0 -16.8,-5.40001 -21.6,-13.50001 l -9,6.75 c 5.85,8.85001 14.55,17.40001 30.9,17.40001 20.55,0 32.1,-11.85 32.1,-30.45001 0,-16.35 -9.15,-24.6 -20.55,-25.8 l 0,-1.5 c 10.35,-2.1 18.75,-10.2 18.75,-24.3 0,-18.15 -11.4,-26.25 -28.5,-26.25 -15.15,0 -23.85,8.25 -28.65,16.8 l 8.7,6.75 c 3.9,-8.25 9.6,-12.9 19.2,-12.9 10.2,0 16.65,4.65 16.65,16.35 l 0,2.25 c 0,10.5 -6.45,17.1 -18.9,17.1 l -10.2,0 z"
         style="font-style:normal;font-variant:normal;font-weight:normal;font-stretch:condensed;font-size:150px;font-family:'IBM Plex Sans Condensed';-inkscape-font-specification:'IBM Plex Sans Condensed, Condensed';fill:#fff1ff;fill-opacity:1"
         id="path4443" />
      <path
         d="m 732.53977,1011.956 0,-20.55001 13.5,0 0,-10.05 -13.5,0 0,-74.1 -17.55,0 -39,73.5 0,10.65 45.15,0 0,20.55001 11.4,0 z m -12.9,-95.10001 1.5,0 0,64.5 -34.2,0 32.7,-64.5 z"
         style="font-style:normal;font-variant:normal;font-weight:normal;font-stretch:condensed;font-size:150px;font-family:'IBM Plex Sans Condensed';-inkscape-font-specification:'IBM Plex Sans Condensed, Condensed';fill:#fff1ff;fill-opacity:1"
         id="path4445" />
      <path
         d="m 851.18274,907.25599 -51,0 -3.45,57.45 10.2,1.35 c 3.6,-4.95 7.95,-8.85 16.95,-8.85 13.05,0 19.2,7.35 19.2,21.15 l 0,3.6 c 0,13.8 -6.15,21.15001 -19.2,21.15001 -9.75,0 -16.35,-4.95001 -21.15,-13.80001 l -9,6.75 c 5.25,9.90001 16.2,17.70001 30.15,17.70001 20.1,0 31.8,-12.15 31.8,-34.50001 0,-21.6 -11.25,-32.4 -27.75,-32.4 -10.5,0 -16.65,5.25 -19.35,12.45 l -1.5,0 2.7,-41.55 41.4,0 0,-10.5 z"
         style="font-style:normal;font-variant:normal;font-weight:normal;font-stretch:condensed;font-size:150px;font-family:'IBM Plex Sans Condensed';-inkscape-font-specification:'IBM Plex Sans Condensed, Condensed';fill:#fff1ff;fill-opacity:1"
         id="path4447" />
      <path
         d="m 936.97571,1013.756 c 20.85,0 31.95,-12.9 31.95,-34.50001 0,-21.6 -10.8,-32.4 -27.75,-32.4 -11.85,0 -19.05,6.45 -22.2,14.85 l -1.5,0 c 5.25,-24.9 16.5,-38.1 36.9,-54.45 l -15.45,0 c -15.45,10.95 -33.9,35.25 -33.9,66.75 0,25.8 11.1,39.75001 31.95,39.75001 z m 0,-10.5 c -12.45,0 -19.35,-7.05001 -19.35,-21.45001 l 0,-3 c 0,-14.4 6.9,-21.45 19.35,-21.45 12.45,0 19.35,7.05 19.35,21.45 l 0,3 c 0,14.4 -6.9,21.45001 -19.35,21.45001 z"
         style="font-style:normal;font-variant:normal;font-weight:normal;font-stretch:condensed;font-size:150px;font-family:'IBM Plex Sans Condensed';-inkscape-font-specification:'IBM Plex Sans Condensed, Condensed';fill:#fff1ff;fill-opacity:1"
         id="path4449" />
      <path
         d="m 1045.5687,1011.956 35.1,-94.20001 0,-10.5 -62.25,0 0,29.85 10.65,0 0,-19.5 39.45,0 -35.7,94.35001 12.75,0 z"
         style="font-style:normal;font-variant:normal;font-weight:normal;font-stretch:condensed;font-size:150px;font-family:'IBM Plex Sans Condensed';-inkscape-font-specification:'IBM Plex Sans Condensed, Condensed';fill:#fff1ff;fill-opacity:1"
         id="path4451" />
      <path
         d="m 1162.5616,1013.756 c 21.45,0 32.85,-11.7 32.85,-30.30001 0,-15.9 -8.55,-24.15 -19.95,-25.8 l 0,-1.5 c 9.9,-2.1 17.1,-10.8 17.1,-24.6 0,-17.4 -11.1,-26.1 -30,-26.1 -18.9,0 -30,8.7 -30,26.1 0,13.8 7.2,22.5 17.1,24.6 l 0,1.5 c -11.4,1.65 -19.95,9.9 -19.95,25.8 0,18.60001 11.4,30.30001 32.85,30.30001 z m 0,-10.5 c -12.75,0 -20.25,-6.60001 -20.25,-18.75001 l 0,-3.9 c 0,-12.15 7.5,-18.75 20.25,-18.75 12.75,0 20.25,6.6 20.25,18.75 l 0,3.9 c 0,12.15 -7.5,18.75001 -20.25,18.75001 z m 0,-51.45001 c -11.55,0 -17.7,-5.55 -17.7,-16.35 l 0,-3.15 c 0,-10.8 6.15,-16.35 17.7,-16.35 11.55,0 17.7,5.55 17.7,16.35 l 0,3.15 c 0,10.8 -6.15,16.35 -17.7,16.35 z"
         style="font-style:normal;font-variant:normal;font-weight:normal;font-stretch:condensed;font-size:150px;font-family:'IBM Plex Sans Condensed';-inkscape-font-specification:'IBM Plex Sans Condensed, Condensed';fill:#fff1ff;fill-opacity:1"
         id="path4453" />
      <path
         d="m 1307.3046,945.20599 c 0,-25.8 -11.1,-39.75 -31.95,-39.75 -20.85,0 -31.95,12.9 -31.95,34.5 0,21.6 10.8,32.4 27.75,32.4 11.85,0 19.05,-6.45 22.2,-14.85 l 1.5,0 c -5.25,24.9 -16.5,38.1 -36.9,54.45001 l 15.45,0 c 15.45,-10.95 33.9,-35.25001 33.9,-66.75001 z m -31.95,16.65 c -12.45,0 -19.35,-7.05 -19.35,-21.45 l 0,-3 c 0,-14.4 6.9,-21.45 19.35,-21.45 12.45,0 19.35,7.05 19.35,21.45 l 0,3 c 0,14.4 -6.9,21.45 -19.35,21.45 z"
         style="font-style:normal;font-variant:normal;font-weight:normal;font-stretch:condensed;font-size:150px;font-family:'IBM Plex Sans Condensed';-inkscape-font-specification:'IBM Plex Sans Condensed, Condensed';fill:#fff1ff;fill-opacity:1"
         id="path4455" />
    </g>
  </g>
</svg>
