<?xml version="1.0" encoding="UTF-8" standalone="no"?>
<!-- Created with Inkscape (http://www.inkscape.org/) -->

<svg
   xmlns:dc="http://purl.org/dc/elements/1.1/"
   xmlns:cc="http://creativecommons.org/ns#"
   xmlns:rdf="http://www.w3.org/1999/02/22-rdf-syntax-ns#"
   xmlns:svg="http://www.w3.org/2000/svg"
   xmlns="http://www.w3.org/2000/svg"
   xmlns:sodipodi="http://sodipodi.sourceforge.net/DTD/sodipodi-0.dtd"
   xmlns:inkscape="http://www.inkscape.org/namespaces/inkscape"
   width="396mm"
   height="468mm"
   viewBox="0 0 1403.1496 1658.2677"
   id="svg2"
   version="1.1"
   inkscape:version="0.91 r13725"
   sodipodi:docname="IBM Plex Serif sample (final).svg">
  <defs
     id="defs4" />
  <sodipodi:namedview
     id="base"
     pagecolor="#ffffff"
     bordercolor="#666666"
     borderopacity="1.0"
     inkscape:pageopacity="0.0"
     inkscape:pageshadow="2"
     inkscape:zoom="0.24748737"
     inkscape:cx="-391.56632"
     inkscape:cy="827.60792"
     inkscape:document-units="px"
     inkscape:current-layer="layer1"
     showgrid="false"
     inkscape:window-width="1366"
     inkscape:window-height="709"
     inkscape:window-x="0"
     inkscape:window-y="0"
     inkscape:window-maximized="1"
     inkscape:showpageshadow="false" />
  <metadata
     id="metadata7">
    <rdf:RDF>
      <cc:Work
         rdf:about="">
        <dc:format>image/svg+xml</dc:format>
        <dc:type
           rdf:resource="http://purl.org/dc/dcmitype/StillImage" />
        <dc:title />
      </cc:Work>
    </rdf:RDF>
  </metadata>
  <g
     inkscape:label="Layer 1"
     inkscape:groupmode="layer"
     id="layer1"
     transform="translate(0,605.90551)">
    <g
       style="font-style:normal;font-weight:normal;font-size:180px;line-height:125%;font-family:sans-serif;text-align:center;letter-spacing:0px;word-spacing:0px;text-anchor:middle;fill:#214152;fill-opacity:1;stroke:none;stroke-width:1px;stroke-linecap:butt;stroke-linejoin:miter;stroke-opacity:1"
       id="text3336">
      <path
         d="m 45.384375,-422.46051 44.28,0 0,-8.64 -13.68,0 0,-108.36 13.68,0 0,-8.64 -44.28,0 0,8.64 13.68,0 0,108.36 -13.68,0 0,8.64 z"
         style="font-style:normal;font-variant:normal;font-weight:normal;font-stretch:normal;font-family:'IBM Plex Serif';-inkscape-font-specification:'IBM Plex Serif'"
         id="path4194" />
      <path
         d="m 109.36875,-422.46051 67.5,0 c 19.44,0 33.84,-13.68 33.84,-34.92 0,-19.98 -16.74,-29.52 -29.34,-30.24 l 0,-0.72 c 12.24,-1.98 24.48,-12.24 24.48,-30.06 0,-17.64 -13.32,-29.7 -34.74,-29.7 l -61.74,0 0,8.64 13.68,0 0,108.36 -13.68,0 0,8.64 z m 30.6,-60.12 30.6,0 c 13.86,0 22.32,8.82 22.32,21.42 l 0,7.92 c 0,12.6 -8.46,21.42 -22.32,21.42 l -30.6,0 0,-50.76 z m 0,-56.16 27.72,0 c 12.6,0 20.34,8.1 20.34,19.62 l 0,7.56 c 0,11.52 -7.74,19.62 -20.34,19.62 l -27.72,0 0,-46.8 z"
         style="font-style:normal;font-variant:normal;font-weight:normal;font-stretch:normal;font-family:'IBM Plex Serif';-inkscape-font-specification:'IBM Plex Serif'"
         id="path4196" />
      <path
         d="m 232.76719,-422.46051 37.98,0 0,-8.64 -13.68,0 0,-97.56 0.72,0 9.72,21.24 31.5,65.7 35.64,-70.56 7.38,-16.38 0.72,0 0,97.56 -13.68,0 0,8.64 44.28,0 0,-8.64 -13.68,0 0,-108.36 13.68,0 0,-8.64 -31.14,0 -38.7,77.94 -0.72,0 -36.72,-77.94 -33.3,0 0,8.64 13.68,0 0,108.36 -13.68,0 0,8.64 z"
         style="font-style:normal;font-variant:normal;font-weight:normal;font-stretch:normal;font-family:'IBM Plex Serif';-inkscape-font-specification:'IBM Plex Serif'"
         id="path4198" />
      <path
         d="m 434.91562,-422.46051 47.88,0 0,-8.64 -17.28,0 0,-48.78 29.16,0 c 23.22,0 36.72,-12.6 36.72,-34.56 0,-21.96 -12.96,-33.66 -36.36,-33.66 l -60.12,0 0,8.64 13.68,0 0,108.36 -13.68,0 0,8.64 z m 30.6,-116.28 28.26,0 c 12.60001,0 19.8,8.82 19.8,20.34 l 0,8.82 c 0,11.52 -7.19999,20.34 -19.8,20.34 l -28.26,0 0,-49.5 z"
         style="font-style:normal;font-variant:normal;font-weight:normal;font-stretch:normal;font-family:'IBM Plex Serif';-inkscape-font-specification:'IBM Plex Serif'"
         id="path4200" />
      <path
         d="m 546.27656,-422.46051 43.02,0 0,-8.64 -13.5,0 0,-129.96 -29.52,5.58 0,6.48 13.5,2.52 0,115.38 -13.5,0 0,8.64 z"
         style="font-style:normal;font-variant:normal;font-weight:normal;font-stretch:normal;font-family:'IBM Plex Serif';-inkscape-font-specification:'IBM Plex Serif'"
         id="path4202" />
      <path
         d="m 647.00344,-420.30051 c 20.16,0 32.58,-11.88 37.26,-24.66 l -6.3,-3.96 c -5.04,9.72 -13.5,16.38 -28.44,16.38 -16.92,0 -28.08,-12.42 -28.08,-32.22 l 0,-4.5 64.8,0 0,-4.32 c 0,-25.56 -15.12,-43.92 -40.14,-43.92 -24.3,0 -42.48,19.8 -42.48,48.6 0,28.98 15.84,48.6 43.38,48.6 z m -25.56,-60.12 c 0,-16.2 8.46,-28.08 24.66,-28.08 16.38,0 23.22,12.42 23.22,28.62 l 0,1.98 -47.88,0 0,-2.52 z"
         style="font-style:normal;font-variant:normal;font-weight:normal;font-stretch:normal;font-family:'IBM Plex Serif';-inkscape-font-specification:'IBM Plex Serif'"
         id="path4204" />
      <path
         d="m 698.13469,-422.46051 33.66,0 0,-8.64 -11.16,0 20.16,-29.16 0.72,0 19.62,29.16 -10.44,0 0,8.64 39.42,0 0,-8.64 -9.36,0 -27.9,-39.6 25.92,-36 10.44,0 0,-8.64 -33.48,0 0,8.64 11.16,0 -18.9,28.62 -0.72,0 -19.8,-28.62 10.44,0 0,-8.64 -39.24,0 0,8.64 9.36,0 27.9,39.06 -27.36,36.54 -10.44,0 0,8.64 z"
         style="font-style:normal;font-variant:normal;font-weight:normal;font-stretch:normal;font-family:'IBM Plex Serif';-inkscape-font-specification:'IBM Plex Serif'"
         id="path4206" />
      <path
         d="m 891.75844,-420.30051 c 26.82,0 42.12,-16.02 42.12,-37.98 0,-19.08 -13.14,-30.24 -34.92,-35.82 l -9.18,-2.34 c -16.56,-4.32 -23.58,-11.16 -23.58,-23.4 0,-12.06 8.28,-20.34 25.02,-20.34 20.88,0 27.36,7.38 27.36,19.08 l 0,7.92 13.86,0 0,-34.92 -13.86,0 0,9.36 -1.08,0 c -3.78,-7.38 -12.78,-11.52 -26.28,-11.52 -24.12,0 -40.68,13.14 -40.68,33.48 0,20.7 13.68,31.32 36.18,37.08 l 9.9,2.52 c 15.3,3.96 21.78,10.8 21.78,22.86 0,14.58 -8.46,23.94 -29.52,23.94 -19.8,0 -26.82,-9 -26.82,-20.88 l 0,-7.92 -13.86,0 0,36.72 13.86,0 0,-10.62 1.08,0 c 3.78,7.92 14.04,12.78 28.62,12.78 z"
         style="font-style:normal;font-variant:normal;font-weight:normal;font-stretch:normal;font-family:'IBM Plex Serif';-inkscape-font-specification:'IBM Plex Serif'"
         id="path4208" />
      <path
         d="m 997.15969,-420.30051 c 20.16001,0 32.58001,-11.88 37.26001,-24.66 l -6.3,-3.96 c -5.04,9.72 -13.5,16.38 -28.44001,16.38 -16.92,0 -28.08,-12.42 -28.08,-32.22 l 0,-4.5 64.80001,0 0,-4.32 c 0,-25.56 -15.12,-43.92 -40.14001,-43.92 -24.3,0 -42.48,19.8 -42.48,48.6 0,28.98 15.84,48.6 43.38,48.6 z m -25.56,-60.12 c 0,-16.2 8.46,-28.08 24.66,-28.08 16.38001,0 23.22001,12.42 23.22001,28.62 l 0,1.98 -47.88001,0 0,-2.52 z"
         style="font-style:normal;font-variant:normal;font-weight:normal;font-stretch:normal;font-family:'IBM Plex Serif';-inkscape-font-specification:'IBM Plex Serif'"
         id="path4210" />
      <path
         d="m 1053.4688,-422.46051 46.6199,0 0,-8.64 -17.0999,0 0,-57.6 c 0,-9.72 10.98,-20.52 21.06,-20.52 2.34,0 3.6,0.18 4.68,0.36 l 0,0.36 c -2.88,0.36 -5.4,3.6 -5.4,8.82 0,5.58 4.5,9.72 11.34,9.72 6.12,0 10.44,-4.5 10.44,-12.06 0,-10.08 -7.56,-15.48 -18.54,-15.48 -13.14,0 -19.62,8.46 -23.22,16.02 l -0.9,0 0,-16.02 -28.98,5.58 0,6.48 13.5,2.52 0,71.82 -13.5,0 0,8.64 z"
         style="font-style:normal;font-variant:normal;font-weight:normal;font-stretch:normal;font-family:'IBM Plex Serif';-inkscape-font-specification:'IBM Plex Serif'"
         id="path4212" />
      <path
         d="m 1157.5059,-536.22051 c 6.48,0 10.26,-4.5 10.26,-9.9 l 0,-1.08 c 0,-5.4 -3.78,-9.9 -10.26,-9.9 -6.48,0 -10.26,4.5 -10.26,9.9 l 0,1.08 c 0,5.4 3.78,9.9 10.26,9.9 z m -21.42,113.76 43.02,0 0,-8.64 -13.5,0 0,-86.4 -29.52,5.58 0,6.48 13.5,2.52 0,71.82 -13.5,0 0,8.64 z"
         style="font-style:normal;font-variant:normal;font-weight:normal;font-stretch:normal;font-family:'IBM Plex Serif';-inkscape-font-specification:'IBM Plex Serif'"
         id="path4214" />
      <path
         d="m 1193.5453,-422.46051 46.62,0 0,-8.64 -17.1,0 0,-74.88 20.7,0 0,-9.36 -20.7,0 0,-18 c 0,-12.78 5.58,-20.52 15.66,-20.52 2.52,0 4.86,0.18 6.48,0.72 l 0,0.36 c -3.24,1.26 -5.04,4.14 -5.04,8.46 0,4.86 3.78,9 9.36,9 5.76,0 9.9,-4.32 9.9,-10.62 0,-9.9 -8.46,-15.12 -22.14,-15.12 -17.64,0 -30.24,12.24 -30.24,29.88 l 0,15.84 -13.5,0 0,9.36 13.5,0 0,74.88 -13.5,0 0,8.64 z"
         style="font-style:normal;font-variant:normal;font-weight:normal;font-stretch:normal;font-family:'IBM Plex Serif';-inkscape-font-specification:'IBM Plex Serif'"
         id="path4216" />
    </g>
    <g
       style="font-style:normal;font-weight:normal;font-size:180px;line-height:125%;font-family:sans-serif;text-align:center;letter-spacing:0px;word-spacing:0px;text-anchor:middle;fill:#000000;fill-opacity:1;stroke:none;stroke-width:1px;stroke-linecap:butt;stroke-linejoin:miter;stroke-opacity:1"
       id="text4142">
      <path
         d="m 1089.601,73.953285 c 58.125,0 83.125,-26.25 95.625,-54.375 l 3.125,0 0,1.875 c 0,31.875 19.375,52.5 53.75,52.5 20,0 36.25,-5.625 45.625,-12.5 l 0,-23.75 -46.875,0 0,-201.249995 c 0,-63.125 -41.25,-100 -110,-100 -78.75,0 -123.125,36.25 -123.125,73.125 0,25 15,38.125 36.25,38.125 22.5,0 36.875,-13.125 36.875,-36.25 0,-18.75 -11.25,-28.125 -21.25,-33.75 l 0,-1.25 c 11.875,-6.25 31.875,-10 51.25,-10 49.375,0 74.375,28.125 74.375,78.125 l 0,46.25 -45.625,0 c -108.75,0 -147.50005,33.124995 -147.50005,95.624995 0,53.75 36.87505,87.5 97.50005,87.5 z m 23.75,-36.25 c -38.75,0 -61.875,-16.25 -61.875,-47.4999998 l 0,-12.5000002 c 0,-39.375 21.875,-60 93.75,-60 l 40,0 0,59.375 c 0,41.25 -32.5,60.625 -71.875,60.625 z"
         style="font-style:normal;font-variant:normal;font-weight:normal;font-stretch:normal;font-size:625px;font-family:'IBM Plex Serif';-inkscape-font-specification:'IBM Plex Serif';fill:#214152;fill-opacity:1"
         id="path4219" />
    </g>
    <g
       style="font-style:normal;font-weight:normal;font-size:180px;line-height:125%;font-family:sans-serif;text-align:center;letter-spacing:0px;word-spacing:0px;text-anchor:middle;fill:#214152;fill-opacity:1;stroke:none;stroke-width:1px;stroke-linecap:butt;stroke-linejoin:miter;stroke-opacity:1"
       id="text4146">
      <path
         d="m 48.869899,-131.53661 37.26,0 0,-8.64 -16.2,0 10.98,-32.22 49.320001,0 11.34,32.22 -16.2,0 0,8.64 43.92,0 0,-8.64 -9.54,0 -41.4,-117 -18.540001,0 -41.4,117 -9.54,0 0,8.64 z m 56.340001,-111.78 1.26,0 21.06,61.92 -43.920001,0 21.600001,-61.92 z"
         style="font-style:normal;font-variant:normal;font-weight:normal;font-stretch:normal;font-family:'IBM Plex Serif';-inkscape-font-specification:'IBM Plex Serif'"
         id="path4222" />
      <path
         d="m 209.28084,-129.37661 c 16.74,0 23.94,-7.56 27.54,-15.66 l 0.9,0 0,0.54 c 0,9.18 5.58,15.12 15.48,15.12 5.76,0 10.44,-1.62 13.14,-3.6 l 0,-6.84 -13.5,0 0,-57.96 c 0,-18.18 -11.88,-28.8 -31.68,-28.8 -22.68,0 -35.46,10.44 -35.46,21.06 0,7.2 4.32,10.98 10.44,10.98 6.48,0 10.62,-3.78 10.62,-10.44 0,-5.4 -3.24,-8.1 -6.12,-9.72 l 0,-0.36 c 3.42,-1.8 9.18,-2.88 14.76,-2.88 14.22,0 21.42,8.1 21.42,22.5 l 0,13.32 -13.14,0 c -31.32,0 -42.48,9.54 -42.48,27.54 0,15.48 10.62,25.2 28.08,25.2 z m 6.84,-10.44 c -11.16,0 -17.82,-4.68 -17.82,-13.68 l 0,-3.6 c 0,-11.34 6.3,-17.28 27,-17.28 l 11.52,0 0,17.1 c 0,11.88 -9.36,17.46 -20.7,17.46 z"
         style="font-style:normal;font-variant:normal;font-weight:normal;font-stretch:normal;font-family:'IBM Plex Serif';-inkscape-font-specification:'IBM Plex Serif'"
         id="path4224" />
      <path
         d="m 324.48365,-131.53661 97.74,0 0,-32.4 -13.86,0 0,23.04 -53.28,0 0,-50.58 35.46,0 0,14.4 11.52,0 0,-38.16 -11.52,0 0,14.4 -35.46,0 0,-46.98 51.48,0 0,21.24 13.86,0 0,-30.6 -95.94,0 0,8.64 13.68,0 0,108.36 -13.68,0 0,8.64 z"
         style="font-style:normal;font-variant:normal;font-weight:normal;font-stretch:normal;font-family:'IBM Plex Serif';-inkscape-font-specification:'IBM Plex Serif'"
         id="path4226" />
      <path
         d="m 482.7824,-129.37661 c 20.16,0 32.58,-11.88 37.26,-24.66 l -6.3,-3.96 c -5.04,9.72 -13.5,16.38 -28.44,16.38 -16.92,0 -28.08,-12.42 -28.08,-32.22 l 0,-4.5 64.8,0 0,-4.32 c 0,-25.56 -15.12,-43.92 -40.14,-43.92 -24.3,0 -42.48,19.8 -42.48,48.6 0,28.98 15.84,48.6 43.38,48.6 z m -25.56,-60.12 c 0,-16.2 8.46,-28.08 24.66,-28.08 16.38,0 23.22,12.42 23.22,28.62 l 0,1.98 -47.88,0 0,-2.52 z"
         style="font-style:normal;font-variant:normal;font-weight:normal;font-stretch:normal;font-family:'IBM Plex Serif';-inkscape-font-specification:'IBM Plex Serif'"
         id="path4228" />
      <path
         d="m 581.8274,-131.53661 44.28,0 0,-8.64 -13.68,0 0,-48.96 20.7,0 22.5,41.22 c 5.94,10.98 10.44,16.38 24.84,16.38 l 12.24,0 0,-8.64 -1.44,0 c -9,0 -14.94,-3.96 -19.8,-12.78 l -21.24,-38.52 c 18.36,-3.6 28.08,-15.66 28.08,-32.4 0,-22.14 -13.5,-33.3 -36.18,-33.3 l -60.3,0 0,8.64 13.68,0 0,108.36 -13.68,0 0,8.64 z m 30.6,-116.28 28.08,0 c 12.6,0 19.98,8.82 19.98,20.34 l 0,8.64 c 0,11.52 -7.38,20.34 -19.98,20.34 l -28.08,0 0,-49.32 z"
         style="font-style:normal;font-variant:normal;font-weight:normal;font-stretch:normal;font-family:'IBM Plex Serif';-inkscape-font-specification:'IBM Plex Serif'"
         id="path4230" />
      <path
         d="m 704.6774,-131.53661 46.62,0 0,-8.64 -17.1,0 0,-57.6 c 0,-9.72 10.98,-20.52 21.06,-20.52 2.34,0 3.6,0.18 4.68,0.36 l 0,0.36 c -2.88,0.36 -5.4,3.6 -5.4,8.82 0,5.58 4.5,9.72 11.34,9.72 6.12,0 10.44,-4.5 10.44,-12.06 0,-10.08 -7.56,-15.48 -18.54,-15.48 -13.14,0 -19.62,8.46 -23.22,16.02 l -0.9,0 0,-16.02 -28.98,5.58 0,6.48 13.5,2.52 0,71.82 -13.5,0 0,8.64 z"
         style="font-style:normal;font-variant:normal;font-weight:normal;font-stretch:normal;font-family:'IBM Plex Serif';-inkscape-font-specification:'IBM Plex Serif'"
         id="path4232" />
    </g>
    <g
       style="font-style:normal;font-weight:normal;font-size:180px;line-height:125%;font-family:sans-serif;text-align:center;letter-spacing:0px;word-spacing:0px;text-anchor:middle;fill:#214152;fill-opacity:1;stroke:none;stroke-width:1px;stroke-linecap:butt;stroke-linejoin:miter;stroke-opacity:1"
       id="text4150">
      <path
         d="m 68.960992,54.331463 34.739998,0 1.98,-7.92 -13.319998,0 18.719998,-33.48 43.74,0 1.98,33.48 -13.32,0 -1.98,7.92 39.06,0 1.98,-7.92 -9.36,0 -8.46,-117.72 -16.38,0 -68.039998,117.72 -9.36,0 -1.98,7.92 z m 80.459998,-109.98 1.08,0 3.96,60.2999999 -39.06,0 34.02,-60.2999999 z"
         style="font-style:italic;font-variant:normal;font-weight:normal;font-stretch:normal;font-family:'IBM Plex Serif';-inkscape-font-specification:'IBM Plex Serif Italic'"
         id="path4235" />
      <path
         d="m 216.02099,56.491463 c 14.58,0 24.12,-13.68 34.38,-36 l 1.44,0.54 -3.78,15.3 c -0.54,2.16 -1.44,6.48 -1.44,9.36 0,5.76 3.06,10.8 10.8,10.8 5.4,0 10.62,-2.7 19.26,-13.14 l 12.42,-14.94 -4.68,-3.78 -20.34,20.88 -3.24,-1.44 20.88,-82.62 -8.1,0 -7.56,13.14 -1.62,0 c -3.06,-10.08 -8.82,-15.3 -19.62,-15.3 -28.8,0 -46.44,41.7599999 -46.44,70.74 0,17.28 5.58,26.46 17.64,26.46 z m 5.4,-12.42 c -5.22,0 -6.66,-4.86 -6.66,-14.04 0,-6.66 2.88,-21.0600001 4.86,-28.2600001 5.94,-21.7799999 17.46,-32.5799999 29.52,-32.5799999 10.26,0 13.32,7.74 10.62,18.72 l -0.54,2.1599999 c -2.7,10.79999996 -22.32,54.0000001 -37.8,54.0000001 z"
         style="font-style:italic;font-variant:normal;font-weight:normal;font-stretch:normal;font-family:'IBM Plex Serif';-inkscape-font-specification:'IBM Plex Serif Italic'"
         id="path4237" />
      <path
         d="m 325.39349,54.331463 89.82,0 8.1,-32.4 -13.14,0 -5.94,23.76 -47.34,0 12.78,-51.6600001 32.22,0 -3.78,14.76 9.9,0 9.72,-38.1599999 -9.9,0 -3.78,14.76 -32.04,0 11.7,-48.06 45.9,0 -5.4,21.96 13.14,0 7.56,-30.6 -88.2,0 -1.98,7.92 12.6,0 -27.36,109.8 -12.6,0 -1.98,7.92 z"
         style="font-style:italic;font-variant:normal;font-weight:normal;font-stretch:normal;font-family:'IBM Plex Serif';-inkscape-font-specification:'IBM Plex Serif Italic'"
         id="path4239" />
      <path
         d="m 464.72755,56.491463 c 17.64,0 28.44,-10.98 40.32,-33.84 l -5.94,-2.88 c -9,16.02 -19.26,25.74 -29.7,25.74 -8.1,0 -12.06,-5.76 -12.06,-15.48 0,-6.3 1.62,-15.12 3.24,-22.5000001 40.14,-2.52 51.3,-16.92 51.3,-30.4199999 0,-14.22 -12.6,-17.82 -22.5,-17.82 -34.02,0 -48.24,41.57999986 -48.24,68.58 0,19.08 7.02,28.62 23.58,28.62 z m -2.7,-54.9000001 c 6.84,-26.8199999 14.58,-34.3799999 24.66,-34.3799999 7.74,0 10.26,4.68 10.26,11.16 0,13.3199999 -10.44,20.3399999 -34.92,23.2199999 z"
         style="font-style:italic;font-variant:normal;font-weight:normal;font-stretch:normal;font-family:'IBM Plex Serif';-inkscape-font-specification:'IBM Plex Serif Italic'"
         id="path4241" />
      <path
         d="m 548.98724,54.331463 41.76,0 1.98,-7.92 -12.6,0 12.6,-50.2200001 19.44,0 9.72,41.2200001 c 3.24,13.68 7.38,16.92 20.7,16.92 l 9.18,0 1.98,-7.92 -1.98,0 c -8.28,0 -10.98,-3.78 -12.96,-10.98 l -10.98,-40.5000001 c 26.28,-4.14 34.38,-26.0999999 34.38,-42.6599999 0,-14.94 -10.62,-23.58 -27.54,-23.58 l -54.36,0 -1.98,7.92 12.6,0 -27.36,109.8 -12.6,0 -1.98,7.92 z m 58.32,-117 25.02,0 c 9.18,0 13.68,5.94 13.68,14.4 0,4.68 -2.34,12.24 -3.06,15.12 -2.88,11.7 -12.06,20.7 -23.4,20.7 l -24.66,0 12.42,-50.22 z"
         style="font-style:italic;font-variant:normal;font-weight:normal;font-stretch:normal;font-family:'IBM Plex Serif';-inkscape-font-specification:'IBM Plex Serif Italic'"
         id="path4243" />
      <path
         d="m 672.10724,54.331463 15.66,0 4.86,-19.44 c 3.42,-14.04 11.7,-32.9400001 14.58,-39.2400001 7.56,-16.5599999 16.38,-28.2599999 23.76,-29.6999999 l 1.26,1.08 c -1.8,1.62 -3.42,5.04 -3.42,8.28 0,5.04 3.6,8.82 9.18,8.82 7.02,0 11.88,-5.94 11.88,-12.6 0,-7.02 -5.22,-12.24 -14.58,-12.24 -14.22,0 -22.14,11.7 -31.5,34.7399999 l -1.44,-0.54 8.46,-34.1999999 -33.3,7.56 -1.62,6.66 16.38,0 -20.16,80.82 z"
         style="font-style:italic;font-variant:normal;font-weight:normal;font-stretch:normal;font-family:'IBM Plex Serif';-inkscape-font-specification:'IBM Plex Serif Italic'"
         id="path4245" />
    </g>
    <g
       style="font-style:normal;font-weight:normal;font-size:180px;line-height:125%;font-family:sans-serif;text-align:center;letter-spacing:0px;word-spacing:0px;text-anchor:middle;fill:#5a6872;fill-opacity:1;stroke:none;stroke-width:1px;stroke-linecap:butt;stroke-linejoin:miter;stroke-opacity:1"
       id="text4173">
      <path
         d="m 304.70026,357.37723 59.0625,0 c 35.8125,0 61.875,-22.6875 61.875,-65.4375 0,-42.75 -26.0625,-65.4375 -61.875,-65.4375 l -59.0625,0 0,10.5 13.875,0 0,109.875 -13.875,0 0,10.5 z m 37.6875,-119.25 17.8125,0 c 25.6875,0 39,13.6875 39,39.5625 l 0,28.5 c 0,25.875 -13.3125,39.5625 -39,39.5625 l -17.8125,0 0,-107.625 z"
         style="font-style:normal;font-variant:normal;font-weight:600;font-stretch:normal;font-size:187.5px;font-family:'IBM Plex Serif';-inkscape-font-specification:'IBM Plex Serif Semi-Bold';fill:#5a6872;fill-opacity:1"
         id="path4248" />
      <path
         d="m 472.53912,359.62723 c 17.625,0 24.5625,-8.4375 28.3125,-16.6875 l 0.9375,0 0,0.375 c 0,9.5625 5.4375,16.3125 17.4375,16.3125 6.5625,0 12.75,-1.6875 16.3125,-3.75 l 0,-8.8125 -12.9375,0 0,-57.75 c 0,-19.875 -12.75,-31.6875 -36.5625,-31.6875 -25.875,0 -39.5625,11.4375 -39.5625,23.25 0,7.5 4.875,12.375 12.375,12.375 7.5,0 12.375,-4.875 12.375,-12.375 0,-5.4375 -3.1875,-8.25 -6,-9.5625 l 0,-0.75 c 3.375,-1.5 8.25,-2.625 13.875,-2.625 14.4375,0 21,8.25 21,23.25 l 0,12.375 -13.5,0 c -30.9375,0 -44.0625,9.9375 -44.0625,28.875 0,16.875 10.3125,27.1875 30,27.1875 z m 9,-13.6875 c -9.9375,0 -16.125,-4.3125 -16.125,-12.9375 l 0,-3.375 c 0,-10.6875 6.375,-16.5 23.4375,-16.5 l 11.25,0 0,16.5 c 0,11.4375 -7.875,16.3125 -18.5625,16.3125 z"
         style="font-style:normal;font-variant:normal;font-weight:600;font-stretch:normal;font-size:187.5px;font-family:'IBM Plex Serif';-inkscape-font-specification:'IBM Plex Serif Semi-Bold';fill:#5a6872;fill-opacity:1"
         id="path4250" />
      <path
         d="m 579.70416,358.87723 c 10.875,0 21.5625,-1.875 25.875,-3.9375 l 0,-8.8125 -23.8125,0 0,-74.8125 23.8125,0 0,-11.4375 -23.8125,0 0,-26.0625 -11.625,0 -6.1875,16.5 c -2.4375,6.375 -4.6875,9.5625 -14.4375,9.5625 l -3.1875,0 0,11.4375 12.9375,0 0,68.4375 c 0,13.3125 5.625,19.125 20.4375,19.125 z"
         style="font-style:normal;font-variant:normal;font-weight:600;font-stretch:normal;font-size:187.5px;font-family:'IBM Plex Serif';-inkscape-font-specification:'IBM Plex Serif Semi-Bold';fill:#5a6872;fill-opacity:1"
         id="path4252" />
      <path
         d="m 647.22174,359.62723 c 17.625,0 24.5625,-8.4375 28.3125,-16.6875 l 0.9375,0 0,0.375 c 0,9.5625 5.4375,16.3125 17.4375,16.3125 6.5625,0 12.75,-1.6875 16.3125,-3.75 l 0,-8.8125 -12.9375,0 0,-57.75 c 0,-19.875 -12.75,-31.6875 -36.5625,-31.6875 -25.875,0 -39.5625,11.4375 -39.5625,23.25 0,7.5 4.875,12.375 12.375,12.375 7.5,0 12.375,-4.875 12.375,-12.375 0,-5.4375 -3.1875,-8.25 -6,-9.5625 l 0,-0.75 c 3.375,-1.5 8.25,-2.625 13.875,-2.625 14.4375,0 21,8.25 21,23.25 l 0,12.375 -13.5,0 c -30.9375,0 -44.0625,9.9375 -44.0625,28.875 0,16.875 10.3125,27.1875 30,27.1875 z m 9,-13.6875 c -9.9375,0 -16.125,-4.3125 -16.125,-12.9375 l 0,-3.375 c 0,-10.6875 6.375,-16.5 23.4375,-16.5 l 11.25,0 0,16.5 c 0,11.4375 -7.875,16.3125 -18.5625,16.3125 z"
         style="font-style:normal;font-variant:normal;font-weight:600;font-stretch:normal;font-size:187.5px;font-family:'IBM Plex Serif';-inkscape-font-specification:'IBM Plex Serif Semi-Bold';fill:#5a6872;fill-opacity:1"
         id="path4254" />
      <path
         d="m 826.81451,359.62723 c 26.25,0 43.125,-17.25 48.5625,-33.9375 l -9.1875,-4.6875 c -5.625,14.0625 -17.8125,24 -34.875,24 -21.9375,0 -35.8125,-13.875 -35.8125,-39 l 0,-30.5625 c 0,-22.875 10.5,-38.8125 32.8125,-38.8125 17.0625,0 27.5625,8.4375 27.5625,20.625 l 0,9.1875 18.1875,0 0,-39.9375 -18.1875,0 0,11.25 -0.9375,0 c -3.375,-7.125 -13.6875,-13.5 -29.8125,-13.5 -31.5,0 -56.0625,24 -56.0625,67.6875 0,39.75 21.9375,67.6875 57.75,67.6875 z"
         style="font-style:normal;font-variant:normal;font-weight:600;font-stretch:normal;font-size:187.5px;font-family:'IBM Plex Serif';-inkscape-font-specification:'IBM Plex Serif Semi-Bold';fill:#5a6872;fill-opacity:1"
         id="path4256" />
      <path
         d="m 938.21881,359.62723 c 22.875,0 35.8125,-13.875 40.5,-26.625 l -8.625,-5.0625 c -4.5,9.375 -12.9375,16.3125 -27.5625,16.3125 -16.3125,0 -27,-10.875 -27,-29.625 l 0,-6 65.25,0 0,-5.4375 c 0,-27.1875 -16.6875,-45.5625 -43.875,-45.5625 -26.8125,0 -45.75,20.0625 -45.75,51 0,30 17.0625,51 47.0625,51 z m -22.6875,-63.9375 c 0,-17.4375 7.6875,-27 21.5625,-27 13.6875,0 20.4375,9.9375 20.4375,27.375 l 0,2.25 -42,0 0,-2.625 z"
         style="font-style:normal;font-variant:normal;font-weight:600;font-stretch:normal;font-size:187.5px;font-family:'IBM Plex Serif';-inkscape-font-specification:'IBM Plex Serif Semi-Bold';fill:#5a6872;fill-opacity:1"
         id="path4258" />
      <path
         d="m 996.63385,357.37723 48.00005,0 0,-10.5 -12.5625,0 0,-57.5625 c 0,-11.625 10.5,-16.875 20.4375,-16.875 13.5,0 19.3125,7.3125 19.3125,22.6875 l 0,51.75 -12.5625,0 0,10.5 48,0 0,-10.5 -12.9375,0 0,-52.875 c 0,-24.1875 -9.1875,-36.375 -33.375,-36.375 -15.9375,0 -25.3125,9 -28.5,17.625 l -0.9375,0 0,-17.625 -34.87505,6.9375 0,8.625 12.93755,2.4375 0,71.25 -12.93755,0 0,10.5 z"
         style="font-style:normal;font-variant:normal;font-weight:600;font-stretch:normal;font-size:187.5px;font-family:'IBM Plex Serif';-inkscape-font-specification:'IBM Plex Serif Semi-Bold';fill:#5a6872;fill-opacity:1"
         id="path4260" />
      <path
         d="m 1152.4581,358.87723 c 10.875,0 21.5625,-1.875 25.875,-3.9375 l 0,-8.8125 -23.8125,0 0,-74.8125 23.8125,0 0,-11.4375 -23.8125,0 0,-26.0625 -11.625,0 -6.1875,16.5 c -2.4375,6.375 -4.6875,9.5625 -14.4375,9.5625 l -3.1875,0 0,11.4375 12.9375,0 0,68.4375 c 0,13.3125 5.625,19.125 20.4375,19.125 z"
         style="font-style:normal;font-variant:normal;font-weight:600;font-stretch:normal;font-size:187.5px;font-family:'IBM Plex Serif';-inkscape-font-specification:'IBM Plex Serif Semi-Bold';fill:#5a6872;fill-opacity:1"
         id="path4262" />
      <path
         d="m 1237.4131,359.62723 c 22.875,0 35.8125,-13.875 40.5,-26.625 l -8.625,-5.0625 c -4.5,9.375 -12.9375,16.3125 -27.5625,16.3125 -16.3125,0 -27,-10.875 -27,-29.625 l 0,-6 65.25,0 0,-5.4375 c 0,-27.1875 -16.6875,-45.5625 -43.875,-45.5625 -26.8125,0 -45.75,20.0625 -45.75,51 0,30 17.0625,51 47.0625,51 z m -22.6875,-63.9375 c 0,-17.4375 7.6875,-27 21.5625,-27 13.6875,0 20.4375,9.9375 20.4375,27.375 l 0,2.25 -42,0 0,-2.625 z"
         style="font-style:normal;font-variant:normal;font-weight:600;font-stretch:normal;font-size:187.5px;font-family:'IBM Plex Serif';-inkscape-font-specification:'IBM Plex Serif Semi-Bold';fill:#5a6872;fill-opacity:1"
         id="path4264" />
      <path
         d="m 1295.8282,357.37723 52.125,0 0,-10.5 -16.6875,0 0,-57.9375 c 0,-9.1875 9.9375,-19.875 19.3125,-19.875 1.6875,0 2.625,0.1875 3.375,0.375 l 0.1875,0.5625 c -2.4375,0.5625 -4.6875,3.75 -4.6875,8.0625 0,6.1875 4.875,11.0625 12.9375,11.0625 8.0625,0 12.9375,-5.25 12.9375,-14.25 0,-10.875 -7.6875,-17.25 -19.5,-17.25 -13.3125,0 -20.625,8.4375 -24.1875,17.4375 l -0.9375,0 0,-17.4375 -34.875,6.9375 0,8.625 12.9375,2.4375 0,71.25 -12.9375,0 0,10.5 z"
         style="font-style:normal;font-variant:normal;font-weight:600;font-stretch:normal;font-size:187.5px;font-family:'IBM Plex Serif';-inkscape-font-specification:'IBM Plex Serif Semi-Bold';fill:#5a6872;fill-opacity:1"
         id="path4266" />
    </g>
    <path
       style="fill:#00baa1;fill-opacity:1;stroke:#000000;stroke-width:0.9965499;stroke-miterlimit:4;stroke-dasharray:2.98964981, 2.98964980999999996;stroke-dashoffset:0;stroke-opacity:1"
       d="m -0.00172485,470.51254 1406.13572485,0 0,581.85136 -1406.13572485,0 z"
       id="rect4177" />
    <g
       style="font-style:normal;font-weight:normal;font-size:180px;line-height:125%;font-family:sans-serif;text-align:center;letter-spacing:0px;word-spacing:0px;text-anchor:middle;fill:#f5f7fa;fill-opacity:1;stroke:none;stroke-width:1px;stroke-linecap:butt;stroke-linejoin:miter;stroke-opacity:1"
       id="text4179">
      <path
         d="m 81.15938,629.68814 c 12.3225,0 17.6225,-5.565 20.2725,-11.5275 l 0.6625,0 0,0.3975 c 0,6.7575 4.1075,11.13 11.395,11.13 4.24,0 7.685,-1.1925 9.6725,-2.65 l 0,-5.035 -9.9375,0 0,-42.665 c 0,-13.3825 -8.745,-21.2 -23.32,-21.2 -16.695,0 -26.1025,7.685 -26.1025,15.5025 0,5.3 3.18,8.0825 7.685,8.0825 4.77,0 7.8175,-2.7825 7.8175,-7.685 0,-3.975 -2.385,-5.9625 -4.505,-7.155 l 0,-0.265 c 2.5175,-1.325 6.7575,-2.12 10.865,-2.12 10.4675,0 15.7675,5.9625 15.7675,16.5625 l 0,9.805 -9.6725,0 c -23.055,0 -31.27,7.0225 -31.27,20.2725 0,11.395 7.8175,18.55 20.67,18.55 z m 5.035,-7.685 c -8.215,0 -13.1175,-3.445 -13.1175,-10.07 l 0,-2.65 c 0,-8.3475 4.6375,-12.72 19.875,-12.72 l 8.48,0 0,12.5875 c 0,8.745 -6.89,12.8525 -15.2375,12.8525 z"
         style="font-style:normal;font-variant:normal;font-weight:normal;font-stretch:normal;font-size:132.5px;font-family:'IBM Plex Serif';-inkscape-font-specification:'IBM Plex Serif';fill:#f5f7fa;fill-opacity:1"
         id="path4270" />
      <path
         d="m 204.65145,629.68814 c 17.225,0 28.62,-12.5875 28.62,-35.775 0,-23.1875 -11.395,-35.775 -28.62,-35.775 -10.865,0 -17.3575,5.3 -20.405,11.7925 l -0.53,0 0,-43.8575 -21.73,4.1075 0,4.77 9.9375,1.855 0,91.2925 4.6375,0 6.7575,-10.07 0.53,0 c 2.915,6.4925 9.9375,11.66 20.8025,11.66 z m -3.445,-7.95 c -8.6125,0 -17.49,-4.9025 -17.49,-13.3825 l 0,-28.885 c 0,-8.48 8.8775,-13.3825 17.49,-13.3825 12.0575,0 19.2125,8.745 19.2125,22.1275 l 0,11.395 c 0,13.3825 -7.155,22.1275 -19.2125,22.1275 z"
         style="font-style:normal;font-variant:normal;font-weight:normal;font-stretch:normal;font-size:132.5px;font-family:'IBM Plex Serif';-inkscape-font-specification:'IBM Plex Serif';fill:#f5f7fa;fill-opacity:1"
         id="path4272" />
      <path
         d="m 308.62461,629.68814 c 14.84,0 23.4525,-8.745 26.8975,-18.1525 l -4.6375,-2.915 c -3.71,7.155 -9.4075,12.0575 -20.405,12.0575 -12.72,0 -20.67,-9.4075 -20.67,-23.585 l 0,-10.07 c 0,-12.72 8.8775,-22.3925 21.2,-22.3925 5.6975,0 9.275,0.9275 11.395,2.12 l 0,0.3975 c -3.71,1.59 -5.9625,4.6375 -5.9625,8.6125 0,4.6375 2.915,8.6125 8.6125,8.6125 5.4325,0 8.8775,-3.71 8.8775,-9.54 0,-9.6725 -9.4075,-16.695 -24.2475,-16.695 -19.4775,0 -32.9925,14.045 -32.9925,35.775 0,21.3325 11.66,35.775 31.9325,35.775 z"
         style="font-style:normal;font-variant:normal;font-weight:normal;font-stretch:normal;font-size:132.5px;font-family:'IBM Plex Serif';-inkscape-font-specification:'IBM Plex Serif';fill:#f5f7fa;fill-opacity:1"
         id="path4274" />
      <path
         d="m 406.90235,629.68814 c 10.865,0 17.49,-5.1675 20.405,-11.66 l 0.53,0 0,11.66 21.73,-4.1075 0,-4.77 -9.9375,-1.855 0,-92.8825 -21.73,4.1075 0,4.77 9.9375,1.855 0,33.125 -0.53,0 c -3.0475,-6.4925 -9.54,-11.7925 -20.405,-11.7925 -17.225,0 -28.62,12.5875 -28.62,35.775 0,23.1875 11.395,35.775 28.62,35.775 z m 3.445,-7.95 c -12.0575,0 -19.2125,-8.745 -19.2125,-22.1275 l 0,-11.395 c 0,-13.3825 7.155,-22.1275 19.2125,-22.1275 8.6125,0 17.49,4.9025 17.49,13.3825 l 0,28.885 c 0,8.48 -8.8775,13.3825 -17.49,13.3825 z"
         style="font-style:normal;font-variant:normal;font-weight:normal;font-stretch:normal;font-size:132.5px;font-family:'IBM Plex Serif';-inkscape-font-specification:'IBM Plex Serif';fill:#f5f7fa;fill-opacity:1"
         id="path4276" />
      <path
         d="m 522.90196,629.68814 c 14.84,0 23.9825,-8.745 27.4275,-18.1525 l -4.6375,-2.915 c -3.71,7.155 -9.9375,12.0575 -20.935,12.0575 -12.455,0 -20.67,-9.1425 -20.67,-23.7175 l 0,-3.3125 47.7,0 0,-3.18 c 0,-18.815 -11.13,-32.33 -29.5475,-32.33 -17.8875,0 -31.27,14.575 -31.27,35.775 0,21.3325 11.66,35.775 31.9325,35.775 z m -18.815,-44.255 c 0,-11.925 6.2275,-20.67 18.1525,-20.67 12.0575,0 17.0925,9.1425 17.0925,21.0675 l 0,1.4575 -35.245,0 0,-1.855 z"
         style="font-style:normal;font-variant:normal;font-weight:normal;font-stretch:normal;font-size:132.5px;font-family:'IBM Plex Serif';-inkscape-font-specification:'IBM Plex Serif';fill:#f5f7fa;fill-opacity:1"
         id="path4278" />
      <path
         d="m 594.48508,628.09814 34.3175,0 0,-6.36 -12.5875,0 0,-55.12 15.2375,0 0,-6.89 -15.2375,0 0,-13.25 c 0,-9.4075 4.1075,-15.105 11.5275,-15.105 1.855,0 3.5775,0.1325 4.77,0.53 l 0,0.265 c -2.385,0.9275 -3.71,3.0475 -3.71,6.2275 0,3.5775 2.7825,6.625 6.89,6.625 4.24,0 7.2875,-3.18 7.2875,-7.8175 0,-7.2875 -6.2275,-11.13 -16.2975,-11.13 -12.985,0 -22.26,9.01 -22.26,21.995 l 0,11.66 -9.9375,0 0,6.89 9.9375,0 0,55.12 -9.9375,0 0,6.36 z"
         style="font-style:normal;font-variant:normal;font-weight:normal;font-stretch:normal;font-size:132.5px;font-family:'IBM Plex Serif';-inkscape-font-specification:'IBM Plex Serif';fill:#f5f7fa;fill-opacity:1"
         id="path4280" />
      <path
         d="m 701.79559,656.18814 c 22.9225,0 34.98,-8.745 34.98,-21.5975 0,-11.7925 -7.685,-18.4175 -23.4525,-18.4175 l -15.9,0 c -7.8175,0 -11.13,-1.325 -11.13,-5.83 0,-3.975 4.3725,-7.0225 9.01,-7.8175 2.2525,0.3975 4.505,0.6625 7.0225,0.6625 15.5025,0 27.03,-8.6125 27.03,-22.525 0,-6.7575 -2.5175,-10.865 -4.6375,-13.515 l 0,-5.9625 0.3975,0 c 1.4575,1.7225 3.71,2.5175 5.9625,2.5175 4.505,0 7.155,-2.65 7.155,-6.4925 0,-4.1075 -3.0475,-6.625 -7.155,-6.625 -5.1675,0 -9.9375,2.65 -10.07,13.1175 -4.24,-3.0475 -10.2025,-5.565 -18.6825,-5.565 -15.5025,0 -26.8975,8.6125 -26.8975,22.525 0,9.6725 5.4325,16.695 13.9125,20.14 l 0,0.6625 c -6.095,1.7225 -11.5275,5.6975 -11.5275,12.72 0,5.83 3.0475,9.54 8.6125,11.5275 l 0,0.53 c -7.0225,1.855 -14.31,6.4925 -14.31,13.515 0,9.9375 7.8175,16.43 29.68,16.43 z m 0.53,-58.9625 c -9.4075,0 -14.31,-5.3 -14.31,-14.045 l 0,-5.035 c 0,-8.745 4.9025,-14.045 14.4425,-14.045 9.4075,0 14.31,5.3 14.31,14.045 l 0,5.035 c 0,8.745 -4.9025,14.045 -14.4425,14.045 z m -19.875,41.87 c 0,-4.77 2.2525,-8.8775 7.8175,-11.5275 l 21.2,0 c 11.395,0 15.5025,3.445 15.5025,9.9375 0,7.155 -8.0825,11.7925 -21.3325,11.7925 l -6.36,0 c -10.2025,0 -16.8275,-3.3125 -16.8275,-10.2025 z"
         style="font-style:normal;font-variant:normal;font-weight:normal;font-stretch:normal;font-size:132.5px;font-family:'IBM Plex Serif';-inkscape-font-specification:'IBM Plex Serif';fill:#f5f7fa;fill-opacity:1"
         id="path4282" />
      <path
         d="m 775.86516,628.09814 31.6675,0 0,-6.36 -9.9375,0 0,-42.5325 c 0,-8.8775 8.3475,-13.1175 16.0325,-13.1175 10.9975,0 16.0325,6.2275 16.0325,18.6825 l 0,36.9675 -9.9375,0 0,6.36 31.6675,0 0,-6.36 -9.9375,0 0,-37.895 c 0,-17.0925 -6.625,-25.705 -23.585,-25.705 -10.9975,0 -17.6225,6.36 -19.7425,11.7925 l -0.53,0 0,-43.8575 -21.73,4.1075 0,4.77 9.9375,1.855 0,84.9325 -9.9375,0 0,6.36 z"
         style="font-style:normal;font-variant:normal;font-weight:normal;font-stretch:normal;font-size:132.5px;font-family:'IBM Plex Serif';-inkscape-font-specification:'IBM Plex Serif';fill:#f5f7fa;fill-opacity:1"
         id="path4284" />
      <path
         d="m 909.29887,544.35814 c 4.77,0 7.5525,-3.3125 7.5525,-7.2875 l 0,-0.795 c 0,-3.975 -2.7825,-7.2875 -7.5525,-7.2875 -4.77,0 -7.5525,3.3125 -7.5525,7.2875 l 0,0.795 c 0,3.975 2.7825,7.2875 7.5525,7.2875 z m -15.7675,83.74 31.6675,0 0,-6.36 -9.9375,0 0,-63.6 -21.73,4.1075 0,4.77 9.9375,1.855 0,52.8675 -9.9375,0 0,6.36 z"
         style="font-style:normal;font-variant:normal;font-weight:normal;font-stretch:normal;font-size:132.5px;font-family:'IBM Plex Serif';-inkscape-font-specification:'IBM Plex Serif';fill:#f5f7fa;fill-opacity:1"
         id="path4286" />
      <path
         d="m 968.87625,656.18814 c 12.5875,0 20.14,-7.155 20.14,-21.73 l 0,-76.32 -21.73,4.1075 0,4.77 9.9375,1.855 0,71.815 c 0,6.89 -2.915,10.4675 -8.3475,10.4675 -1.4575,0 -2.385,-0.1325 -3.3125,-0.53 l 0,-0.3975 c 1.7225,-0.53 3.0475,-2.7825 3.0475,-5.4325 0,-3.8425 -2.2525,-6.4925 -6.36,-6.4925 -4.24,0 -6.89,3.18 -6.89,7.155 0,6.2275 4.505,10.7325 13.515,10.7325 z m 14.1775,-111.83 c 4.77,0 7.5525,-3.3125 7.5525,-7.2875 l 0,-0.795 c 0,-3.975 -2.7825,-7.2875 -7.5525,-7.2875 -4.77,0 -7.5525,3.3125 -7.5525,7.2875 l 0,0.795 c 0,3.975 2.7825,7.2875 7.5525,7.2875 z"
         style="font-style:normal;font-variant:normal;font-weight:normal;font-stretch:normal;font-size:132.5px;font-family:'IBM Plex Serif';-inkscape-font-specification:'IBM Plex Serif';fill:#f5f7fa;fill-opacity:1"
         id="path4288" />
      <path
         d="m 1037.7597,628.09814 31.6675,0 0,-6.36 -9.9375,0 0,-16.43 11.66,-11.925 18.9475,28.355 -8.48,0 0,6.36 29.2825,0 0,-6.36 -7.5525,0 -24.115,-36.1725 19.08,-19.4775 10.07,0 0,-6.36 -29.5475,0 0,6.36 9.1425,0 -16.5625,17.8875 -11.2625,12.455 -0.6625,0 0,-70.3575 -21.73,4.1075 0,4.77 9.9375,1.855 0,84.9325 -9.9375,0 0,6.36 z"
         style="font-style:normal;font-variant:normal;font-weight:normal;font-stretch:normal;font-size:132.5px;font-family:'IBM Plex Serif';-inkscape-font-specification:'IBM Plex Serif';fill:#f5f7fa;fill-opacity:1"
         id="path4290" />
      <path
         d="m 1148.0038,628.09814 31.6675,0 0,-6.36 -9.9375,0 0,-95.665 -21.73,4.1075 0,4.77 9.9375,1.855 0,84.9325 -9.9375,0 0,6.36 z"
         style="font-style:normal;font-variant:normal;font-weight:normal;font-stretch:normal;font-size:132.5px;font-family:'IBM Plex Serif';-inkscape-font-specification:'IBM Plex Serif';fill:#f5f7fa;fill-opacity:1"
         id="path4292" />
      <path
         d="m 1221.6759,628.09814 31.6675,0 0,-6.36 -9.9375,0 0,-42.4 c 0,-8.8775 7.8175,-13.25 15.635,-13.25 10.6,0 15.635,6.2275 15.635,18.6825 l 0,36.9675 -9.9375,0 0,6.36 31.6675,0 0,-6.36 -9.9375,0 0,-42.4 c 0,-8.8775 7.8175,-13.25 15.635,-13.25 10.6,0 15.635,6.2275 15.635,18.6825 l 0,36.9675 -9.9375,0 0,6.36 31.6675,0 0,-6.36 -9.9375,0 0,-37.7625 c 0,-17.0925 -6.4925,-25.8375 -23.32,-25.8375 -12.0575,0 -18.285,7.2875 -21.0675,13.3825 l -0.53,0 c -2.65,-9.01 -9.54,-13.3825 -21.465,-13.3825 -10.7325,0 -17.3575,6.36 -19.61,11.925 l -0.53,0 0,-11.925 -21.3325,4.1075 0,4.77 9.9375,1.855 0,52.8675 -9.9375,0 0,6.36 z"
         style="font-style:normal;font-variant:normal;font-weight:normal;font-stretch:normal;font-size:132.5px;font-family:'IBM Plex Serif';-inkscape-font-specification:'IBM Plex Serif';fill:#f5f7fa;fill-opacity:1"
         id="path4294" />
      <path
         d="m 29.564087,793.72314 31.6675,0 0,-6.36 -9.9375,0 0,-42.5325 c 0,-8.8775 8.3475,-13.1175 16.0325,-13.1175 10.9975,0 16.0325,6.2275 16.0325,18.6825 l 0,36.9675 -9.9375,0 0,6.36 31.667503,0 0,-6.36 -9.937503,0 0,-37.895 c 0,-17.0925 -6.625,-25.705 -23.585,-25.705 -10.9975,0 -18.02,6.4925 -20.14,11.925 l -0.53,0 0,-11.925 -21.3325,4.1075 0,4.77 9.9375,1.855 0,52.8675 -9.9375,0 0,6.36 z"
         style="font-style:normal;font-variant:normal;font-weight:normal;font-stretch:normal;font-size:132.5px;font-family:'IBM Plex Serif';-inkscape-font-specification:'IBM Plex Serif';fill:#f5f7fa;fill-opacity:1"
         id="path4296" />
      <path
         d="m 178.72182,788.42314 c -13.25,0 -18.9475,-9.275 -18.9475,-21.3325 l 0,-15.105 c 0,-12.0575 5.6975,-21.3325 18.9475,-21.3325 13.25,0 18.9475,9.275 18.9475,21.3325 l 0,15.105 c 0,12.0575 -5.6975,21.3325 -18.9475,21.3325 z m 0,6.89 c 19.345,0 32.33,-14.1775 32.33,-35.775 0,-21.5975 -12.985,-35.775 -32.33,-35.775 -19.345,0 -32.33,14.1775 -32.33,35.775 0,21.5975 12.985,35.775 32.33,35.775 z"
         style="font-style:normal;font-variant:normal;font-weight:normal;font-stretch:normal;font-size:132.5px;font-family:'IBM Plex Serif';-inkscape-font-specification:'IBM Plex Serif';fill:#f5f7fa;fill-opacity:1"
         id="path4298" />
      <path
         d="m 253.12678,820.22314 34.3175,0 0,-6.36 -12.5875,0 0,-30.21 0.53,0 c 2.915,6.4925 9.54,11.66 20.405,11.66 17.225,0 28.62,-12.5875 28.62,-35.775 0,-23.1875 -11.395,-35.775 -28.62,-35.775 -10.865,0 -17.3575,5.3 -20.405,11.7925 l -0.53,0 0,-11.7925 -21.73,4.1075 0,4.77 9.9375,1.855 0,79.3675 -9.9375,0 0,6.36 z m 39.22,-32.86 c -8.6125,0 -17.49,-4.9025 -17.49,-13.3825 l 0,-28.885 c 0,-8.48 8.8775,-13.3825 17.49,-13.3825 12.0575,0 19.2125,8.745 19.2125,22.1275 l 0,11.395 c 0,13.3825 -7.155,22.1275 -19.2125,22.1275 z"
         style="font-style:normal;font-variant:normal;font-weight:normal;font-stretch:normal;font-size:132.5px;font-family:'IBM Plex Serif';-inkscape-font-specification:'IBM Plex Serif';fill:#f5f7fa;fill-opacity:1"
         id="path4300" />
      <path
         d="m 405.54526,820.22314 34.3175,0 0,-6.36 -9.9375,0 0,-88.51 -4.6375,0 -6.7575,10.07 -0.53,0 c -2.915,-6.4925 -9.9375,-11.66 -20.8025,-11.66 -17.225,0 -28.62,12.5875 -28.62,35.775 0,23.1875 11.395,35.775 28.62,35.775 10.865,0 17.49,-5.1675 20.405,-11.66 l 0.53,0 0,30.21 -12.5875,0 0,6.36 z m -4.9025,-32.86 c -12.0575,0 -19.2125,-8.745 -19.2125,-22.1275 l 0,-11.395 c 0,-13.3825 7.155,-22.1275 19.2125,-22.1275 8.6125,0 17.49,4.9025 17.49,13.3825 l 0,28.885 c 0,8.48 -8.8775,13.3825 -17.49,13.3825 z"
         style="font-style:normal;font-variant:normal;font-weight:normal;font-stretch:normal;font-size:132.5px;font-family:'IBM Plex Serif';-inkscape-font-specification:'IBM Plex Serif';fill:#f5f7fa;fill-opacity:1"
         id="path4302" />
      <path
         d="m 480.63342,793.72314 34.3175,0 0,-6.36 -12.5875,0 0,-42.4 c 0,-7.155 8.0825,-15.105 15.5025,-15.105 1.7225,0 2.65,0.1325 3.445,0.265 l 0,0.265 c -2.12,0.265 -3.975,2.65 -3.975,6.4925 0,4.1075 3.3125,7.155 8.3475,7.155 4.505,0 7.685,-3.3125 7.685,-8.8775 0,-7.42 -5.565,-11.395 -13.6475,-11.395 -9.6725,0 -14.4425,6.2275 -17.0925,11.7925 l -0.6625,0 0,-11.7925 -21.3325,4.1075 0,4.77 9.9375,1.855 0,52.8675 -9.9375,0 0,6.36 z"
         style="font-style:normal;font-variant:normal;font-weight:normal;font-stretch:normal;font-size:132.5px;font-family:'IBM Plex Serif';-inkscape-font-specification:'IBM Plex Serif';fill:#f5f7fa;fill-opacity:1"
         id="path4304" />
      <path
         d="m 599.80475,795.31314 c 15.5025,0 24.7775,-8.8775 24.7775,-20.14 0,-11.66 -7.0225,-18.02 -20.935,-20.935 l -7.685,-1.59 c -6.89,-1.4575 -11.2625,-5.6975 -11.2625,-11.66 0,-7.0225 5.3,-10.335 14.31,-10.335 10.2025,0 14.84,3.445 14.84,10.2025 l 0,5.1675 8.6125,0 0,-20.67 -8.6125,0 0,5.4325 -0.53,0 c -1.7225,-4.24 -7.5525,-7.0225 -15.9,-7.0225 -14.4425,0 -23.585,7.42 -23.585,19.4775 0,11.5275 6.89,18.285 20.2725,21.0675 l 8.215,1.7225 c 7.155,1.4575 11.13,5.565 11.13,11.395 0,7.8175 -5.83,10.865 -15.9,10.865 -11.13,0 -15.37,-5.1675 -15.37,-12.5875 l 0,-2.65 -8.6125,0 0,20.67 8.6125,0 0,-6.625 0.53,0 c 1.9875,4.1075 8.745,8.215 17.0925,8.215 z"
         style="font-style:normal;font-variant:normal;font-weight:normal;font-stretch:normal;font-size:132.5px;font-family:'IBM Plex Serif';-inkscape-font-specification:'IBM Plex Serif';fill:#f5f7fa;fill-opacity:1"
         id="path4306" />
      <path
         d="m 690.23186,794.51814 c 6.36,0 13.3825,-1.325 16.43,-3.0475 l 0,-4.6375 -17.8875,0 0,-54.59 17.8875,0 0,-6.89 -17.8875,0 0,-17.755 -6.36,0 -3.3125,11.7925 c -1.1925,3.975 -2.2525,5.9625 -9.9375,5.9625 l -1.06,0 0,6.89 8.8775,0 0,49.025 c 0,9.6725 3.18,13.25 13.25,13.25 z"
         style="font-style:normal;font-variant:normal;font-weight:normal;font-stretch:normal;font-size:132.5px;font-family:'IBM Plex Serif';-inkscape-font-specification:'IBM Plex Serif';fill:#f5f7fa;fill-opacity:1"
         id="path4308" />
      <path
         d="m 778.83502,795.31314 c 10.9975,0 18.02,-6.4925 20.14,-11.925 l 0.53,0 0,11.925 21.3325,-4.1075 0,-4.77 -9.9375,-1.855 0,-60.8175 -21.73,4.1075 0,4.77 9.9375,1.855 0,39.75 c 0,8.8775 -8.3475,13.1175 -16.0325,13.1175 -10.9975,0 -16.0325,-6.2275 -16.0325,-18.815 l 0,-44.785 -21.73,4.1075 0,4.77 9.9375,1.855 0,34.98 c 0,17.225 6.625,25.8375 23.585,25.8375 z"
         style="font-style:normal;font-variant:normal;font-weight:normal;font-stretch:normal;font-size:132.5px;font-family:'IBM Plex Serif';-inkscape-font-specification:'IBM Plex Serif';fill:#f5f7fa;fill-opacity:1"
         id="path4310" />
      <path
         d="m 888.17237,793.72314 8.8775,0 24.645,-62.01 7.0225,0 0,-6.36 -24.7775,0 0,6.36 9.4075,0 -17.8875,49.025 -0.53,0 -18.55,-49.025 9.4075,0 0,-6.36 -29.2825,0 0,6.36 7.0225,0 24.645,62.01 z"
         style="font-style:normal;font-variant:normal;font-weight:normal;font-stretch:normal;font-size:132.5px;font-family:'IBM Plex Serif';-inkscape-font-specification:'IBM Plex Serif';fill:#f5f7fa;fill-opacity:1"
         id="path4312" />
      <path
         d="m 985.32799,793.72314 11.395,0 16.16501,-52.735 0.53,0 14.575,52.735 11.5275,0 17.49,-62.01 7.0225,0 0,-6.36 -23.4525,0 0,6.36 9.4075,0 -13.78,50.7475 -0.53,0 -15.2375,-57.1075 -9.9375,0 -16.56251,57.1075 -0.53,0 -13.6475,-50.7475 9.4075,0 0,-6.36 -28.355,0 0,6.36 7.0225,0 17.49,62.01 z"
         style="font-style:normal;font-variant:normal;font-weight:normal;font-stretch:normal;font-size:132.5px;font-family:'IBM Plex Serif';-inkscape-font-specification:'IBM Plex Serif';fill:#f5f7fa;fill-opacity:1"
         id="path4314" />
      <path
         d="m 1099.986,793.72314 24.7775,0 0,-6.36 -8.215,0 14.84,-21.465 0.53,0 14.4425,21.465 -7.685,0 0,6.36 29.0175,0 0,-6.36 -6.89,0 -20.5375,-29.15 19.08,-26.5 7.685,0 0,-6.36 -24.645,0 0,6.36 8.215,0 -13.9125,21.0675 -0.53,0 -14.575,-21.0675 7.685,0 0,-6.36 -28.885,0 0,6.36 6.89,0 20.5375,28.7525 -20.14,26.8975 -7.685,0 0,6.36 z"
         style="font-style:normal;font-variant:normal;font-weight:normal;font-stretch:normal;font-size:132.5px;font-family:'IBM Plex Serif';-inkscape-font-specification:'IBM Plex Serif';fill:#f5f7fa;fill-opacity:1"
         id="path4316" />
      <path
         d="m 1219.3271,821.81314 c 9.4075,0 15.7675,-7.155 19.4775,-16.5625 l 29.15,-73.5375 7.0225,0 0,-6.36 -24.7775,0 0,6.36 9.4075,0 -17.755,49.025 -0.53,0 -18.6825,-49.025 9.4075,0 0,-6.36 -29.2825,0 0,6.36 7.0225,0 25.8375,64.925 -2.915,7.42 c -3.445,8.745 -8.0825,12.455 -12.72,12.455 -1.4575,0 -2.385,-0.1325 -3.445,-0.53 l 0,-0.3975 c 1.7225,-0.53 3.71,-2.5175 3.71,-5.565 0,-4.24 -2.5175,-6.89 -6.7575,-6.89 -4.9025,0 -7.5525,3.18 -7.5525,7.95 0,6.36 4.1075,10.7325 13.3825,10.7325 z"
         style="font-style:normal;font-variant:normal;font-weight:normal;font-stretch:normal;font-size:132.5px;font-family:'IBM Plex Serif';-inkscape-font-specification:'IBM Plex Serif';fill:#f5f7fa;fill-opacity:1"
         id="path4318" />
      <path
         d="m 1312.6403,793.72314 55.7825,0 0,-20.67 -8.6125,0 0,14.045 -31.9325,0 39.485,-56.975 0,-4.77 -53.6625,0 0,20.67 8.6125,0 0,-14.045 29.8125,0 -39.485,56.975 0,4.77 z"
         style="font-style:normal;font-variant:normal;font-weight:normal;font-stretch:normal;font-size:132.5px;font-family:'IBM Plex Serif';-inkscape-font-specification:'IBM Plex Serif';fill:#f5f7fa;fill-opacity:1"
         id="path4320" />
    </g>
    <g
       style="font-style:normal;font-weight:normal;font-size:180px;line-height:125%;font-family:sans-serif;text-align:center;letter-spacing:0px;word-spacing:0px;text-anchor:middle;fill:#f5f7fa;fill-opacity:1;stroke:none;stroke-width:1px;stroke-linecap:butt;stroke-linejoin:miter;stroke-opacity:1"
       id="text4185">
      <path
         d="m 167.62238,989.7937 c -16.5,0 -22.35,-13.65 -22.35,-34.65 l 0,-23.4 c 0,-21 5.85,-34.65 22.35,-34.65 16.5,0 22.35,13.65 22.35,34.65 l 0,23.4 c 0,21 -5.85,34.65 -22.35,34.65 z m 0,7.8 c 24,0 37.65,-19.5 37.65,-54.15 0,-34.65 -13.65,-54.15 -37.65,-54.15 -24,0 -37.65,19.5 -37.65,54.15 0,34.65 13.65,54.15 37.65,54.15 z"
         style="font-style:normal;font-variant:normal;font-weight:normal;font-stretch:normal;font-size:150px;font-family:'IBM Plex Serif';-inkscape-font-specification:'IBM Plex Serif';fill:#f5f7fa;fill-opacity:1"
         id="path4323" />
      <path
         d="m 260.47706,995.7937 63.6,0 0,-7.2 -24.6,0 0,-97.5 -12.3,0 -30,15.9 2.4,6.9 26.1,-11.7 0,86.4 -25.2,0 0,7.2 z"
         style="font-style:normal;font-variant:normal;font-weight:normal;font-stretch:normal;font-size:150px;font-family:'IBM Plex Serif';-inkscape-font-specification:'IBM Plex Serif';fill:#f5f7fa;fill-opacity:1"
         id="path4325" />
      <path
         d="m 376.82316,995.7937 68.7,0 0,-26.55 -7.8,0 0,13.95 -48.9,0 0,-0.6 27.45,-23.4 c 13.65,-11.55 25.05,-22.95 25.05,-41.25 0,-17.7 -12.75,-28.65 -33,-28.65 -16.95,0 -30.15,9 -30.15,19.35 0,6.45 3.75,10.5 9.45,10.5 5.7,0 9.6,-4.05 9.6,-9.75 0,-4.5 -3,-7.95 -5.55,-9 l 0,-0.3 c 3,-1.65 7.8,-3.15 14.4,-3.15 12.3,0 19.95,7.8 19.95,20.1 l 0,3.15 c 0,12.15 -5.7,21.75 -15.6,31.65 l -33.6,33.45 0,10.5 z"
         style="font-style:normal;font-variant:normal;font-weight:normal;font-stretch:normal;font-size:150px;font-family:'IBM Plex Serif';-inkscape-font-specification:'IBM Plex Serif';fill:#f5f7fa;fill-opacity:1"
         id="path4327" />
      <path
         d="m 533.72784,997.5937 c 22.5,0 37.95,-11.4 37.95,-30.45 0,-15.75 -12.9,-24.15 -24.45,-26.4 l 0,-0.6 c 11.4,-2.85 22.2,-10.95 22.2,-24.45 0,-17.85 -15.45,-26.4 -33.9,-26.4 -18.45,0 -30,9.9 -30,19.35 0,6.45 3.75,10.5 9.45,10.5 5.7,0 9.6,-4.05 9.6,-9.75 0,-4.2 -2.7,-7.8 -5.55,-9 l 0,-0.3 c 3.15,-1.8 8.55,-3.15 15.6,-3.15 11.85,0 19.5,5.55 19.5,16.65 l 0,5.85 c 0,10.05 -7.5,17.55 -21.9,17.55 l -11.1,0 0,8.25 12,0 c 15.15,0 23.25,7.2 23.25,19.5 l 0,5.1 c 0,12.9 -9.15,20.1 -24.6,20.1 -7.2,0 -12.6,-1.35 -15.75,-3.15 l 0,-0.3 c 2.55,-1.05 5.55,-4.65 5.55,-9 0,-5.7 -3.75,-9.75 -9.45,-9.75 -5.7,0 -9.6,4.05 -9.6,10.5 0,9.45 12,19.35 31.2,19.35 z"
         style="font-style:normal;font-variant:normal;font-weight:normal;font-stretch:normal;font-size:150px;font-family:'IBM Plex Serif';-inkscape-font-specification:'IBM Plex Serif';fill:#f5f7fa;fill-opacity:1"
         id="path4329" />
      <path
         d="m 672.63253,995.7937 13.35,0 0,-24.15 14.85,0 0,-10.35 -14.85,0 0,-70.2 -12.45,0 -49.5,71.25 0,9.3 48.6,0 0,24.15 z m -0.6,-89.4 0.6,0 0,54.9 -39.15,0 38.55,-54.9 z"
         style="font-style:normal;font-variant:normal;font-weight:normal;font-stretch:normal;font-size:150px;font-family:'IBM Plex Serif';-inkscape-font-specification:'IBM Plex Serif';fill:#f5f7fa;fill-opacity:1"
         id="path4331" />
      <path
         d="m 783.03722,997.5937 c 22.95,0 38.85,-13.65 38.85,-33 0,-22.65 -14.7,-33.45 -33,-33.45 -11.25,0 -19.35,6.45 -22.95,13.35 l -0.6,0 2.7,-39.9 49.05,0 0,-13.5 -55.65,0 -3.75,57.6 8.7,1.8 c 3,-4.95 9.15,-9.75 18.15,-9.75 14.25,0 22.05,8.85 22.05,23.25 l 0,3.15 c 0,13.95 -7.95,22.8 -24.45,22.8 -7.05,0 -12.45,-1.35 -15.6,-3.15 l 0,-0.6 c 3.15,-1.2 5.55,-4.65 5.55,-8.85 0,-5.55 -3.75,-9.6 -9.45,-9.6 -5.7,0 -9.6,4.05 -9.6,10.5 0,9.45 11.55,19.35 30,19.35 z"
         style="font-style:normal;font-variant:normal;font-weight:normal;font-stretch:normal;font-size:150px;font-family:'IBM Plex Serif';-inkscape-font-specification:'IBM Plex Serif';fill:#f5f7fa;fill-opacity:1"
         id="path4333" />
      <path
         d="m 912.79191,997.5937 c 20.1,0 35.4,-13.8 35.4,-33.9 0,-19.8 -12,-33 -31.05,-33 -13.65,0 -21.3,7.95 -24.45,14.7 l -0.9,-0.15 c 2.1,-24.6 18.6,-44.55 43.95,-49.35 l -1.95,-6.6 c -31.95,4.95 -56.7,28.8 -56.7,65.85 0,26.85 12.75,42.45 35.7,42.45 z m -0.15,-7.8 c -14.85,0 -20.7,-10.5 -20.7,-24 l 0,-2.55 c 0,-13.5 5.85,-24 20.7,-24 14.85,0 20.7,10.5 20.7,24 l 0,2.55 c 0,13.5 -5.85,24 -20.7,24 z"
         style="font-style:normal;font-variant:normal;font-weight:normal;font-stretch:normal;font-size:150px;font-family:'IBM Plex Serif';-inkscape-font-specification:'IBM Plex Serif';fill:#f5f7fa;fill-opacity:1"
         id="path4335" />
      <path
         d="m 1020.6466,995.7937 11.4,0 39.9,-94.95 0,-9.75 -69.3,0 0,30.15 7.8,0 0,-16.65 51.75,0 -41.55,91.2 z"
         style="font-style:normal;font-variant:normal;font-weight:normal;font-stretch:normal;font-size:150px;font-family:'IBM Plex Serif';-inkscape-font-specification:'IBM Plex Serif';fill:#f5f7fa;fill-opacity:1"
         id="path4337" />
      <path
         d="m 1162.2513,997.5937 c 22.8,0 36.15,-12.15 36.15,-29.85 0,-15.3 -12.15,-24 -24.15,-25.95 l 0,-1.2 c 10.8,-1.5 21,-11.85 21,-24.45 0,-16.5 -13.35,-26.85 -33,-26.85 -19.65,0 -33,10.35 -33,26.85 0,12.6 10.2,22.95 21,24.45 l 0,1.2 c -12,1.95 -24.15,10.65 -24.15,25.95 0,17.7 13.35,29.85 36.15,29.85 z m 0,-7.5 c -13.95,0 -21.45,-9.45 -21.45,-21.3 l 0,-3 c 0,-11.85 7.5,-21.3 21.45,-21.3 13.95,0 21.45,9.45 21.45,21.3 l 0,3 c 0,11.85 -7.5,21.3 -21.45,21.3 z m 0,-52.95 c -12.9,0 -18.3,-9.45 -18.3,-19.5 l 0,-1.65 c 0,-10.05 5.4,-19.5 18.3,-19.5 12.9,0 18.3,9.45 18.3,19.5 l 0,1.65 c 0,10.05 -5.4,19.5 -18.3,19.5 z"
         style="font-style:normal;font-variant:normal;font-weight:normal;font-stretch:normal;font-size:150px;font-family:'IBM Plex Serif';-inkscape-font-specification:'IBM Plex Serif';fill:#f5f7fa;fill-opacity:1"
         id="path4339" />
      <path
         d="m 1265.906,997.5937 c 31.95,-4.95 56.7,-28.8 56.7,-65.85 0,-26.85 -12.75,-42.45 -35.7,-42.45 -20.1,0 -35.4,13.8 -35.4,33.9 0,19.8 12,33 31.05,33 13.65,0 21.3,-7.95 24.45,-14.7 l 0.9,0.15 c -2.1,24.6 -18.6,44.55 -43.95,49.35 l 1.95,6.6 z m 21.15,-49.95 c -14.85,0 -20.7,-10.5 -20.7,-24 l 0,-2.55 c 0,-13.5 5.85,-24 20.7,-24 14.85,0 20.7,10.5 20.7,24 l 0,2.55 c 0,13.5 -5.85,24 -20.7,24 z"
         style="font-style:normal;font-variant:normal;font-weight:normal;font-stretch:normal;font-size:150px;font-family:'IBM Plex Serif';-inkscape-font-specification:'IBM Plex Serif';fill:#f5f7fa;fill-opacity:1"
         id="path4341" />
    </g>
    <g
       style="font-style:normal;font-weight:normal;font-size:180px;line-height:125%;font-family:sans-serif;text-align:center;letter-spacing:0px;word-spacing:0px;text-anchor:middle;fill:#000000;fill-opacity:1;stroke:none;stroke-width:1px;stroke-linecap:butt;stroke-linejoin:miter;stroke-opacity:1"
       id="text4445" />
  </g>
</svg>
