<?xml version="1.0" encoding="UTF-8" standalone="no"?>
<!-- Created with Inkscape (http://www.inkscape.org/) -->

<svg
   xmlns:dc="http://purl.org/dc/elements/1.1/"
   xmlns:cc="http://creativecommons.org/ns#"
   xmlns:rdf="http://www.w3.org/1999/02/22-rdf-syntax-ns#"
   xmlns:svg="http://www.w3.org/2000/svg"
   xmlns="http://www.w3.org/2000/svg"
   xmlns:sodipodi="http://sodipodi.sourceforge.net/DTD/sodipodi-0.dtd"
   xmlns:inkscape="http://www.inkscape.org/namespaces/inkscape"
   width="396mm"
   height="468mm"
   viewBox="0 0 1403.1496 1658.2677"
   id="svg2"
   version="1.1"
   inkscape:version="0.91 r13725"
   sodipodi:docname="IBM Plex Mono sample.svg">
  <defs
     id="defs4" />
  <sodipodi:namedview
     id="base"
     pagecolor="#ffffff"
     bordercolor="#666666"
     borderopacity="1.0"
     inkscape:pageopacity="0.0"
     inkscape:pageshadow="2"
     inkscape:zoom="0.24748737"
     inkscape:cx="-391.56632"
     inkscape:cy="795.28304"
     inkscape:document-units="px"
     inkscape:current-layer="layer1"
     showgrid="false"
     inkscape:window-width="1366"
     inkscape:window-height="709"
     inkscape:window-x="0"
     inkscape:window-y="0"
     inkscape:window-maximized="1"
     inkscape:showpageshadow="false" />
  <metadata
     id="metadata7">
    <rdf:RDF>
      <cc:Work
         rdf:about="">
        <dc:format>image/svg+xml</dc:format>
        <dc:type
           rdf:resource="http://purl.org/dc/dcmitype/StillImage" />
        <dc:title></dc:title>
      </cc:Work>
    </rdf:RDF>
  </metadata>
  <g
     inkscape:label="Layer 1"
     inkscape:groupmode="layer"
     id="layer1"
     transform="translate(0,605.90551)">
    <g
       style="font-style:normal;font-weight:normal;font-size:180px;line-height:125%;font-family:sans-serif;text-align:center;letter-spacing:0px;word-spacing:0px;text-anchor:middle;fill:#214152;fill-opacity:1;stroke:none;stroke-width:1px;stroke-linecap:butt;stroke-linejoin:miter;stroke-opacity:1"
       id="text3336">
      <path
         d="m 107.26991,-454.7854 0,-11.725 -30.45,0 0,-98.7 30.45,0 0,-11.725 -75.6,0 0,11.725 30.45,0 0,98.7 -30.45,0 0,11.725 75.6,0 z"
         style="font-style:normal;font-variant:normal;font-weight:normal;font-stretch:normal;font-size:175px;font-family:'IBM Plex Mono';-inkscape-font-specification:'IBM Plex Mono'"
         id="path4152" />
      <path
         d="m 137.30155,-454.7854 46.725,0 c 18.9,0 32.9,-15.4 32.9,-35.175 0,-16.975 -9.975,-25.55 -23.625,-28.7 l 0,-0.525 c 11.2,-3.5 19.075,-11.725 19.075,-26.25 0,-19.075 -12.775,-31.5 -33.6,-31.5 l -41.475,0 0,122.15 z m 14.7,-12.775 0,-44.275 27.65,0 c 13.475,0 21.7,6.3 21.7,18.55 l 0,7.175 c 0,12.425 -8.225,18.55 -21.7,18.55 l -27.65,0 z m 0,-56.35 0,-40.25 25.2,0 c 12.25,0 19.775,5.6 19.775,16.8 l 0,6.825 c 0,11.2 -7.525,16.625 -19.775,16.625 l -25.2,0 z"
         style="font-style:normal;font-variant:normal;font-weight:normal;font-stretch:normal;font-size:175px;font-family:'IBM Plex Mono';-inkscape-font-specification:'IBM Plex Mono'"
         id="path4154" />
      <path
         d="m 306.45819,-454.7854 13.475,0 0,-122.15 -18.2,0 -21.525,53.9 -1.05,0 -21.525,-53.9 -18.9,0 0,122.15 13.475,0 0,-61.25 0,-38.675 1.4,0 25.725,62.825 25.725,-62.825 1.4,0 0,38.675 0,61.25 z"
         style="font-style:normal;font-variant:normal;font-weight:normal;font-stretch:normal;font-size:175px;font-family:'IBM Plex Mono';-inkscape-font-specification:'IBM Plex Mono'"
         id="path4156" />
      <path
         d="m 467.14647,-454.7854 0,-51.8 29.75,0 c 22.575,0 34.825,-13.125 34.825,-35.175 0,-22.05 -12.25,-35.175 -34.825,-35.175 l -44.45,0 0,122.15 14.7,0 z m 0,-109.375 29.4,0 c 12.25,0 19.6,6.475 19.6,17.85 l 0,9.1 c 0,11.375 -7.35,17.85 -19.6,17.85 l -29.4,0 0,-44.8 z"
         style="font-style:normal;font-variant:normal;font-weight:normal;font-stretch:normal;font-size:175px;font-family:'IBM Plex Mono';-inkscape-font-specification:'IBM Plex Mono'"
         id="path4158" />
      <path
         d="m 555.62811,-454.7854 77,0 0,-11.9 -31.5,0 0,-117.6 -45.5,0 0,11.9 31.5,0 0,105.7 -31.5,0 0,11.9 z"
         style="font-style:normal;font-variant:normal;font-weight:normal;font-stretch:normal;font-size:175px;font-family:'IBM Plex Mono';-inkscape-font-specification:'IBM Plex Mono'"
         id="path4160" />
      <path
         d="m 700.63475,-452.6854 c 17.85,0 30.8,-8.75 36.225,-20.825 l -10.325,-7 c -4.725,9.8 -13.825,15.75 -25.9,15.75 -16.975,0 -27.65,-11.55 -27.65,-27.475 l 0,-4.2 66.85,0 0,-6.65 c 0,-25.55 -15.75,-44.1 -40.075,-44.1 -24.5,0 -41.475,18.55 -41.475,47.425 0,28.525 16.45,47.075 42.35,47.075 z m -0.875,-82.95 c 14.875,0 25.025,10.85 25.025,26.775 l 0,1.925 -51.8,0 0,-1.225 c 0,-15.75 11.375,-27.475 26.775,-27.475 z"
         style="font-style:normal;font-variant:normal;font-weight:normal;font-stretch:normal;font-size:175px;font-family:'IBM Plex Mono';-inkscape-font-specification:'IBM Plex Mono'"
         id="path4162" />
      <path
         d="m 778.26639,-454.7854 14.7,-21.175 9.975,-14.35 0.7,0 10.325,14.35 15.225,21.175 16.8,0 -33.95,-46.025 33.075,-44.275 -16.1,0 -13.475,19.075 -10.5,15.05 -0.7,0 -10.85,-15.05 -13.65,-19.075 -16.8,0 32.725,44.45 -33.6,45.85 16.1,0 z"
         style="font-style:normal;font-variant:normal;font-weight:normal;font-stretch:normal;font-size:175px;font-family:'IBM Plex Mono';-inkscape-font-specification:'IBM Plex Mono'"
         id="path4164" />
      <path
         d="m 1040.9797,-454.7854 13.475,0 0,-122.15 -18.2,0 -21.525,53.9 -1.05,0 -21.52502,-53.9 -18.9,0 0,122.15 13.475,0 0,-61.25 0,-38.675 1.4,0 25.72502,62.825 25.725,-62.825 1.4,0 0,38.675 0,61.25 z"
         style="font-style:normal;font-variant:normal;font-weight:normal;font-stretch:normal;font-size:175px;font-family:'IBM Plex Mono';-inkscape-font-specification:'IBM Plex Mono'"
         id="path4166" />
      <path
         d="m 1118.7863,-452.6854 c 25.375,0 40.95,-18.55 40.95,-47.25 0,-28.7 -15.575,-47.25 -40.95,-47.25 -25.375,0 -40.95,18.55 -40.95,47.25 0,28.7 15.575,47.25 40.95,47.25 z m 0,-12.075 c -15.575,0 -26.075,-9.275 -26.075,-28.7 l 0,-12.95 c 0,-19.425 10.5,-28.7 26.075,-28.7 15.575,0 26.075,9.275 26.075,28.7 l 0,12.95 c 0,19.425 -10.5,28.7 -26.075,28.7 z"
         style="font-style:normal;font-variant:normal;font-weight:normal;font-stretch:normal;font-size:175px;font-family:'IBM Plex Mono';-inkscape-font-specification:'IBM Plex Mono'"
         id="path4168" />
      <path
         d="m 1202.368,-454.7854 0,-62.65 c 0,-11.9 11.2,-17.325 22.4,-17.325 13.825,0 21.35,8.05 21.35,24.5 l 0,55.475 14,0 0,-57.925 c 0,-21.875 -12.425,-34.475 -31.325,-34.475 -14.875,0 -21.875,7.875 -25.725,16.8 l -0.7,0 0,-14.7 -14,0 0,90.3 14,0 z"
         style="font-style:normal;font-variant:normal;font-weight:normal;font-stretch:normal;font-size:175px;font-family:'IBM Plex Mono';-inkscape-font-specification:'IBM Plex Mono'"
         id="path4170" />
      <path
         d="m 1328.6496,-452.6854 c 25.375,0 40.95,-18.55 40.95,-47.25 0,-28.7 -15.575,-47.25 -40.95,-47.25 -25.375,0 -40.95,18.55 -40.95,47.25 0,28.7 15.575,47.25 40.95,47.25 z m 0,-12.075 c -15.575,0 -26.075,-9.275 -26.075,-28.7 l 0,-12.95 c 0,-19.425 10.5,-28.7 26.075,-28.7 15.575,0 26.075,9.275 26.075,28.7 l 0,12.95 c 0,19.425 -10.5,28.7 -26.075,28.7 z"
         style="font-style:normal;font-variant:normal;font-weight:normal;font-stretch:normal;font-size:175px;font-family:'IBM Plex Mono';-inkscape-font-specification:'IBM Plex Mono'"
         id="path4172" />
    </g>
    <g
       style="font-style:normal;font-weight:normal;font-size:180px;line-height:125%;font-family:sans-serif;text-align:center;letter-spacing:0px;word-spacing:0px;text-anchor:middle;fill:#000000;fill-opacity:1;stroke:none;stroke-width:1px;stroke-linecap:butt;stroke-linejoin:miter;stroke-opacity:1"
       id="text4142">
      <path
         d="m 1291.7836,66.453285 0,-43.75 -45,0 0,-177.499995 c 0,-68.125 -48.125,-108.75 -123.75,-108.75 -65.625,0 -106.875,31.25 -123.12503,65 l 33.75003,25 c 16.875,-29.375 43.125,-47.5 86.25,-47.5 48.75,0 76.875,24.375 76.875,71.25 l 0,31.875 -68.75,0 c -96.875,0 -138.75003,34.374995 -138.75003,93.749995 0,60.625 43.12503,98.125 110.62503,98.125 52.5,0 83.125,-23.125 96.875,-60 l 3.125,0 c 3.75,30 18.75,52.5 57.5,52.5 l 34.375,0 z m -183.125,-34.375 c -41.25,0 -66.875,-17.5 -66.875,-50.625 l 0,-13.125 c 0,-31.25 26.875,-48.75 86.25,-48.75 l 68.75,0 0,53.125 c 0,33.1250002 -36.875,59.375 -88.125,59.375 z"
         style="font-style:normal;font-variant:normal;font-weight:normal;font-stretch:normal;font-size:625px;font-family:'IBM Plex Mono';-inkscape-font-specification:'IBM Plex Mono';fill:#214152;fill-opacity:1"
         id="path4175" />
    </g>
    <g
       style="font-style:normal;font-weight:normal;font-size:180px;line-height:125%;font-family:sans-serif;text-align:center;letter-spacing:0px;word-spacing:0px;text-anchor:middle;fill:#214152;fill-opacity:1;stroke:none;stroke-width:1px;stroke-linecap:butt;stroke-linejoin:miter;stroke-opacity:1"
       id="text4146">
      <path
         d="m 115.02115,-131.53661 -34.775001,-113.425 -18.0375,0 -34.775,113.425 14.1375,0 9.5875,-32.3375 39.8125,0 9.587501,32.3375 14.4625,0 z m -27.300001,-44.2 -33.3125,0 15.925,-54.7625 1.4625,0 15.925,54.7625 z"
         style="font-style:normal;font-variant:normal;font-weight:normal;font-stretch:normal;font-size:162.5px;font-family:'IBM Plex Mono';-inkscape-font-specification:'IBM Plex Mono'"
         id="path4178" />
      <path
         d="m 209.20767,-131.53661 0,-11.375 -11.7,0 0,-46.15 c 0,-17.7125 -12.5125,-28.275 -32.175,-28.275 -17.0625,0 -27.7875,8.125 -32.0125,16.9 l 8.775,6.5 c 4.3875,-7.6375 11.2125,-12.35 22.425,-12.35 12.675,0 19.9875,6.3375 19.9875,18.525 l 0,8.2875 -17.875,0 c -25.1875,0 -36.075,8.9375 -36.075,24.375 0,15.7625 11.2125,25.5125 28.7625,25.5125 13.65,0 21.6125,-6.0125 25.1875,-15.6 l 0.8125,0 c 0.975,7.8 4.875,13.65 14.95,13.65 l 8.9375,0 z m -47.6125,-8.9375 c -10.725,0 -17.3875,-4.55 -17.3875,-13.1625 l 0,-3.4125 c 0,-8.125 6.9875,-12.675 22.425,-12.675 l 17.875,0 0,13.8125 c 0,8.6125 -9.5875,15.4375 -22.9125,15.4375 z"
         style="font-style:normal;font-variant:normal;font-weight:normal;font-stretch:normal;font-size:162.5px;font-family:'IBM Plex Mono';-inkscape-font-specification:'IBM Plex Mono'"
         id="path4180" />
      <path
         d="m 399.20572,-131.53661 0,-11.8625 -56.225,0 0,-39.65 54.275,0 0,-11.8625 -54.275,0 0,-38.1875 56.225,0 0,-11.8625 -69.875,0 0,113.425 69.875,0 z"
         style="font-style:normal;font-variant:normal;font-weight:normal;font-stretch:normal;font-size:162.5px;font-family:'IBM Plex Mono';-inkscape-font-specification:'IBM Plex Mono'"
         id="path4182" />
      <path
         d="m 462.35474,-129.58661 c 16.575,0 28.6,-8.125 33.6375,-19.3375 l -9.5875,-6.5 c -4.3875,9.1 -12.8375,14.625 -24.05,14.625 -15.7625,0 -25.675,-10.725 -25.675,-25.5125 l 0,-3.9 62.075,0 0,-6.175 c 0,-23.725 -14.625,-40.95 -37.2125,-40.95 -22.75,0 -38.5125,17.225 -38.5125,44.0375 0,26.4875 15.275,43.7125 39.325,43.7125 z m -0.8125,-77.025 c 13.8125,0 23.2375,10.075 23.2375,24.8625 l 0,1.7875 -48.1,0 0,-1.1375 c 0,-14.625 10.5625,-25.5125 24.8625,-25.5125 z"
         style="font-style:normal;font-variant:normal;font-weight:normal;font-stretch:normal;font-size:162.5px;font-family:'IBM Plex Mono';-inkscape-font-specification:'IBM Plex Mono'"
         id="path4184" />
      <path
         d="m 635.29029,-179.96161 18.0375,0 27.625,48.425 15.275,0 -28.925,-49.075 c 18.0375,-1.7875 27.95,-13.4875 27.95,-31.6875 0,-20.475 -11.375,-32.6625 -32.3375,-32.6625 l -41.275,0 0,113.425 13.65,0 0,-48.425 z m 0,-11.5375 0,-41.6 27.3,0 c 11.375,0 18.2,6.0125 18.2,16.575 l 0,8.45 c 0,10.5625 -6.825,16.575 -18.2,16.575 l -27.3,0 z"
         style="font-style:normal;font-variant:normal;font-weight:normal;font-stretch:normal;font-size:162.5px;font-family:'IBM Plex Mono';-inkscape-font-specification:'IBM Plex Mono'"
         id="path4186" />
      <path
         d="m 716.96431,-131.53661 70.0375,0 0,-11.05 -32.5,0 0,-45.9875 c 0,-7.9625 8.775,-13.8125 23.4,-13.8125 l 17.3875,0 0,-13 -14.7875,0 c -13.975,0 -21.9375,6.9875 -25.1875,14.95 l -0.8125,0 0,-14.95 -37.5375,0 0,11.05 24.5375,0 0,61.75 -24.5375,0 0,11.05 z"
         style="font-style:normal;font-variant:normal;font-weight:normal;font-stretch:normal;font-size:162.5px;font-family:'IBM Plex Mono';-inkscape-font-specification:'IBM Plex Mono'"
         id="path4188" />
    </g>
    <g
       style="font-style:normal;font-weight:normal;font-size:180px;line-height:125%;font-family:sans-serif;text-align:center;letter-spacing:0px;word-spacing:0px;text-anchor:middle;fill:#214152;fill-opacity:1;stroke:none;stroke-width:1px;stroke-linecap:butt;stroke-linejoin:miter;stroke-opacity:1"
       id="text4150">
      <path
         d="m 108.19615,54.331463 -15.762501,-113.425 -17.875,0 -53.625,113.425 14.3,0 14.95,-32.3375 39.975,0 4.0625,32.3375 13.975001,0 z m -19.337501,-44.2 -33.6375,0 25.1875,-55.575 1.4625,0 6.9875,55.575 z"
         style="font-style:italic;font-variant:normal;font-weight:normal;font-stretch:normal;font-size:162.5px;font-family:'IBM Plex Mono';-inkscape-font-specification:'IBM Plex Mono Italic'"
         id="path4191" />
      <path
         d="m 194.74517,54.331463 13.975,-83.85 -12.675,0 -2.4375,14.625 -0.4875,0 c -3.575,-10.8875 -12.1875,-16.575 -24.5375,-16.575 -29.575,0 -39.65,32.8249999 -39.65,55.25 0,21.45 9.2625,32.5 26.1625,32.5 14.7875,0 23.2375,-8.6125 29.7375,-21.775 l 0.4875,0 -3.25,19.825 12.675,0 z m -35.2625,-9.2625 c -11.7,0 -17.7125,-7.475 -17.7125,-19.9875 0,-2.1125 0.1625,-4.3875 0.65,-7.3125 l 1.95,-11.7000001 c 2.6,-15.6 11.8625,-26.3249999 27.95,-26.3249999 12.5125,0 21.125,6.6625 19.175,18.3624999 l -3.0875,18.5250001 c -1.3,7.8 -5.0375,14.4625 -9.2625,19.175 -5.85,6.5 -12.675,9.2625 -19.6625,9.2625 z"
         style="font-style:italic;font-variant:normal;font-weight:normal;font-stretch:normal;font-size:162.5px;font-family:'IBM Plex Mono';-inkscape-font-specification:'IBM Plex Mono Italic'"
         id="path4193" />
      <path
         d="m 392.21822,54.331463 1.95,-11.7 -56.55,0 6.6625,-39.9750001 54.4375,0 1.95,-11.7 -54.4375,0 6.5,-38.3499999 56.225,0 1.95,-11.7 -69.55,0 -19.0125,113.425 69.875,0 z"
         style="font-style:italic;font-variant:normal;font-weight:normal;font-stretch:normal;font-size:162.5px;font-family:'IBM Plex Mono';-inkscape-font-specification:'IBM Plex Mono Italic'"
         id="path4195" />
      <path
         d="m 457.15474,56.281463 c 17.7125,0 29.0875,-8.45 38.5125,-23.8875 l -8.9375,-5.525 c -9.425,13.325 -16.4125,18.525 -28.4375,18.525 -17.55,0 -20.9625,-10.8875 -20.9625,-22.5875 0,-0.325 0,-2.1125 0.1625,-3.7375 53.4625,-1.4625 61.1,-16.0875001 61.1,-27.9500001 0,-14.6249999 -12.025,-22.5874999 -28.4375,-22.5874999 -26.975,0 -46.15,21.45 -46.15,51.8375 0,24.05 12.025,35.9125 33.15,35.9125 z m 11.8625,-77.1875 c 12.1875,0 16.575,5.6875 16.575,12.5124999 0,8.12499996 -6.175,17.3875 -47.125,18.6875001 l 0.1625,-1.6250001 c 2.4375,-19.0124999 13.4875,-29.5749999 30.3875,-29.5749999 z"
         style="font-style:italic;font-variant:normal;font-weight:normal;font-stretch:normal;font-size:162.5px;font-family:'IBM Plex Mono';-inkscape-font-specification:'IBM Plex Mono Italic'"
         id="path4197" />
      <path
         d="m 636.10279,5.7439629 18.525,0 19.3375,48.5875001 14.4625,0 -20.6375,-49.0750001 c 21.45,-1.4625 34.125,-15.1125 34.125,-37.6999999 0,-15.7625 -8.775,-26.65 -27.7875,-26.65 l -40.4625,0 -19.0125,113.425 13.325,0 8.125,-48.5875001 z m 1.95,-11.375 6.9875,-41.7624999 27.4625,0 c 9.9125,0 15.7625,4.55 15.7625,13.4875 0,2.1125 -0.1625,4.3875 -0.4875,6.3375 l -0.975,5.85 c -1.7875,10.725 -9.75,16.0874999 -20.8,16.0874999 l -27.95,0 z"
         style="font-style:italic;font-variant:normal;font-weight:normal;font-stretch:normal;font-size:162.5px;font-family:'IBM Plex Mono';-inkscape-font-specification:'IBM Plex Mono Italic'"
         id="path4199" />
      <path
         d="m 746.05181,54.331463 7.3125,-43.7125 c 1.625,-9.75000014 7.475,-16.5750001 9.5875,-19.0125001 5.0375,-5.8499999 11.05,-8.4499999 20.8,-8.4499999 l 14.3,0 2.1125,-12.675 -12.675,0 c -16.0875,0 -24.5375,9.1 -30.3875,22.4249999 l -0.8125,0 3.7375,-22.4249999 -36.2375,0 -1.7875,10.8875 23.5625,0 -12.1875,72.9625 12.675,0 z"
         style="font-style:italic;font-variant:normal;font-weight:normal;font-stretch:normal;font-size:162.5px;font-family:'IBM Plex Mono';-inkscape-font-specification:'IBM Plex Mono Italic'"
         id="path4201" />
    </g>
    <g
       style="font-style:normal;font-weight:normal;font-size:180px;line-height:125%;font-family:sans-serif;text-align:center;letter-spacing:0px;word-spacing:0px;text-anchor:middle;fill:#5a6872;fill-opacity:1;stroke:none;stroke-width:1px;stroke-linecap:butt;stroke-linejoin:miter;stroke-opacity:1"
       id="text4173">
      <path
         d="m 357.84137,236.04602 0,-17.625 -103.125,0 0,17.625 41.0625,0 0,113.25 21,0 0,-113.25 41.0625,0 z"
         style="font-style:normal;font-variant:normal;font-weight:600;font-stretch:normal;font-size:187.5px;font-family:'IBM Plex Mono';-inkscape-font-specification:'IBM Plex Mono Semi-Bold';fill:#5a6872;fill-opacity:1"
         id="path4204" />
      <path
         d="m 431.64313,293.04602 -12,33.1875 -1.125,0 -12,-33.1875 -15.375,-40.5 -21.375,0 39,95.4375 -8.8125,22.3125 -22.875,0 0,16.5 16.3125,0 c 15.375,0 22.3125,-6.375 27.375,-18.75 l 46.875,-115.5 -20.625,0 -15.375,40.5 z"
         style="font-style:normal;font-variant:normal;font-weight:600;font-stretch:normal;font-size:187.5px;font-family:'IBM Plex Mono';-inkscape-font-specification:'IBM Plex Mono Semi-Bold';fill:#5a6872;fill-opacity:1"
         id="path4206" />
      <path
         d="m 489.69489,386.79602 20.4375,0 0,-54 1.125,0 c 5.625,11.625 15,18.75 29.25,18.75 22.6875,0 37.3125,-17.4375 37.3125,-50.625 0,-33.1875 -14.625,-50.625 -37.3125,-50.625 -14.25,0 -23.625,7.125 -29.25,18.75 l -1.125,0 0,-16.5 -20.4375,0 0,134.25 z m 42.375,-51.9375 c -11.8125,0 -21.9375,-6 -21.9375,-17.8125 l 0,-32.25 c 0,-11.8125 10.125,-17.8125 21.9375,-17.8125 15.375,0 24.1875,10.3125 24.1875,26.0625 l 0,15.75 c 0,15.75 -8.8125,26.0625 -24.1875,26.0625 z"
         style="font-style:normal;font-variant:normal;font-weight:600;font-stretch:normal;font-size:187.5px;font-family:'IBM Plex Mono';-inkscape-font-specification:'IBM Plex Mono Semi-Bold';fill:#5a6872;fill-opacity:1"
         id="path4208" />
      <path
         d="m 645.62164,351.54602 c 19.875,0 33.375,-8.8125 39.9375,-20.0625 l -12.75,-11.25 c -5.4375,9 -14.4375,14.8125 -26.8125,14.8125 -16.6875,0 -26.8125,-10.6875 -26.8125,-25.875 l 0,-3.1875 69.375,0 0,-7.6875 c 0,-28.5 -17.25,-48 -44.4375,-48 -27.5625,0 -45.5625,19.6875 -45.5625,50.8125 0,30.75 17.4375,50.4375 47.0625,50.4375 z m -1.5,-85.6875 c 14.25,0 23.625,9.9375 23.625,25.125 l 0,1.875 -48.5625,0 0,-1.3125 c 0,-15 10.3125,-25.6875 24.9375,-25.6875 z"
         style="font-style:normal;font-variant:normal;font-weight:600;font-stretch:normal;font-size:187.5px;font-family:'IBM Plex Mono';-inkscape-font-specification:'IBM Plex Mono Semi-Bold';fill:#5a6872;fill-opacity:1"
         id="path4210" />
      <path
         d="m 716.9859,349.29602 25.125,0 13.125,-75 1.6875,0 12.9375,75 25.125,0 13.5,-96.75 -16.6875,0 -9.5625,81.375 -1.6875,0 -14.25,-81.375 -19.875,0 -14.4375,81.375 -1.6875,0 -9.375,-81.375 -17.4375,0 13.5,96.75 z"
         style="font-style:normal;font-variant:normal;font-weight:600;font-stretch:normal;font-size:187.5px;font-family:'IBM Plex Mono';-inkscape-font-specification:'IBM Plex Mono Semi-Bold';fill:#5a6872;fill-opacity:1"
         id="path4212" />
      <path
         d="m 826.41266,349.29602 81.1875,0 0,-16.5 -35.0625,0 0,-44.625 c 0,-9.9375 9.375,-16.125 24.375,-16.125 l 20.25,0 0,-19.5 -13.6875,0 c -16.6875,0 -25.875,9.9375 -29.8125,20.625 l -1.125,0 0,-20.625 -46.125,0 0,16.5 25.6875,0 0,63.75 -25.6875,0 0,16.5 z"
         style="font-style:normal;font-variant:normal;font-weight:600;font-stretch:normal;font-size:187.5px;font-family:'IBM Plex Mono';-inkscape-font-specification:'IBM Plex Mono Semi-Bold';fill:#5a6872;fill-opacity:1"
         id="path4214" />
      <path
         d="m 986.83942,234.92102 c 10.125,0 13.87498,-4.875 13.87498,-11.0625 l 0,-3.9375 c 0,-6.1875 -3.74998,-11.0625 -14.06248,-11.0625 -10.125,0 -13.875,4.875 -13.875,11.0625 l 0,3.9375 c 0,6.1875 3.75,11.0625 14.0625,11.0625 z m -43.3125,114.375 84.37498,0 0,-16.5 -30.93748,0 0,-80.25 -53.4375,0 0,16.5 33,0 0,63.75 -33,0 0,16.5 z"
         style="font-style:normal;font-variant:normal;font-weight:600;font-stretch:normal;font-size:187.5px;font-family:'IBM Plex Mono';-inkscape-font-specification:'IBM Plex Mono Semi-Bold';fill:#5a6872;fill-opacity:1"
         id="path4216" />
      <path
         d="m 1136.0162,349.29602 0,-16.5 -41.25,0 0,-63.75 41.25,0 0,-16.5 -41.25,0 0,-34.125 -19.125,0 0,24.1875 c 0,7.5 -2.8125,9.9375 -9.9375,9.9375 l -21.1875,0 0,16.5 29.8125,0 0,55.6875 c 0,14.4375 7.875,24.5625 24.75,24.5625 l 36.9375,0 z"
         style="font-style:normal;font-variant:normal;font-weight:600;font-stretch:normal;font-size:187.5px;font-family:'IBM Plex Mono';-inkscape-font-specification:'IBM Plex Mono Semi-Bold';fill:#5a6872;fill-opacity:1"
         id="path4218" />
      <path
         d="m 1207.7554,351.54602 c 19.875,0 33.375,-8.8125 39.9375,-20.0625 l -12.75,-11.25 c -5.4375,9 -14.4375,14.8125 -26.8125,14.8125 -16.6875,0 -26.8125,-10.6875 -26.8125,-25.875 l 0,-3.1875 69.375,0 0,-7.6875 c 0,-28.5 -17.25,-48 -44.4375,-48 -27.5625,0 -45.5625,19.6875 -45.5625,50.8125 0,30.75 17.4375,50.4375 47.0625,50.4375 z m -1.5,-85.6875 c 14.25,0 23.625,9.9375 23.625,25.125 l 0,1.875 -48.5625,0 0,-1.3125 c 0,-15 10.3125,-25.6875 24.9375,-25.6875 z"
         style="font-style:normal;font-variant:normal;font-weight:600;font-stretch:normal;font-size:187.5px;font-family:'IBM Plex Mono';-inkscape-font-specification:'IBM Plex Mono Semi-Bold';fill:#5a6872;fill-opacity:1"
         id="path4220" />
      <path
         d="m 1276.1197,349.29602 81.1875,0 0,-16.5 -35.0625,0 0,-44.625 c 0,-9.9375 9.375,-16.125 24.375,-16.125 l 20.25,0 0,-19.5 -13.6875,0 c -16.6875,0 -25.875,9.9375 -29.8125,20.625 l -1.125,0 0,-20.625 -46.125,0 0,16.5 25.6875,0 0,63.75 -25.6875,0 0,16.5 z"
         style="font-style:normal;font-variant:normal;font-weight:600;font-stretch:normal;font-size:187.5px;font-family:'IBM Plex Mono';-inkscape-font-specification:'IBM Plex Mono Semi-Bold';fill:#5a6872;fill-opacity:1"
         id="path4222" />
    </g>
    <path
       style="fill:#5596e6;fill-opacity:1;stroke:#000000;stroke-width:0.9965499;stroke-miterlimit:4;stroke-dasharray:2.98964981, 2.98964981;stroke-dashoffset:0;stroke-opacity:1"
       d="m -0.00172485,470.51254 1406.13572485,0 0,581.85136 -1406.13572485,0 z"
       id="rect4177" />
    <g
       style="font-style:normal;font-weight:normal;font-size:180px;line-height:125%;font-family:sans-serif;text-align:center;letter-spacing:0px;word-spacing:0px;text-anchor:middle;fill:#f5f7fa;fill-opacity:1;stroke:none;stroke-width:1px;stroke-linecap:butt;stroke-linejoin:miter;stroke-opacity:1"
       id="text4179">
      <path
         d="m 91.327759,656.38239 0,-6.125 -6.3,0 0,-24.85 c 0,-9.5375 -6.7375,-15.225 -17.325,-15.225 -9.1875,0 -14.9625,4.375 -17.2375,9.1 l 4.725,3.5 c 2.3625,-4.1125 6.0375,-6.65 12.075,-6.65 6.825,0 10.7625,3.4125 10.7625,9.975 l 0,4.4625 -9.625,0 c -13.5625,0 -19.425,4.8125 -19.425,13.125 0,8.4875 6.0375,13.7375 15.4875,13.7375 7.35,0 11.6375,-3.2375 13.5625,-8.4 l 0.4375,0 c 0.525,4.2 2.625,7.35 8.05,7.35 l 4.8125,0 z m -25.6375,-4.8125 c -5.775,0 -9.3625,-2.45 -9.3625,-7.0875 l 0,-1.8375 c 0,-4.375 3.7625,-6.825 12.075,-6.825 l 9.625,0 0,7.4375 c 0,4.6375 -5.1625,8.3125 -12.3375,8.3125 z"
         style="font-style:normal;font-variant:normal;font-weight:normal;font-stretch:normal;font-size:87.5px;font-family:'IBM Plex Mono';-inkscape-font-specification:'IBM Plex Mono';fill:#f5f7fa;fill-opacity:1"
         id="path4226" />
      <path
         d="m 156.4469,656.38239 7,0 0,-7.35 0.35,0 c 2.8875,5.5125 7.6125,8.4 13.9125,8.4 11.025,0 17.675,-8.8375 17.675,-23.625 0,-14.7875 -6.65,-23.625 -17.675,-23.625 -6.3,0 -11.025,2.8875 -13.9125,8.4 l -0.35,0 0,-26.95 -7,0 0,64.75 z m 18.55,-5.1625 c -6.2125,0 -11.55,-3.2375 -11.55,-9.275 l 0,-16.275 c 0,-6.0375 5.3375,-9.275 11.55,-9.275 8.1375,0 12.8625,5.425 12.8625,13.5625 l 0,7.7 c 0,8.1375 -4.725,13.5625 -12.8625,13.5625 z"
         style="font-style:normal;font-variant:normal;font-weight:normal;font-stretch:normal;font-size:87.5px;font-family:'IBM Plex Mono';-inkscape-font-specification:'IBM Plex Mono';fill:#f5f7fa;fill-opacity:1"
         id="path4228" />
      <path
         d="m 280.89104,657.43239 c 9.0125,0 14.7,-4.4625 17.325,-10.5 l -4.9875,-3.4125 c -2.275,4.9 -6.2125,7.875 -12.25,7.875 -8.4875,0 -13.0375,-5.775 -13.0375,-13.7375 l 0,-7.7 c 0,-7.9625 4.6375,-13.7375 12.8625,-13.7375 5.6,0 9.45,2.7125 11.1125,7.35 l 5.6,-2.975 c -2.5375,-6.125 -7.9625,-10.4125 -16.7125,-10.4125 -12.775,0 -20.3875,9.275 -20.3875,23.625 0,14.2625 7.525,23.625 20.475,23.625 z"
         style="font-style:normal;font-variant:normal;font-weight:normal;font-stretch:normal;font-size:87.5px;font-family:'IBM Plex Mono';-inkscape-font-specification:'IBM Plex Mono';fill:#f5f7fa;fill-opacity:1"
         id="path4230" />
      <path
         d="m 395.18518,656.38239 7,0 0,-64.75 -7,0 0,26.95 -0.35,0 c -2.8875,-5.5125 -7.6125,-8.4 -13.9125,-8.4 -11.025,0 -17.675,8.8375 -17.675,23.625 0,14.7875 6.65,23.625 17.675,23.625 6.3,0 11.025,-2.8875 13.9125,-8.4 l 0.35,0 0,7.35 z m -11.55,-5.1625 c -8.1375,0 -12.8625,-5.425 -12.8625,-13.5625 l 0,-7.7 c 0,-8.1375 4.725,-13.5625 12.8625,-13.5625 6.2125,0 11.55,3.2375 11.55,9.275 l 0,16.275 c 0,6.0375 -5.3375,9.275 -11.55,9.275 z"
         style="font-style:normal;font-variant:normal;font-weight:normal;font-stretch:normal;font-size:87.5px;font-family:'IBM Plex Mono';-inkscape-font-specification:'IBM Plex Mono';fill:#f5f7fa;fill-opacity:1"
         id="path4232" />
      <path
         d="m 489.96682,657.43239 c 8.925,0 15.4,-4.375 18.1125,-10.4125 l -5.1625,-3.5 c -2.3625,4.9 -6.9125,7.875 -12.95,7.875 -8.4875,0 -13.825,-5.775 -13.825,-13.7375 l 0,-2.1 33.425,0 0,-3.325 c 0,-12.775 -7.875,-22.05 -20.0375,-22.05 -12.25,0 -20.7375,9.275 -20.7375,23.7125 0,14.2625 8.225,23.5375 21.175,23.5375 z m -0.4375,-41.475 c 7.4375,0 12.5125,5.425 12.5125,13.3875 l 0,0.9625 -25.9,0 0,-0.6125 c 0,-7.875 5.6875,-13.7375 13.3875,-13.7375 z"
         style="font-style:normal;font-variant:normal;font-weight:normal;font-stretch:normal;font-size:87.5px;font-family:'IBM Plex Mono';-inkscape-font-specification:'IBM Plex Mono';fill:#f5f7fa;fill-opacity:1"
         id="path4234" />
      <path
         d="m 575.12346,656.38239 38.325,0 0,-5.95 -16.1,0 0,-33.25 18.1125,0 0,-5.95 -18.1125,0 0,-13.65 18.1125,0 0,-5.95 -15.1375,0 c -6.825,0 -9.975,4.2875 -9.975,10.325 l 0,9.275 -16.1,0 0,5.95 16.1,0 0,33.25 -15.225,0 0,5.95 z"
         style="font-style:normal;font-variant:normal;font-weight:normal;font-stretch:normal;font-size:87.5px;font-family:'IBM Plex Mono';-inkscape-font-specification:'IBM Plex Mono';fill:#f5f7fa;fill-opacity:1"
         id="path4236" />
      <path
         d="m 721.8801,661.54489 c 0,-7.35 -4.9875,-12.075 -16.625,-12.075 l -9.975,0 c -4.2875,0 -7.2625,-0.6125 -7.2625,-3.325 0,-3.0625 3.7625,-4.6375 6.475,-5.1625 1.4,0.2625 2.8,0.35 4.2875,0.35 10.5875,0 17.5875,-6.3875 17.5875,-15.575 0,-4.725 -1.8375,-8.6625 -5.075,-11.4625 l 0,-3.0625 10.15,0 0,-6.125 -8.3125,0 c -3.9375,0 -5.425,2.625 -5.425,6.125 l 0,0.7875 c -2.5375,-1.225 -5.5125,-1.8375 -8.925,-1.8375 -10.5875,0 -17.5,6.3875 -17.5,15.575 0,6.3875 3.325,11.375 8.8375,13.825 l 0,0.35 c -4.6375,1.1375 -8.1375,3.2375 -8.1375,7.875 0,3.0625 1.4875,4.9875 4.025,6.2125 l 0,1.05 c -4.6375,1.225 -7.35,3.85 -7.35,8.6625 0,7.175 5.95,11.2 20.475,11.2 15.05,0 22.75,-4.2875 22.75,-13.3875 z m -6.5625,0.35 c 0,4.9 -4.8125,7.4375 -12.95,7.4375 l -6.825,0 c -7.35,0 -10.2375,-3.325 -10.2375,-7.2625 0,-2.8875 1.575,-4.9 4.55,-6.125 l 15.6625,0 c 7.2625,0 9.8,2.3625 9.8,5.95 z m -16.5375,-25.9875 c -6.9125,0 -10.15,-3.5875 -10.15,-8.925 l 0,-2.5375 c 0,-5.3375 3.2375,-8.8375 10.15,-8.8375 7,0 10.2375,3.5 10.2375,8.8375 l 0,2.5375 c 0,5.3375 -3.2375,8.925 -10.2375,8.925 z"
         style="font-style:normal;font-variant:normal;font-weight:normal;font-stretch:normal;font-size:87.5px;font-family:'IBM Plex Mono';-inkscape-font-specification:'IBM Plex Mono';fill:#f5f7fa;fill-opacity:1"
         id="path4238" />
      <path
         d="m 786.29924,656.38239 7,0 0,-31.325 c 0,-5.95 5.6,-8.6625 11.2,-8.6625 6.9125,0 10.675,4.025 10.675,12.25 l 0,27.7375 7,0 0,-28.9625 c 0,-10.9375 -6.2125,-17.2375 -15.6625,-17.2375 -7.4375,0 -10.9375,3.9375 -12.8625,8.4 l -0.35,0 0,-26.95 -7,0 0,64.75 z"
         style="font-style:normal;font-variant:normal;font-weight:normal;font-stretch:normal;font-size:87.5px;font-family:'IBM Plex Mono';-inkscape-font-specification:'IBM Plex Mono';fill:#f5f7fa;fill-opacity:1"
         id="path4240" />
      <path
         d="m 911.70588,601.25739 c 4.025,0 5.5125,-1.925 5.5125,-4.4625 l 0,-1.4 c 0,-2.5375 -1.4875,-4.4625 -5.5125,-4.4625 -4.025,0 -5.5125,1.925 -5.5125,4.4625 l 0,1.4 c 0,2.5375 1.4875,4.4625 5.5125,4.4625 z m -19.775,55.125 38.5,0 0,-5.95 -15.225,0 0,-39.2 -23.275,0 0,5.95 16.275,0 0,33.25 -16.275,0 0,5.95 z"
         style="font-style:normal;font-variant:normal;font-weight:normal;font-stretch:normal;font-size:87.5px;font-family:'IBM Plex Mono';-inkscape-font-specification:'IBM Plex Mono';fill:#f5f7fa;fill-opacity:1"
         id="path4242" />
      <path
         d="m 996.51252,673.88239 18.89998,0 c 6.825,0 9.975,-4.2875 9.975,-10.325 l 0,-52.325 -29.66248,0 0,5.95 22.66248,0 0,50.75 -21.87498,0 0,5.95 z m 25.37498,-72.625 c 4.025,0 5.5125,-1.925 5.5125,-4.4625 l 0,-1.4 c 0,-2.5375 -1.4875,-4.4625 -5.5125,-4.4625 -4.025,0 -5.5125,1.925 -5.5125,4.4625 l 0,1.4 c 0,2.5375 1.4875,4.4625 5.5125,4.4625 z"
         style="font-style:normal;font-variant:normal;font-weight:normal;font-stretch:normal;font-size:87.5px;font-family:'IBM Plex Mono';-inkscape-font-specification:'IBM Plex Mono';fill:#f5f7fa;fill-opacity:1"
         id="path4244" />
      <path
         d="m 1101.7067,656.38239 7,0 0,-16.3625 7.7875,-7.0875 17.5875,23.45 8.6625,0 -20.9125,-27.475 18.725,-17.675 -8.575,0 -15.05,13.825 -7.875,7.4375 -0.35,0 0,-40.8625 -7,0 0,64.75 z"
         style="font-style:normal;font-variant:normal;font-weight:normal;font-stretch:normal;font-size:87.5px;font-family:'IBM Plex Mono';-inkscape-font-specification:'IBM Plex Mono';fill:#f5f7fa;fill-opacity:1"
         id="path4246" />
      <path
         d="m 1204.4508,656.38239 38.5,0 0,-5.95 -15.75,0 0,-58.8 -22.75,0 0,5.95 15.75,0 0,52.85 -15.75,0 0,5.95 z"
         style="font-style:normal;font-variant:normal;font-weight:normal;font-stretch:normal;font-size:87.5px;font-family:'IBM Plex Mono';-inkscape-font-specification:'IBM Plex Mono';fill:#f5f7fa;fill-opacity:1"
         id="path4248" />
      <path
         d="m 1313.5824,656.38239 0,-33.1625 c 0,-4.8125 2.625,-7.2625 6.3875,-7.2625 4.1125,0 5.425,2.5375 5.425,10.2375 l 0,30.1875 6.475,0 0,-33.1625 c 0,-4.8125 2.625,-7.2625 6.3,-7.2625 4.2,0 5.5125,2.5375 5.5125,10.2375 l 0,30.1875 6.475,0 0,-31.325 c 0,-9.5375 -1.925,-14.875 -9.275,-14.875 -5.3375,0 -8.1375,2.975 -9.8,7.0875 l -0.2625,0 c -0.525,-4.2 -3.0625,-7.0875 -8.225,-7.0875 -4.9875,0 -7.2625,2.8 -8.6625,6.3 l -0.35,0 0,-5.25 -6.475,0 0,45.15 6.475,0 z"
         style="font-style:normal;font-variant:normal;font-weight:normal;font-stretch:normal;font-size:87.5px;font-family:'IBM Plex Mono';-inkscape-font-specification:'IBM Plex Mono';fill:#f5f7fa;fill-opacity:1"
         id="path4250" />
      <path
         d="m 58.777759,765.75739 0,-31.325 c 0,-5.95 5.6,-8.6625 11.2,-8.6625 6.9125,0 10.675,4.025 10.675,12.25 l 0,27.7375 7,0 0,-28.9625 c 0,-10.9375 -6.2125,-17.2375 -15.6625,-17.2375 -7.4375,0 -10.9375,3.9375 -12.8625,8.4 l -0.35,0 0,-7.35 -7,0 0,45.15 7,0 z"
         style="font-style:normal;font-variant:normal;font-weight:normal;font-stretch:normal;font-size:87.5px;font-family:'IBM Plex Mono';-inkscape-font-specification:'IBM Plex Mono';fill:#f5f7fa;fill-opacity:1"
         id="path4252" />
      <path
         d="m 174.3844,766.80739 c 12.6875,0 20.475,-9.275 20.475,-23.625 0,-14.35 -7.7875,-23.625 -20.475,-23.625 -12.6875,0 -20.475,9.275 -20.475,23.625 0,14.35 7.7875,23.625 20.475,23.625 z m 0,-6.0375 c -7.7875,0 -13.0375,-4.6375 -13.0375,-14.35 l 0,-6.475 c 0,-9.7125 5.25,-14.35 13.0375,-14.35 7.7875,0 13.0375,4.6375 13.0375,14.35 l 0,6.475 c 0,9.7125 -5.25,14.35 -13.0375,14.35 z"
         style="font-style:normal;font-variant:normal;font-weight:normal;font-stretch:normal;font-size:87.5px;font-family:'IBM Plex Mono';-inkscape-font-specification:'IBM Plex Mono';fill:#f5f7fa;fill-opacity:1"
         id="path4254" />
      <path
         d="m 261.37854,783.25739 7,0 0,-24.85 0.35,0 c 2.8875,5.5125 7.6125,8.4 13.9125,8.4 11.025,0 17.675,-8.8375 17.675,-23.625 0,-14.7875 -6.65,-23.625 -17.675,-23.625 -6.3,0 -11.025,2.8875 -13.9125,8.4 l -0.35,0 0,-7.35 -7,0 0,62.65 z m 18.55,-22.6625 c -6.2125,0 -11.55,-3.2375 -11.55,-9.275 l 0,-16.275 c 0,-6.0375 5.3375,-9.275 11.55,-9.275 8.1375,0 12.8625,5.425 12.8625,13.5625 l 0,7.7 c 0,8.1375 -4.725,13.5625 -12.8625,13.5625 z"
         style="font-style:normal;font-variant:normal;font-weight:normal;font-stretch:normal;font-size:87.5px;font-family:'IBM Plex Mono';-inkscape-font-specification:'IBM Plex Mono';fill:#f5f7fa;fill-opacity:1"
         id="path4256" />
      <path
         d="m 395.18518,783.25739 7,0 0,-62.65 -7,0 0,7.35 -0.35,0 c -2.8875,-5.5125 -7.6125,-8.4 -13.9125,-8.4 -11.025,0 -17.675,8.8375 -17.675,23.625 0,14.7875 6.65,23.625 17.675,23.625 6.3,0 11.025,-2.8875 13.9125,-8.4 l 0.35,0 0,24.85 z m -11.55,-22.6625 c -8.1375,0 -12.8625,-5.425 -12.8625,-13.5625 l 0,-7.7 c 0,-8.1375 4.725,-13.5625 12.8625,-13.5625 6.2125,0 11.55,3.2375 11.55,9.275 l 0,16.275 c 0,6.0375 -5.3375,9.275 -11.55,9.275 z"
         style="font-style:normal;font-variant:normal;font-weight:normal;font-stretch:normal;font-size:87.5px;font-family:'IBM Plex Mono';-inkscape-font-specification:'IBM Plex Mono';fill:#f5f7fa;fill-opacity:1"
         id="path4258" />
      <path
         d="m 469.66682,765.75739 37.7125,0 0,-5.95 -17.5,0 0,-24.7625 c 0,-4.2875 4.725,-7.4375 12.6,-7.4375 l 9.3625,0 0,-7 -7.9625,0 c -7.525,0 -11.8125,3.7625 -13.5625,8.05 l -0.4375,0 0,-8.05 -20.2125,0 0,5.95 13.2125,0 0,33.25 -13.2125,0 0,5.95 z"
         style="font-style:normal;font-variant:normal;font-weight:normal;font-stretch:normal;font-size:87.5px;font-family:'IBM Plex Mono';-inkscape-font-specification:'IBM Plex Mono';fill:#f5f7fa;fill-opacity:1"
         id="path4260" />
      <path
         d="m 594.63596,766.80739 c 11.55,0 19.075,-5.1625 19.075,-14.0875 0,-9.8 -9.0125,-11.55 -15.4875,-12.5125 l -7.0875,-1.05 c -4.025,-0.6125 -7.9625,-1.8375 -7.9625,-6.5625 0,-4.6375 3.9375,-7.175 11.025,-7.175 7.9625,0 11.9875,3.15 14.0875,5.6875 l 4.55,-4.2875 c -4.2875,-4.55 -10.2375,-7.2625 -18.375,-7.2625 -10.5,0 -18.2,4.4625 -18.2,13.475 0,9.8 9.1,11.55 15.4875,12.5125 l 7.0875,1.05 c 4.1125,0.6125 7.9625,1.8375 7.9625,6.5625 0,5.3375 -4.9875,7.7875 -11.9875,7.7875 -7.175,0 -12.075,-2.5375 -16.3625,-7.0875 l -4.725,4.1125 c 4.725,5.3375 11.4625,8.8375 20.9125,8.8375 z"
         style="font-style:normal;font-variant:normal;font-weight:normal;font-stretch:normal;font-size:87.5px;font-family:'IBM Plex Mono';-inkscape-font-specification:'IBM Plex Mono';fill:#f5f7fa;fill-opacity:1"
         id="path4262" />
      <path
         d="m 718.8176,765.75739 0,-5.95 -20.5625,0 0,-33.25 20.5625,0 0,-5.95 -20.5625,0 0,-15.925 -6.7375,0 0,11.8125 c 0,3.0625 -1.1375,4.1125 -4.1125,4.1125 l -11.2,0 0,5.95 15.05,0 0,28.875 c 0,6.0375 3.15,10.325 9.975,10.325 l 17.5875,0 z"
         style="font-style:normal;font-variant:normal;font-weight:normal;font-stretch:normal;font-size:87.5px;font-family:'IBM Plex Mono';-inkscape-font-specification:'IBM Plex Mono';fill:#f5f7fa;fill-opacity:1"
         id="path4264" />
      <path
         d="m 814.64924,765.75739 7,0 0,-45.15 -7,0 0,31.325 c 0,5.95 -5.6,8.6625 -11.2,8.6625 -6.9125,0 -10.675,-4.025 -10.675,-12.25 l 0,-27.7375 -7,0 0,28.9625 c 0,10.9375 6.2125,17.2375 15.6625,17.2375 7.4375,0 10.9375,-3.9375 12.8625,-8.4 l 0.35,0 0,7.35 z"
         style="font-style:normal;font-variant:normal;font-weight:normal;font-stretch:normal;font-size:87.5px;font-family:'IBM Plex Mono';-inkscape-font-specification:'IBM Plex Mono';fill:#f5f7fa;fill-opacity:1"
         id="path4266" />
      <path
         d="m 913.36838,765.75739 16.1875,-45.15 -6.9125,0 -6.475,18.9 -7,20.3875 -0.35,0 -7,-20.3875 -6.475,-18.9 -7.0875,0 16.1875,45.15 8.925,0 z"
         style="font-style:normal;font-variant:normal;font-weight:normal;font-stretch:normal;font-size:87.5px;font-family:'IBM Plex Mono';-inkscape-font-specification:'IBM Plex Mono';fill:#f5f7fa;fill-opacity:1"
         id="path4268" />
      <path
         d="m 997.12502,765.75739 9.09998,0 7.35,-37.8 0.7,0 7.175,37.8 9.1,0 6.9125,-45.15 -6.0375,0 -5.1625,39.025 -0.7875,0 -7.7,-39.025 -7.7,0 -7.7,39.025 -0.7875,0 -5.16248,-39.025 -6.2125,0 6.9125,45.15 z"
         style="font-style:normal;font-variant:normal;font-weight:normal;font-stretch:normal;font-size:87.5px;font-family:'IBM Plex Mono';-inkscape-font-specification:'IBM Plex Mono';fill:#f5f7fa;fill-opacity:1"
         id="path4270" />
      <path
         d="m 1105.9067,765.75739 7.35,-10.5875 4.9875,-7.175 0.35,0 5.1625,7.175 7.6125,10.5875 8.4,0 -16.975,-23.0125 16.5375,-22.1375 -8.05,0 -6.7375,9.5375 -5.25,7.525 -0.35,0 -5.425,-7.525 -6.825,-9.5375 -8.4,0 16.3625,22.225 -16.8,22.925 8.05,0 z"
         style="font-style:normal;font-variant:normal;font-weight:normal;font-stretch:normal;font-size:87.5px;font-family:'IBM Plex Mono';-inkscape-font-specification:'IBM Plex Mono';fill:#f5f7fa;fill-opacity:1"
         id="path4272" />
      <path
         d="m 1230.7008,739.50739 -6.7375,17.15 -0.35,0 -6.7375,-17.15 -7.6125,-18.9 -7.175,0 18.2,44.275 -5.075,12.425 -10.5,0 0,5.95 6.65,0 c 6.825,0 9.45,-2.45 11.55,-7.6125 l 22.4,-55.0375 -7,0 -7.6125,18.9 z"
         style="font-style:normal;font-variant:normal;font-weight:normal;font-stretch:normal;font-size:87.5px;font-family:'IBM Plex Mono';-inkscape-font-specification:'IBM Plex Mono';fill:#f5f7fa;fill-opacity:1"
         id="path4274" />
      <path
         d="m 1347.4449,765.75739 0,-5.95 -30.0125,0 29.1375,-32.4625 0,-6.7375 -35.7875,0 0,5.95 28.175,0 -29.1375,32.4625 0,6.7375 37.625,0 z"
         style="font-style:normal;font-variant:normal;font-weight:normal;font-stretch:normal;font-size:87.5px;font-family:'IBM Plex Mono';-inkscape-font-specification:'IBM Plex Mono';fill:#f5f7fa;fill-opacity:1"
         id="path4276" />
    </g>
    <g
       style="font-style:normal;font-weight:normal;font-size:180px;line-height:125%;font-family:sans-serif;text-align:center;letter-spacing:0px;word-spacing:0px;text-anchor:middle;fill:#f5f7fa;fill-opacity:1;stroke:none;stroke-width:1px;stroke-linecap:butt;stroke-linejoin:miter;stroke-opacity:1"
       id="text4185">
      <path
         d="m 100.02429,997.1437 c 19.125,0 27.45,-14.9625 27.45,-40.6125 0,-25.65 -8.325,-40.6125 -27.45,-40.6125 -19.124998,0 -27.449998,14.9625 -27.449998,40.6125 0,25.65 8.325,40.6125 27.449998,40.6125 z m 0,-8.2125 c -12.599998,0 -17.662498,-10.2375 -17.662498,-25.9875 l 0,-12.825 c 0,-15.75 5.0625,-25.9875 17.662498,-25.9875 12.6,0 17.6625,10.2375 17.6625,25.9875 l 0,12.825 c 0,15.75 -5.0625,25.9875 -17.6625,25.9875 z m 0,-25.7625 c 5.175,0 6.975,-2.3625 6.975,-5.4 l 0,-2.475 c 0,-3.0375 -1.8,-5.4 -6.975,-5.4 -5.174998,0 -6.974998,2.3625 -6.974998,5.4 l 0,2.475 c 0,3.0375 1.8,5.4 6.974998,5.4 z"
         style="font-style:normal;font-variant:normal;font-weight:normal;font-stretch:normal;font-size:112.5px;font-family:'IBM Plex Mono';-inkscape-font-specification:'IBM Plex Mono';fill:#f5f7fa;fill-opacity:1"
         id="path4279" />
      <path
         d="m 263.3989,995.7937 0,-8.2125 -20.7,0 0,-70.3125 -10.35,0 -25.65,14.5125 3.7125,7.2 22.8375,-13.1625 0,61.7625 -22.5,0 0,8.2125 52.65,0 z"
         style="font-style:normal;font-variant:normal;font-weight:normal;font-stretch:normal;font-size:112.5px;font-family:'IBM Plex Mono';-inkscape-font-specification:'IBM Plex Mono';fill:#f5f7fa;fill-opacity:1"
         id="path4281" />
      <path
         d="m 396.51101,987.5812 -42.6375,0 21.9375,-19.125 c 10.4625,-9.1125 17.55,-17.8875 17.55,-29.8125 0,-13.275 -8.775,-22.725 -24.4125,-22.725 -15.4125,0 -22.5,9.225 -25.5375,18.45 l 8.4375,3.15 c 2.475,-8.1 7.3125,-13.3875 16.875,-13.3875 9.675,0 14.7375,5.4 14.7375,14.85 l 0,1.35 c 0,7.9875 -5.5125,15.3 -13.1625,22.1625 l -26.2125,23.625 0,9.675 52.425,0 0,-8.2125 z"
         style="font-style:normal;font-variant:normal;font-weight:normal;font-stretch:normal;font-size:112.5px;font-family:'IBM Plex Mono';-inkscape-font-specification:'IBM Plex Mono';fill:#f5f7fa;fill-opacity:1"
         id="path4283" />
      <path
         d="m 492.72312,950.5687 0,8.1 9.3375,0 c 11.475,0 17.325,5.4 17.325,14.625 l 0,0.9 c 0,9.3375 -6.1875,14.7375 -17.2125,14.7375 -9.9,0 -14.5125,-4.3875 -18.675,-10.575 l -7.0875,5.4 c 4.8375,6.75 11.925,13.3875 25.7625,13.3875 16.3125,0 27.1125,-9.3375 27.1125,-22.8375 0,-11.8125 -8.2125,-18.1125 -16.875,-19.8 l 0,-0.45 c 8.55,-2.1375 15.3,-8.2125 15.3,-18.3375 0,-12.7125 -10.6875,-19.8 -24.075,-19.8 -12.825,0 -19.8,6.525 -23.85,12.825 l 7.0875,5.4 c 3.2625,-5.9625 8.2125,-10.0125 16.5375,-10.0125 8.55,0 14.4,4.275 14.4,12.6 l 0,0.7875 c 0,7.5375 -5.5125,13.05 -16.425,13.05 l -8.6625,0 z"
         style="font-style:normal;font-variant:normal;font-weight:normal;font-stretch:normal;font-size:112.5px;font-family:'IBM Plex Mono';-inkscape-font-specification:'IBM Plex Mono';fill:#f5f7fa;fill-opacity:1"
         id="path4285" />
      <path
         d="m 657.44773,995.7937 0,-15.4125 11.7,0 0,-7.7625 -11.7,0 0,-55.35 -13.725,0 -33.975,54.7875 0,8.325 38.7,0 0,15.4125 9,0 z m -9.45,-71.2125 0.45,0 0,48.0375 -30.2625,0 29.8125,-48.0375 z"
         style="font-style:normal;font-variant:normal;font-weight:normal;font-stretch:normal;font-size:112.5px;font-family:'IBM Plex Mono';-inkscape-font-specification:'IBM Plex Mono';fill:#f5f7fa;fill-opacity:1"
         id="path4287" />
      <path
         d="m 797.19734,917.2687 -42.75,0 -2.8125,43.2 7.9875,1.125 c 3.375,-3.7125 6.975,-6.6375 14.4,-6.6375 10.9125,0 16.9875,6.1875 16.9875,16.5375 l 0,0.9 c 0,10.2375 -5.9625,16.5375 -16.7625,16.5375 -9.675,0 -13.95,-4.3875 -18.1125,-10.575 l -7.0875,5.4 c 4.8375,6.75 11.7,13.3875 24.975,13.3875 16.7625,0 26.775,-10.6875 26.775,-25.9875 0,-15.1875 -10.0125,-24.1875 -23.7375,-24.1875 -8.325,0 -12.6,3.2625 -16.425,8.55 l -0.7875,0 2.25,-30.0375 35.1,0 0,-8.2125 z"
         style="font-style:normal;font-variant:normal;font-weight:normal;font-stretch:normal;font-size:112.5px;font-family:'IBM Plex Mono';-inkscape-font-specification:'IBM Plex Mono';fill:#f5f7fa;fill-opacity:1"
         id="path4289" />
      <path
         d="m 909.60945,997.1437 c 15.975,0 26.4375,-10.575 26.4375,-25.9875 0,-14.85 -9.7875,-24.1875 -23.5125,-24.1875 -9.7875,0 -15.525,4.8375 -19.35,11.25 l -0.5625,-0.225 c 4.3875,-18.225 13.8375,-28.4625 30.9375,-40.725 l -12.15,0 c -12.825,8.2125 -28.4625,26.4375 -28.4625,49.725 0,18.675 10.125,30.15 26.6625,30.15 z m -0.1125,-7.9875 c -10.6875,0 -16.9875,-6.1875 -16.9875,-16.7625 l 0,-0.9 c 0,-10.575 6.3,-16.7625 16.9875,-16.7625 10.6875,0 16.9875,6.1875 16.9875,16.7625 l 0,0.9 c 0,10.575 -6.3,16.7625 -16.9875,16.7625 z"
         style="font-style:normal;font-variant:normal;font-weight:normal;font-stretch:normal;font-size:112.5px;font-family:'IBM Plex Mono';-inkscape-font-specification:'IBM Plex Mono';fill:#f5f7fa;fill-opacity:1"
         id="path4291" />
      <path
         d="m 1040.2466,995.7937 30.15,-70.2 0,-8.325 -52.425,0 0,22.725 8.4375,0 0,-14.625 34.425,0 -30.7125,70.425 10.125,0 z"
         style="font-style:normal;font-variant:normal;font-weight:normal;font-stretch:normal;font-size:112.5px;font-family:'IBM Plex Mono';-inkscape-font-specification:'IBM Plex Mono';fill:#f5f7fa;fill-opacity:1"
         id="path4293" />
      <path
         d="m 1179.3212,997.1437 c 18.225,0 27.5625,-9.7875 27.5625,-22.725 0,-10.6875 -6.4125,-16.875 -15.975,-19.4625 l 0,-0.9 c 8.325,-2.8125 13.6125,-9.45 13.6125,-18.45 0,-11.925 -9.3375,-19.6875 -25.2,-19.6875 -15.8625,0 -25.2,7.7625 -25.2,19.6875 0,9 5.2875,15.6375 13.6125,18.45 l 0,0.9 c -9.5625,2.5875 -15.975,8.775 -15.975,19.4625 0,12.9375 9.3375,22.725 27.5625,22.725 z m 0,-7.9875 c -11.025,0 -17.775,-5.2875 -17.775,-14.175 l 0,-2.475 c 0,-9 6.525,-14.175 17.775,-14.175 11.25,0 17.775,5.175 17.775,14.175 l 0,2.475 c 0,8.8875 -6.75,14.175 -17.775,14.175 z m 0,-38.475 c -10.125,0 -15.6375,-4.6125 -15.6375,-12.6 l 0,-1.575 c 0,-7.9875 5.7375,-12.4875 15.6375,-12.4875 9.9,0 15.6375,4.5 15.6375,12.4875 l 0,1.575 c 0,7.9875 -5.5125,12.6 -15.6375,12.6 z"
         style="font-style:normal;font-variant:normal;font-weight:normal;font-stretch:normal;font-size:112.5px;font-family:'IBM Plex Mono';-inkscape-font-specification:'IBM Plex Mono';fill:#f5f7fa;fill-opacity:1"
         id="path4295" />
      <path
         d="m 1340.7833,946.0687 c 0,-18.675 -10.125,-30.15 -26.6625,-30.15 -15.975,0 -26.4375,10.575 -26.4375,25.9875 0,14.85 9.7875,24.1875 23.5125,24.1875 9.7875,0 15.525,-4.8375 19.35,-11.25 l 0.5625,0.225 c -4.3875,18.225 -13.8375,28.4625 -30.9375,40.725 l 12.15,0 c 12.825,-8.2125 28.4625,-26.4375 28.4625,-49.725 z m -26.55,12.2625 c -10.6875,0 -16.9875,-6.1875 -16.9875,-16.7625 l 0,-0.9 c 0,-10.575 6.3,-16.7625 16.9875,-16.7625 10.6875,0 16.9875,6.1875 16.9875,16.7625 l 0,0.9 c 0,10.575 -6.3,16.7625 -16.9875,16.7625 z"
         style="font-style:normal;font-variant:normal;font-weight:normal;font-stretch:normal;font-size:112.5px;font-family:'IBM Plex Mono';-inkscape-font-specification:'IBM Plex Mono';fill:#f5f7fa;fill-opacity:1"
         id="path4297" />
    </g>
    <g
       style="font-style:normal;font-weight:normal;font-size:180px;line-height:125%;font-family:sans-serif;text-align:center;letter-spacing:0px;word-spacing:0px;text-anchor:middle;fill:#000000;fill-opacity:1;stroke:none;stroke-width:1px;stroke-linecap:butt;stroke-linejoin:miter;stroke-opacity:1"
       id="text4445" />
  </g>
</svg>
